<svg xmlns="http://www.w3.org/2000/svg" xmlns:xlink="http://www.w3.org/1999/xlink" width="700" zoomAndPan="magnify" viewBox="0 0 525 525.000007" height="700" preserveAspectRatio="xMidYMid meet" version="1.0"><defs><clipPath id="e2fa2de8bb"><path d="M 0.5 0 L 512 0 L 512 524 L 0.5 524 Z M 0.5 0 " clip-rule="nonzero"/></clipPath></defs><g clip-path="url(#e2fa2de8bb)"><path fill="#ff2b51" d="M 472.742188 409.5 C 460.171875 400.074219 445.925781 393.367188 431.152344 388.550781 L 429.582031 387.921875 L 428.429688 387.398438 L 427.382812 386.769531 L 426.4375 386.140625 L 425.601562 385.511719 L 424.65625 384.671875 C 424.34375 384.359375 424.03125 384.042969 423.714844 383.730469 C 423.402344 383.417969 423.191406 383.101562 422.980469 382.789062 L 422.351562 381.738281 L 421.828125 380.691406 C 421.621094 380.273438 421.410156 379.855469 421.304688 379.539062 L 420.886719 378.492188 C 420.257812 376.398438 419.523438 374.300781 418.792969 372.207031 C 414.707031 360.789062 410.097656 347.902344 400.355469 339.101562 C 381.496094 321.921875 351.011719 327.578125 331.945312 341.617188 C 329.433594 343.503906 327.023438 345.492188 324.71875 347.589844 C 323.460938 348.53125 322.203125 349.578125 320.945312 350.523438 C 319.792969 351.359375 318.539062 352.199219 317.386719 353.140625 C 316.023438 353.980469 314.765625 354.816406 313.40625 355.757812 C 312.042969 356.492188 310.679688 357.332031 309.320312 358.066406 C 307.957031 358.796875 306.386719 359.53125 304.917969 360.265625 C 303.558594 360.789062 302.195312 361.417969 300.832031 361.941406 C 299.261719 362.464844 297.691406 362.988281 296.015625 363.511719 C 294.441406 363.929688 292.871094 364.351562 291.300781 364.769531 C 289.730469 365.1875 287.949219 365.292969 286.167969 365.605469 L 280.929688 366.132812 L 275.480469 366.234375 L 269.929688 365.921875 C 233.265625 360.996094 197.019531 353.457031 163.179688 338.894531 C 151.972656 334.074219 141.179688 328.3125 131.019531 321.714844 C 131.230469 319.511719 131.4375 317.3125 131.648438 315.113281 C 133.742188 296.152344 137.933594 277.085938 142.019531 258.753906 C 144.953125 245.761719 147.886719 232.355469 150.085938 218.945312 C 152.601562 203.859375 154.695312 186.050781 151.027344 168.765625 C 147.46875 152.003906 138.773438 138.070312 126.828125 129.902344 C 124.839844 127.910156 122.742188 126.128906 120.4375 124.558594 C 118.449219 122.460938 116.144531 120.683594 113.839844 119.003906 C 112.164062 117.226562 110.277344 115.652344 108.390625 114.1875 C 108.078125 113.976562 107.761719 113.769531 107.449219 113.558594 C 106.191406 112.195312 104.726562 110.835938 103.257812 109.578125 C 102.421875 108.949219 101.6875 108.320312 100.847656 107.691406 C 100.011719 106.75 99.070312 105.804688 98.125 104.96875 C 96.867188 103.816406 95.613281 102.769531 94.355469 101.824219 C 93.933594 101.300781 93.515625 100.882812 92.992188 100.359375 C 91.421875 98.683594 89.640625 97.109375 87.859375 95.75 C 85.867188 93.445312 83.667969 91.246094 81.257812 89.359375 C 79.269531 86.949219 77.070312 84.644531 74.765625 82.550781 C 72.773438 79.929688 70.679688 77.519531 68.375 75.320312 C 66.488281 72.492188 64.394531 69.875 62.195312 67.359375 C 60.414062 64.425781 58.527344 61.597656 56.433594 58.875 C 54.859375 55.730469 53.078125 52.589844 51.195312 49.65625 C 49.519531 45.464844 47.527344 41.484375 45.433594 37.503906 C 37.367188 22.417969 26.15625 9.742188 12.539062 0 L 12.222656 0.3125 C 28.878906 12.257812 41.871094 28.496094 49.9375 47.351562 C 47.527344 43.683594 44.910156 40.226562 42.183594 36.875 C 34.851562 27.867188 25.109375 18.332031 11.699219 7.019531 L 11.386719 7.332031 C 24.792969 18.648438 34.539062 28.179688 41.871094 37.1875 C 45.117188 41.171875 48.15625 45.359375 50.984375 49.761719 C 51.507812 51.015625 51.925781 52.273438 52.449219 53.53125 C 49.832031 50.390625 46.792969 47.246094 43.441406 43.894531 C 38.519531 39.074219 32.859375 34.046875 27.414062 29.226562 C 21.964844 24.410156 15.996094 19.171875 10.757812 14.039062 L 10.441406 14.351562 C 15.679688 19.484375 21.441406 24.617188 26.996094 29.542969 C 32.546875 34.464844 38.097656 39.390625 43.023438 44.207031 C 46.6875 47.769531 49.9375 51.332031 52.765625 54.683594 C 53.289062 56.152344 53.707031 57.511719 54.128906 58.980469 C 51.195312 56.253906 47.945312 53.636719 44.488281 50.808594 C 42.289062 49.027344 39.984375 47.246094 37.46875 45.359375 C 28.25 38.132812 17.671875 29.960938 9.8125 21.054688 L 9.5 21.371094 C 17.460938 30.378906 28.042969 38.550781 37.261719 45.78125 C 39.671875 47.769531 41.976562 49.550781 44.28125 51.332031 C 47.945312 54.265625 51.296875 57.09375 54.441406 59.921875 C 54.859375 61.492188 55.28125 63.066406 55.699219 64.636719 C 52.449219 62.332031 49.097656 60.132812 45.746094 57.929688 L 44.910156 57.40625 C 33.070312 49.761719 18.300781 40.226562 9.082031 28.074219 L 8.660156 28.390625 C 17.984375 40.542969 32.757812 50.074219 44.699219 57.828125 L 45.535156 58.351562 C 48.992188 60.550781 52.449219 62.855469 55.90625 65.265625 C 56.328125 66.941406 56.640625 68.617188 56.957031 70.292969 C 54.335938 68.929688 51.71875 67.464844 49.097656 66.101562 L 47.003906 65.054688 C 32.652344 57.617188 16.9375 48.1875 8.242188 35.199219 L 7.824219 35.410156 C 16.625 48.503906 32.441406 57.929688 46.792969 65.371094 L 48.890625 66.417969 C 51.71875 67.882812 54.441406 69.351562 57.164062 70.816406 C 57.480469 72.492188 57.792969 74.273438 58.003906 75.949219 C 56.328125 75.214844 54.546875 74.484375 52.871094 73.855469 C 51.296875 73.226562 49.832031 72.597656 48.261719 71.96875 C 27.519531 63.273438 14.214844 53.53125 7.40625 42.113281 L 6.882812 42.425781 C 13.691406 53.949219 27.097656 63.691406 47.945312 72.386719 L 52.554688 74.273438 C 54.335938 75.007812 56.222656 75.742188 58.003906 76.472656 C 58.210938 78.253906 58.421875 80.035156 58.632812 81.816406 L 56.011719 80.976562 C 53.8125 80.246094 51.613281 79.617188 49.414062 78.882812 C 34.328125 74.167969 14.632812 64.949219 6.355469 49.339844 L 5.9375 49.550781 C 14.214844 65.371094 34.011719 74.589844 49.097656 79.617188 C 51.296875 80.351562 53.601562 81.082031 55.699219 81.710938 L 58.527344 82.550781 C 58.632812 83.28125 58.632812 84.015625 58.738281 84.75 C 58.839844 85.902344 58.839844 86.949219 58.839844 88.101562 L 58.738281 88.101562 C 56.011719 87.472656 53.183594 86.84375 50.355469 86.113281 C 37.367188 82.757812 13.898438 74.484375 5.519531 56.253906 L 5.101562 56.464844 C 13.585938 74.902344 37.15625 83.179688 50.355469 86.53125 C 53.183594 87.265625 56.011719 87.890625 58.738281 88.519531 L 58.945312 88.519531 C 58.945312 90.40625 58.945312 92.398438 58.945312 94.28125 C 56.535156 93.863281 54.128906 93.445312 51.71875 93.027344 C 40.402344 90.929688 13.167969 83.808594 4.679688 63.167969 L 4.261719 63.378906 C 12.746094 84.226562 40.195312 91.453125 51.613281 93.550781 C 54.023438 93.96875 56.535156 94.386719 58.945312 94.804688 C 58.945312 96.796875 58.839844 98.789062 58.632812 100.777344 C 56.746094 100.566406 54.753906 100.359375 52.871094 100.148438 C 43.546875 98.890625 12.117188 93.234375 3.84375 70.1875 L 3.425781 70.398438 C 11.804688 93.652344 43.441406 99.3125 52.976562 100.566406 C 54.859375 100.777344 56.851562 100.988281 58.738281 101.195312 C 58.632812 103.292969 58.421875 105.28125 58.210938 107.378906 C 56.851562 107.273438 55.59375 107.273438 54.230469 107.167969 C 33.59375 105.703125 9.289062 97.007812 3.003906 77.3125 L 2.480469 77.417969 C 8.871094 97.320312 33.386719 106.015625 54.128906 107.585938 C 55.488281 107.691406 56.746094 107.796875 58.109375 107.796875 C 57.898438 109.890625 57.585938 111.988281 57.269531 114.1875 C 56.640625 114.1875 56.011719 114.1875 55.28125 114.1875 C 34.433594 113.558594 7.929688 105.492188 1.957031 84.332031 L 1.539062 84.433594 C 7.613281 105.804688 34.222656 113.976562 55.28125 114.605469 L 57.164062 114.605469 C 56.851562 116.804688 56.535156 119.003906 56.117188 121.101562 C 43.757812 121.207031 31.707031 118.902344 22.28125 114.5 C 10.863281 109.261719 3.527344 101.195312 1.121094 91.246094 L 0.59375 91.453125 C 3.109375 101.617188 10.546875 109.683594 22.070312 115.023438 C 31.605469 119.425781 43.652344 121.730469 56.117188 121.625 C 55.070312 127.699219 54.023438 133.671875 52.871094 139.644531 C 49.832031 155.566406 46.585938 172.011719 46.6875 188.355469 C 46.792969 212.449219 53.917969 236.441406 67.429688 258.859375 C 69.421875 262.839844 71.515625 266.714844 73.820312 270.589844 C 75.707031 274.46875 77.800781 278.34375 80.105469 282.113281 C 82.097656 286.199219 84.296875 290.179688 86.707031 294.160156 C 88.59375 298.144531 90.792969 302.125 93.097656 306 C 94.984375 309.875 96.972656 313.648438 99.171875 317.417969 C 101.058594 321.398438 103.050781 325.171875 105.355469 328.941406 C 107.238281 332.921875 109.230469 336.695312 111.429688 340.464844 C 113.210938 344.132812 115.097656 347.796875 117.085938 351.253906 C 118.867188 355.234375 120.964844 359.113281 123.164062 362.882812 C 124.945312 366.757812 126.933594 370.53125 129.132812 374.195312 C 130.914062 378.074219 132.90625 381.949219 135.105469 385.617188 C 136.78125 389.28125 138.667969 392.949219 140.761719 396.40625 C 142.753906 401.015625 145.164062 405.414062 147.78125 409.710938 C 156.6875 423.746094 169.363281 434.957031 184.445312 441.976562 C 200.265625 449.414062 216.609375 450.984375 231.589844 446.585938 C 256.414062 439.355469 273.804688 417.253906 286.167969 398.921875 C 288.472656 395.566406 290.777344 392.007812 292.976562 388.652344 C 296.957031 382.472656 301.042969 376.292969 305.441406 370.320312 C 313.824219 371.160156 322.203125 371.996094 330.585938 372.835938 C 340.328125 373.777344 350.382812 374.722656 360.230469 375.769531 C 380.34375 377.863281 401.925781 380.691406 422.5625 386.453125 C 425.285156 397.140625 427.066406 407.929688 428.847656 418.511719 C 431.363281 433.910156 433.980469 449.726562 439.429688 464.917969 C 444.5625 479.269531 451.894531 492.574219 460.171875 502.632812 C 470.542969 515.203125 481.960938 522.429688 494.21875 524 L 494.21875 523.582031 C 468.445312 520.230469 449.171875 491.003906 439.847656 464.8125 C 434.503906 449.726562 431.886719 433.910156 429.265625 418.511719 C 427.589844 408.035156 425.808594 397.242188 423.085938 386.664062 L 423.296875 386.664062 C 426.859375 397.347656 429.265625 408.347656 431.886719 419.765625 C 432.621094 423.121094 433.457031 426.578125 434.296875 430.035156 C 436.707031 441.03125 439.847656 451.929688 443.722656 462.507812 C 447.601562 472.671875 454.199219 487.441406 463.941406 500.328125 C 473.683594 513.210938 483.953125 520.753906 494.742188 523.164062 L 494.847656 522.746094 C 466.667969 516.5625 448.855469 474.976562 444.144531 462.402344 C 440.265625 451.824219 437.125 440.929688 434.714844 429.929688 C 433.875 426.472656 433.144531 423.015625 432.410156 419.664062 C 429.894531 408.765625 427.382812 397.664062 423.925781 386.769531 L 424.132812 386.769531 C 428.742188 398.082031 432.097656 409.710938 435.65625 421.757812 C 436.285156 423.957031 436.914062 426.050781 437.542969 428.253906 C 440.582031 438.414062 443.828125 449.203125 448.125 460.097656 C 454.617188 476.230469 472.21875 514.574219 495.476562 522.324219 L 495.578125 521.90625 C 472.53125 514.363281 455.039062 476.128906 448.542969 459.996094 C 444.246094 449.097656 441 438.308594 437.960938 428.148438 C 437.332031 425.949219 436.707031 423.851562 436.078125 421.652344 C 432.515625 409.710938 429.164062 398.1875 424.65625 386.976562 L 424.761719 386.976562 C 430.839844 399.128906 435.449219 411.910156 440.265625 425.214844 L 441.628906 429.089844 C 444.980469 438.414062 448.4375 448.15625 452.523438 457.792969 C 462.894531 482.308594 478.816406 513.210938 496.207031 521.59375 L 496.417969 521.171875 C 479.238281 512.792969 463.3125 481.992188 452.941406 457.585938 C 448.855469 447.945312 445.398438 438.203125 442.046875 428.882812 L 440.6875 425.003906 C 435.972656 411.804688 431.363281 399.128906 425.390625 387.082031 L 425.496094 387.082031 C 432.722656 399.023438 438.382812 411.804688 443.933594 424.898438 C 445.503906 428.460938 446.972656 432.128906 448.542969 435.898438 C 451.160156 442.289062 453.886719 448.890625 456.820312 455.488281 C 467.921875 480.632812 482.589844 510.800781 496.730469 520.859375 L 496.941406 520.441406 C 482.695312 510.277344 467.398438 478.433594 457.132812 455.28125 C 454.199219 448.679688 451.476562 442.082031 448.855469 435.691406 C 447.285156 431.917969 445.820312 428.355469 444.246094 424.691406 C 438.695312 411.804688 433.144531 399.128906 426.019531 387.292969 C 434.503906 399.023438 441.105469 411.386719 446.972656 423.222656 C 450.21875 429.824219 453.464844 436.738281 456.820312 443.964844 C 458.179688 447.003906 459.648438 450.042969 461.007812 453.183594 L 463.3125 458.109375 C 474.417969 482.097656 487.09375 509.230469 497.253906 520.019531 L 497.570312 519.707031 C 487.410156 508.917969 474.835938 481.785156 463.734375 457.898438 L 461.429688 452.976562 L 457.238281 443.757812 C 453.886719 436.527344 450.742188 429.613281 447.390625 423.015625 C 441.523438 411.386719 435.027344 399.234375 426.859375 387.710938 C 434.820312 397.035156 442.257812 407.824219 450.113281 421.546875 C 455.457031 430.871094 460.484375 441.136719 465.304688 450.878906 C 470.226562 461.042969 475.257812 471.9375 480.074219 482.515625 C 486.882812 497.394531 493.273438 511.535156 497.882812 519.289062 L 498.304688 519.078125 C 493.796875 511.222656 487.304688 497.183594 480.496094 482.308594 C 475.675781 471.726562 470.648438 460.832031 465.722656 450.671875 C 461.007812 440.929688 455.875 430.660156 450.535156 421.339844 C 443.933594 409.710938 436.390625 398.710938 427.90625 388.339844 C 437.4375 397.976562 445.925781 408.558594 453.257812 419.871094 C 459.226562 429.089844 464.675781 438.726562 469.496094 448.574219 C 482.800781 474.660156 494.21875 505.355469 498.304688 518.554688 L 498.722656 518.449219 C 494.636719 505.25 483.21875 474.449219 469.914062 448.367188 C 464.988281 438.519531 459.542969 428.882812 453.570312 419.664062 C 446.449219 408.664062 438.277344 398.394531 429.058594 389.074219 C 439.21875 397.769531 448.332031 407.613281 456.296875 418.300781 C 462.789062 427.203125 468.65625 436.527344 473.789062 446.375 C 486.675781 470.574219 497.464844 501.269531 498.933594 517.925781 L 499.351562 517.925781 C 497.882812 501.269531 487.09375 470.46875 474.207031 446.269531 C 469.074219 436.421875 463.210938 427.101562 456.714844 418.195312 C 448.960938 407.71875 440.058594 398.1875 430.210938 389.703125 C 441 397.558594 450.847656 406.671875 459.542969 416.832031 C 466.5625 425.320312 472.847656 434.539062 478.085938 444.175781 C 492.4375 469.738281 501.238281 499.800781 499.558594 517.296875 L 499.980469 517.296875 C 501.65625 499.800781 492.855469 469.632812 478.503906 443.964844 C 473.160156 434.222656 466.980469 425.003906 459.855469 416.519531 C 451.476562 406.671875 442.046875 397.871094 431.675781 390.121094 C 442.992188 397.035156 453.464844 405.519531 462.683594 415.054688 C 470.226562 423.121094 476.933594 432.128906 482.378906 441.765625 C 497.570312 467.957031 504.796875 497.917969 500.1875 516.355469 L 500.609375 516.460938 C 505.21875 497.8125 498.09375 467.746094 482.800781 441.453125 C 477.246094 431.8125 470.648438 422.804688 463 414.632812 C 454.09375 405.308594 444.039062 397.242188 433.144531 390.433594 C 444.980469 396.511719 455.980469 404.261719 465.828125 413.375 C 473.894531 421.023438 480.914062 429.824219 486.675781 439.460938 C 502.703125 465.964844 508.253906 495.820312 500.710938 515.621094 L 501.132812 515.832031 C 501.238281 515.515625 501.339844 515.203125 501.445312 514.992188 L 501.761719 515.097656 C 501.863281 514.78125 501.96875 514.574219 502.179688 514.257812 L 502.390625 514.363281 C 523.445312 478.851562 503.332031 432.339844 472.742188 409.5 Z M 66.277344 101.929688 C 68.375 102.140625 70.46875 102.347656 72.566406 102.558594 C 72.667969 104.339844 72.773438 106.121094 72.773438 108.007812 L 66.382812 107.691406 L 66.070312 107.691406 C 66.175781 106.539062 66.175781 105.28125 66.175781 104.128906 C 66.277344 103.398438 66.277344 102.664062 66.277344 101.929688 Z M 65.652344 89.359375 C 65.441406 87.683594 65.230469 86.113281 64.917969 84.433594 C 66.59375 84.960938 68.164062 85.585938 69.839844 86.214844 C 70.261719 87.789062 70.679688 89.359375 70.992188 90.929688 C 69.210938 90.40625 67.429688 89.988281 65.652344 89.570312 C 65.652344 89.464844 65.652344 89.464844 65.652344 89.359375 Z M 62.089844 72.703125 C 61.667969 71.445312 61.25 70.1875 60.832031 68.929688 C 61.984375 69.769531 63.03125 70.710938 64.183594 71.65625 C 64.8125 72.910156 65.441406 74.273438 66.070312 75.636719 C 64.8125 74.796875 63.554688 74.0625 62.296875 73.226562 C 62.195312 73.121094 62.195312 72.910156 62.089844 72.703125 Z M 60.515625 68.199219 C 59.992188 66.941406 59.574219 65.683594 59.050781 64.425781 C 59.992188 65.371094 60.832031 66.3125 61.667969 67.253906 C 62.402344 68.40625 63.03125 69.558594 63.554688 70.710938 C 62.613281 69.875 61.566406 69.035156 60.515625 68.199219 Z M 69.945312 78.359375 C 68.898438 77.625 67.851562 76.894531 66.804688 76.160156 C 66.277344 75.007812 65.753906 73.75 65.125 72.597656 C 66.070312 73.4375 67.011719 74.378906 67.957031 75.214844 C 68.582031 76.265625 69.316406 77.3125 69.945312 78.359375 Z M 82.308594 91.246094 L 82.9375 92.082031 C 81.886719 91.453125 80.839844 90.824219 79.792969 90.300781 C 79.269531 89.253906 78.640625 88.207031 78.011719 87.160156 C 78.953125 87.890625 79.898438 88.625 80.839844 89.359375 C 81.363281 89.988281 81.785156 90.617188 82.308594 91.246094 Z M 87.441406 95.855469 C 88.171875 96.691406 88.800781 97.53125 89.429688 98.367188 C 88.382812 97.738281 87.335938 97.214844 86.289062 96.691406 C 85.765625 95.644531 85.136719 94.703125 84.507812 93.757812 C 85.449219 94.386719 86.394531 95.121094 87.441406 95.855469 Z M 93.933594 101.929688 C 94.667969 102.769531 95.296875 103.605469 96.03125 104.445312 C 94.984375 103.816406 93.933594 103.398438 92.886719 102.871094 C 92.257812 101.929688 91.734375 100.882812 91.105469 99.941406 C 92.050781 100.566406 92.992188 101.195312 93.933594 101.929688 Z M 100.429688 107.691406 C 101.164062 108.53125 101.898438 109.261719 102.527344 110.101562 C 101.476562 109.578125 100.535156 109.054688 99.488281 108.632812 C 98.859375 107.691406 98.335938 106.75 97.707031 105.910156 C 98.648438 106.539062 99.488281 107.0625 100.429688 107.691406 Z M 107.03125 113.558594 C 107.761719 114.292969 108.390625 115.023438 109.019531 115.863281 C 108.078125 115.339844 107.03125 114.816406 106.085938 114.394531 C 105.457031 113.453125 104.933594 112.617188 104.304688 111.777344 C 105.25 112.300781 106.085938 112.929688 107.03125 113.558594 Z M 113.210938 118.796875 L 113.523438 119.003906 C 114.257812 119.738281 114.886719 120.472656 115.621094 121.308594 C 114.675781 120.785156 113.734375 120.367188 112.792969 119.949219 C 112.164062 119.109375 111.640625 118.273438 111.011719 117.433594 C 111.640625 117.75 112.371094 118.273438 113.210938 118.796875 Z M 120.125 124.558594 C 120.859375 125.292969 121.488281 126.023438 122.117188 126.757812 C 121.171875 126.234375 120.230469 125.816406 119.183594 125.394531 C 118.554688 124.558594 118.03125 123.71875 117.402344 122.882812 C 117.714844 123.089844 118.03125 123.195312 118.238281 123.40625 C 118.972656 123.71875 119.496094 124.140625 120.125 124.558594 Z M 126.515625 129.902344 C 130.183594 133.566406 133.324219 137.652344 135.839844 142.15625 C 139.503906 148.652344 142.019531 155.777344 143.484375 163.109375 C 146.734375 179.871094 144.742188 197.050781 142.332031 211.613281 C 140.238281 224.183594 137.410156 236.964844 134.792969 249.21875 C 130.808594 267.449219 126.726562 286.199219 124.734375 304.953125 C 124.316406 308.828125 124.105469 312.703125 123.894531 316.582031 C 121.800781 315.113281 119.8125 313.648438 117.820312 312.179688 C 117.925781 306.210938 118.238281 300.550781 118.761719 295.3125 C 120.542969 276.667969 124.628906 258.125 128.503906 240.105469 C 131.019531 228.582031 133.640625 216.640625 135.628906 204.804688 C 138.039062 190.660156 140.027344 174.003906 137.097656 157.558594 C 135.839844 150.433594 133.429688 143.519531 130.078125 137.023438 C 128.402344 133.882812 126.410156 130.84375 124.210938 128.121094 C 124.839844 128.75 125.675781 129.273438 126.515625 129.902344 Z M 111.324219 334.492188 C 112.582031 335.960938 113.734375 337.425781 115.097656 338.789062 C 115.515625 340.464844 115.933594 342.140625 116.355469 343.816406 C 115.203125 342.351562 114.050781 340.882812 112.898438 339.417969 C 112.371094 337.742188 111.847656 336.066406 111.324219 334.492188 Z M 107.03125 328.207031 C 106.402344 326.636719 105.878906 324.960938 105.355469 323.285156 C 106.507812 324.644531 107.660156 326.007812 108.914062 327.371094 C 109.335938 329.046875 109.753906 330.722656 110.171875 332.398438 C 109.230469 331.246094 108.289062 329.988281 107.34375 328.835938 Z M 72.039062 94.179688 C 71.9375 93.339844 71.726562 92.5 71.515625 91.664062 C 73.191406 92.082031 74.765625 92.605469 76.441406 93.128906 C 76.859375 94.597656 77.277344 96.0625 77.699219 97.636719 C 75.917969 97.214844 74.136719 96.796875 72.355469 96.484375 C 72.355469 95.75 72.25 94.910156 72.039062 94.179688 Z M 74.871094 88.3125 C 75.394531 89.671875 75.917969 91.140625 76.335938 92.5 C 74.765625 91.976562 73.089844 91.453125 71.515625 91.035156 C 71.203125 89.464844 70.785156 87.890625 70.363281 86.425781 C 71.9375 87.054688 73.402344 87.683594 74.871094 88.3125 Z M 70.261719 85.902344 C 69.839844 84.433594 69.421875 82.96875 68.898438 81.503906 C 70.261719 82.234375 71.515625 82.96875 72.878906 83.703125 C 73.507812 84.960938 74.03125 86.320312 74.660156 87.683594 C 73.191406 87.160156 71.726562 86.53125 70.261719 85.902344 Z M 300.9375 365.605469 L 302.300781 364.558594 C 302.929688 364.558594 303.558594 364.453125 304.289062 364.453125 L 303.035156 365.710938 Z M 94.5625 125.605469 C 94.460938 123.929688 94.25 122.253906 94.039062 120.578125 C 95.925781 120.683594 97.707031 120.785156 99.59375 120.996094 C 100.324219 124.347656 100.953125 127.699219 101.269531 131.054688 C 102.628906 144.777344 100.746094 158.710938 98.648438 170.546875 C 97.183594 178.71875 95.507812 186.992188 93.832031 194.957031 C 90.375 211.820312 86.707031 229.316406 85.765625 246.8125 C 85.03125 260.011719 85.972656 273.210938 88.800781 286.09375 C 87.335938 284.523438 85.972656 282.953125 84.613281 281.277344 C 80.734375 266.925781 79.164062 251.945312 79.792969 237.070312 C 80.632812 219.886719 84.191406 202.707031 87.546875 186.050781 C 89.011719 178.71875 90.582031 171.175781 91.839844 163.738281 C 93.726562 152.320312 95.613281 138.910156 94.5625 125.605469 Z M 87.441406 119.949219 C 87.335938 118.273438 87.125 116.492188 87.019531 114.816406 C 88.90625 114.921875 90.792969 115.023438 92.574219 115.234375 C 92.886719 116.804688 93.203125 118.378906 93.410156 119.949219 C 91.421875 119.949219 89.429688 119.949219 87.441406 119.949219 Z M 84.613281 104.445312 C 85.03125 105.910156 85.34375 107.480469 85.660156 109.054688 C 83.773438 108.84375 81.886719 108.632812 80.003906 108.425781 C 79.792969 106.75 79.6875 105.074219 79.375 103.398438 C 81.15625 103.710938 82.9375 104.023438 84.613281 104.445312 Z M 79.269531 102.976562 C 79.058594 101.617188 78.851562 100.253906 78.535156 98.890625 C 78.535156 98.683594 78.429688 98.472656 78.328125 98.160156 C 80.003906 98.578125 81.574219 98.996094 83.144531 99.414062 C 83.5625 100.777344 84.089844 102.246094 84.402344 103.710938 C 84.402344 103.710938 84.402344 103.710938 84.402344 103.816406 C 82.726562 103.605469 80.945312 103.292969 79.269531 102.976562 Z M 85.136719 104.550781 C 86.707031 104.863281 88.382812 105.28125 89.953125 105.703125 C 90.269531 106.644531 90.6875 107.691406 91.003906 108.632812 C 91.105469 109.054688 91.210938 109.472656 91.316406 109.890625 C 89.640625 109.578125 87.964844 109.367188 86.183594 109.160156 C 85.765625 107.585938 85.449219 106.015625 85.136719 104.550781 Z M 85.765625 109.472656 C 86.078125 111.042969 86.289062 112.71875 86.496094 114.394531 C 84.507812 114.292969 82.410156 114.1875 80.421875 114.1875 C 80.316406 112.40625 80.210938 110.625 80.105469 108.949219 C 81.886719 109.054688 83.773438 109.261719 85.765625 109.472656 Z M 86.183594 109.578125 C 87.964844 109.785156 89.640625 110.101562 91.421875 110.414062 C 91.839844 111.882812 92.257812 113.347656 92.574219 114.921875 C 90.6875 114.710938 88.90625 114.605469 87.019531 114.5 C 86.707031 112.71875 86.496094 111.148438 86.183594 109.578125 Z M 91.839844 110.414062 C 93.410156 110.730469 94.984375 111.042969 96.554688 111.464844 C 96.765625 112.089844 97.078125 112.71875 97.289062 113.347656 C 97.496094 113.976562 97.8125 114.816406 98.019531 115.546875 C 96.34375 115.234375 94.667969 115.023438 92.992188 114.816406 C 92.679688 113.347656 92.257812 111.882812 91.839844 110.414062 Z M 93.097656 115.339844 C 94.773438 115.546875 96.554688 115.757812 98.230469 116.074219 C 98.648438 117.539062 99.070312 119.003906 99.382812 120.472656 C 97.601562 120.261719 95.714844 120.15625 93.933594 120.15625 C 93.621094 118.480469 93.410156 116.910156 93.097656 115.339844 Z M 103.78125 118.167969 C 104.203125 119.109375 104.515625 120.054688 104.832031 121.101562 C 103.152344 120.785156 101.582031 120.683594 99.90625 120.472656 C 99.59375 119.003906 99.171875 117.539062 98.753906 116.175781 C 100.324219 116.492188 101.898438 116.804688 103.363281 117.121094 C 103.46875 117.539062 103.574219 117.851562 103.78125 118.167969 Z M 86.078125 246.707031 C 87.019531 229.316406 90.6875 211.820312 94.144531 194.957031 C 95.820312 186.992188 97.496094 178.71875 98.964844 170.546875 C 101.058594 158.710938 102.945312 144.777344 101.582031 130.949219 C 101.269531 127.597656 100.746094 124.242188 99.90625 120.996094 C 101.582031 121.207031 103.257812 121.414062 104.933594 121.625 C 106.507812 126.445312 107.554688 131.261719 108.183594 136.289062 C 109.859375 150.539062 107.972656 164.996094 105.878906 177.25 C 104.304688 186.15625 102.421875 195.164062 100.640625 203.859375 C 97.078125 220.9375 93.308594 238.640625 92.15625 256.34375 C 91.421875 268.078125 91.945312 279.808594 93.832031 291.332031 C 92.257812 289.761719 90.792969 288.191406 89.222656 286.515625 C 86.394531 273.523438 85.34375 260.117188 86.078125 246.707031 Z M 110.171875 122.988281 C 112.6875 128.957031 114.363281 135.242188 115.203125 141.632812 C 117.191406 156.40625 115.304688 171.386719 113.105469 184.164062 C 111.429688 193.804688 109.441406 203.546875 107.449219 212.871094 C 103.78125 230.257812 100.011719 248.171875 98.648438 266.085938 C 97.917969 276.25 98.125 286.515625 99.277344 296.675781 C 97.601562 295.105469 96.03125 293.535156 94.355469 291.960938 C 92.363281 280.230469 91.839844 268.285156 92.574219 256.449219 C 93.726562 238.746094 97.390625 221.144531 101.058594 203.964844 C 102.839844 195.269531 104.832031 186.261719 106.296875 177.355469 C 108.390625 165.097656 110.382812 150.539062 108.601562 136.1875 C 108.078125 131.261719 107.03125 126.339844 105.457031 121.625 C 107.03125 121.835938 108.496094 122.253906 109.964844 122.566406 C 110.066406 122.777344 110.171875 122.882812 110.171875 122.988281 Z M 94.039062 292.484375 C 94.355469 294.265625 94.667969 296.046875 95.085938 297.828125 C 93.621094 296.257812 92.257812 294.6875 90.898438 293.113281 C 90.476562 291.332031 89.953125 289.65625 89.640625 287.875 C 91.003906 289.34375 92.46875 290.914062 94.039062 292.484375 Z M 94.5625 293.007812 C 96.136719 294.582031 97.8125 296.152344 99.382812 297.617188 C 99.59375 299.398438 99.90625 301.285156 100.117188 303.066406 C 98.542969 301.496094 97.078125 299.921875 95.507812 298.351562 C 95.191406 296.570312 94.878906 294.789062 94.5625 293.007812 Z M 99.90625 298.144531 C 101.582031 299.714844 103.257812 301.179688 105.039062 302.753906 C 105.144531 304.53125 105.355469 306.417969 105.5625 308.304688 C 103.886719 306.835938 102.316406 305.265625 100.746094 303.695312 C 100.429688 301.808594 100.117188 300.027344 99.90625 298.144531 Z M 100.324219 303.90625 C 100.640625 305.683594 100.953125 307.464844 101.269531 309.246094 C 99.800781 307.78125 98.441406 306.210938 97.078125 304.636719 C 96.660156 302.855469 96.238281 301.074219 95.820312 299.296875 C 97.289062 300.867188 98.753906 302.332031 100.324219 303.90625 Z M 100.847656 304.429688 C 102.421875 306 103.992188 307.464844 105.5625 308.933594 C 105.773438 310.714844 105.984375 312.496094 106.296875 314.378906 C 104.832031 312.914062 103.257812 311.445312 101.898438 309.875 C 101.476562 307.988281 101.164062 306.210938 100.847656 304.429688 Z M 106.085938 309.351562 C 107.761719 310.921875 109.542969 312.390625 111.324219 313.855469 C 111.429688 315.636719 111.640625 317.523438 111.746094 319.410156 C 110.066406 317.941406 108.390625 316.371094 106.820312 314.800781 C 106.609375 313.019531 106.296875 311.132812 106.085938 309.351562 Z M 106.402344 315.113281 C 106.714844 316.894531 107.03125 318.675781 107.34375 320.457031 C 105.984375 318.988281 104.621094 317.523438 103.257812 316.054688 C 102.839844 314.277344 102.421875 312.496094 102 310.714844 C 103.46875 312.179688 104.933594 313.648438 106.402344 315.113281 Z M 106.925781 315.636719 C 108.496094 317.207031 110.171875 318.675781 111.847656 320.140625 C 112.058594 321.921875 112.269531 323.808594 112.582031 325.589844 C 111.011719 324.121094 109.441406 322.550781 107.972656 320.980469 C 107.554688 319.199219 107.238281 317.417969 106.925781 315.636719 Z M 112.371094 320.5625 C 114.050781 322.027344 115.828125 323.496094 117.609375 324.960938 C 117.714844 326.847656 117.820312 328.628906 118.03125 330.511719 C 116.355469 329.046875 114.675781 327.578125 113.105469 326.113281 C 112.792969 324.226562 112.582031 322.34375 112.371094 320.5625 Z M 112.6875 326.324219 C 113 328.105469 113.316406 329.988281 113.628906 331.769531 C 112.164062 330.304688 110.800781 328.730469 109.441406 327.160156 C 109.019531 325.378906 108.601562 323.597656 108.183594 321.816406 C 109.542969 323.390625 111.117188 324.855469 112.6875 326.324219 Z M 113.210938 326.847656 C 114.78125 328.3125 116.457031 329.78125 118.132812 331.246094 C 118.34375 333.132812 118.554688 335.019531 118.761719 336.902344 C 117.191406 335.4375 115.621094 333.96875 114.152344 332.398438 C 113.734375 330.511719 113.421875 328.628906 113.210938 326.847656 Z M 308.480469 360.894531 L 310.15625 360.578125 L 309.003906 361.835938 L 307.222656 362.046875 Z M 306.492188 362.148438 L 304.917969 362.359375 L 306.070312 361.417969 L 307.644531 361.101562 Z M 320.527344 354.921875 C 338.128906 349.578125 356.566406 348.21875 372.488281 351.046875 C 378.773438 352.199219 384.953125 354.1875 390.714844 357.015625 C 401.820312 362.464844 410.203125 370.425781 417.847656 377.96875 C 418.792969 378.910156 419.734375 379.855469 420.675781 380.796875 L 418.058594 378.597656 C 408.421875 370.53125 399.832031 364.140625 389.355469 359.53125 C 383.382812 357.015625 377.097656 355.132812 370.707031 354.082031 C 354.992188 351.359375 336.347656 352.300781 318.328125 356.597656 C 317.28125 356.808594 316.335938 357.121094 315.394531 357.332031 L 316.546875 356.074219 C 317.910156 355.761719 319.167969 355.339844 320.527344 354.921875 Z M 317.28125 355.550781 L 318.328125 354.398438 C 319.691406 353.875 321.15625 353.246094 322.519531 352.722656 C 339.59375 346.4375 358.449219 344.550781 374.269531 347.589844 C 380.554688 348.742188 386.734375 350.941406 392.390625 354.082031 C 402.972656 359.949219 410.515625 368.332031 418.058594 377.128906 C 418.792969 377.96875 419.628906 378.910156 420.257812 379.855469 C 419.628906 379.226562 418.894531 378.492188 418.269531 377.863281 C 410.621094 370.214844 402.136719 362.359375 391.03125 356.808594 C 385.164062 353.980469 378.984375 351.988281 372.59375 350.835938 C 356.667969 347.902344 338.128906 349.265625 320.421875 354.710938 C 319.269531 354.816406 318.222656 355.132812 317.28125 355.550781 Z M 421.304688 382.054688 C 420.257812 381.214844 419.105469 380.484375 418.058594 379.644531 C 409.363281 373.464844 399.726562 367.179688 387.886719 362.570312 C 381.8125 360.265625 375.527344 358.589844 369.136719 357.644531 C 349.230469 354.503906 329.539062 356.597656 316.546875 358.902344 L 313.824219 359.320312 L 314.976562 357.960938 C 316.128906 357.644531 317.386719 357.332031 318.539062 357.015625 C 336.453125 352.722656 354.992188 351.777344 370.707031 354.503906 C 377.097656 355.550781 383.277344 357.332031 389.144531 359.949219 C 399.621094 364.558594 408.210938 370.84375 417.742188 378.910156 C 418.894531 379.960938 420.152344 381.007812 421.304688 382.054688 Z M 314.765625 357.644531 L 313.300781 358.066406 L 314.453125 357.015625 L 315.8125 356.597656 Z M 314.242188 358.273438 L 313.195312 359.53125 L 311.625 359.84375 C 312.042969 359.425781 312.355469 359.007812 312.777344 358.691406 C 313.195312 358.484375 313.71875 358.378906 314.242188 358.273438 Z M 310.785156 359.949219 L 309.214844 360.265625 L 310.367188 359.320312 L 311.832031 358.902344 Z M 310.996094 360.371094 L 312.671875 360.054688 L 311.519531 361.417969 L 309.738281 361.625 Z M 313.40625 359.949219 L 316.652344 359.320312 C 329.640625 357.015625 349.128906 354.921875 369.03125 358.066406 C 375.421875 359.007812 381.601562 360.683594 387.679688 362.988281 C 399.515625 367.492188 409.152344 373.882812 417.742188 379.960938 C 419.105469 380.902344 420.46875 381.949219 421.828125 382.890625 C 420.574219 382.054688 419.210938 381.320312 417.953125 380.484375 C 409.886719 375.664062 398.992188 369.589844 386.316406 365.398438 C 380.136719 363.40625 373.851562 361.941406 367.460938 360.996094 C 351.746094 358.691406 333.9375 358.691406 314.765625 360.996094 L 312.355469 361.3125 C 312.566406 360.894531 312.984375 360.371094 313.40625 359.949219 Z M 324.507812 350.523438 C 341.0625 343.292969 360.335938 340.882812 376.050781 344.027344 C 382.335938 345.285156 388.410156 347.589844 393.964844 351.046875 C 404.019531 357.332031 410.933594 366.027344 418.164062 376.082031 C 418.792969 376.921875 419.316406 377.65625 419.839844 378.492188 C 419.316406 377.863281 418.894531 377.339844 418.371094 376.710938 C 410.828125 367.910156 403.183594 359.53125 392.601562 353.664062 C 386.945312 350.523438 380.765625 348.320312 374.375 347.066406 C 358.449219 344.027344 339.59375 345.914062 322.414062 352.199219 C 321.261719 352.617188 320.214844 353.035156 319.167969 353.457031 L 320.109375 352.511719 C 321.367188 351.882812 322.832031 351.152344 324.507812 350.523438 Z M 320.84375 351.675781 L 321.574219 350.941406 C 323.148438 350 324.71875 349.160156 326.394531 348.320312 C 342.632812 340.046875 361.804688 337.113281 377.726562 340.570312 C 384.117188 341.933594 390.085938 344.445312 395.429688 348.113281 C 405.171875 354.816406 411.457031 364.246094 418.164062 375.140625 C 418.582031 375.769531 419 376.5 419.421875 377.128906 C 419.105469 376.710938 418.792969 376.292969 418.476562 375.875 C 411.144531 365.921875 404.335938 357.121094 394.171875 350.730469 C 388.621094 347.378906 382.441406 344.96875 376.050781 343.710938 C 360.230469 340.464844 340.851562 342.875 324.300781 350.207031 C 323.042969 350.625 321.890625 351.152344 320.84375 351.675781 Z M 318.015625 353.980469 L 317.070312 354.398438 L 317.910156 353.664062 L 318.746094 353.246094 Z M 317.28125 354.816406 L 316.335938 355.863281 L 315.082031 356.285156 L 316.023438 355.339844 Z M 314.136719 356.492188 C 313.824219 356.597656 313.40625 356.703125 313.089844 356.910156 L 313.929688 356.179688 L 314.871094 355.757812 Z M 313.40625 357.332031 L 312.460938 358.273438 L 311.101562 358.691406 L 312.148438 357.855469 C 312.460938 357.644531 312.878906 357.4375 313.40625 357.332031 Z M 310.050781 358.902344 L 309.003906 359.21875 L 309.949219 358.589844 L 310.890625 358.167969 Z M 309.320312 359.636719 C 309.003906 359.949219 308.691406 360.265625 308.269531 360.578125 L 306.910156 360.894531 L 307.957031 360.054688 Z M 305.863281 360.996094 L 304.710938 361.207031 L 305.652344 360.683594 L 306.804688 360.371094 Z M 305.023438 361.625 L 303.976562 362.464844 L 302.507812 362.675781 L 303.558594 361.941406 Z M 303.242188 363.09375 L 302.089844 364.035156 L 300.414062 364.140625 L 301.671875 363.300781 Z M 301.460938 362.882812 L 300.308594 363.09375 L 301.253906 362.570312 L 302.40625 362.253906 C 301.984375 362.464844 301.671875 362.675781 301.460938 362.882812 Z M 300.519531 363.511719 L 299.472656 364.246094 L 297.898438 364.351562 L 299.050781 363.722656 Z M 298.738281 364.769531 L 297.480469 365.605469 L 295.699219 365.605469 L 296.957031 364.875 Z M 296.851562 364.453125 L 295.59375 364.558594 L 296.539062 364.140625 L 297.796875 363.929688 Z M 295.910156 364.980469 L 294.652344 365.605469 L 293.082031 365.605469 L 294.234375 365.082031 Z M 289.9375 367.179688 L 291.929688 367.285156 L 290.566406 368.121094 L 288.472656 367.910156 Z M 287.632812 367.808594 L 285.644531 367.597656 L 287.003906 367.074219 L 288.890625 367.179688 Z M 290.777344 366.757812 L 292.136719 366.132812 L 294.023438 366.132812 L 292.765625 366.863281 Z M 292.035156 365.710938 L 290.671875 365.710938 L 291.71875 365.292969 L 293.082031 365.1875 Z M 290.984375 366.234375 L 289.832031 366.757812 L 288.15625 366.65625 L 289.414062 366.234375 Z M 287.003906 366.65625 L 285.644531 366.550781 L 286.691406 366.234375 L 288.054688 366.234375 Z M 285.957031 366.96875 L 284.699219 367.386719 L 282.917969 367.179688 L 284.175781 366.863281 Z M 283.757812 367.808594 C 280.71875 368.960938 277.785156 370.113281 274.851562 371.265625 C 268.988281 373.464844 263.433594 375.664062 257.777344 377.65625 C 238.710938 384.464844 217.863281 390.332031 194.714844 388.234375 C 172.921875 386.246094 149.980469 375.558594 131.4375 359.425781 C 131.230469 357.539062 131.019531 355.65625 130.808594 353.664062 C 148.410156 367.808594 169.046875 377.445312 189.371094 380.378906 C 212.730469 383.835938 234.207031 379.855469 253.796875 375.035156 C 260.816406 373.359375 267.625 371.367188 274.851562 369.378906 L 281.664062 367.492188 Z M 281.765625 367.074219 L 280.300781 366.863281 L 281.347656 366.65625 L 282.816406 366.757812 Z M 280.613281 367.386719 L 274.851562 368.960938 C 267.625 370.949219 260.816406 372.835938 253.796875 374.617188 C 234.101562 379.433594 212.730469 383.417969 189.476562 379.960938 C 169.152344 376.921875 148.304688 367.285156 130.808594 353.035156 C 130.707031 351.152344 130.496094 349.160156 130.390625 347.273438 C 146.734375 359.53125 165.378906 368.332031 184.132812 372.207031 C 208.015625 377.027344 230.75 374.824219 249.816406 372.207031 C 258.617188 370.949219 267.3125 369.378906 276.53125 367.703125 L 278.730469 367.285156 Z M 124.839844 342.769531 C 126.515625 344.132812 128.191406 345.492188 129.972656 346.855469 C 130.078125 348.742188 130.183594 350.730469 130.285156 352.617188 C 128.609375 351.253906 127.039062 349.894531 125.46875 348.53125 C 125.257812 346.644531 125.046875 344.761719 124.839844 342.769531 Z M 124.945312 348.007812 C 123.371094 346.542969 121.800781 345.074219 120.230469 343.609375 C 119.914062 341.722656 119.601562 339.941406 119.285156 338.054688 C 120.964844 339.523438 122.535156 340.988281 124.210938 342.351562 C 124.523438 344.238281 124.734375 346.121094 124.945312 348.007812 Z M 276.425781 367.179688 C 267.207031 368.855469 258.617188 370.425781 249.710938 371.683594 C 230.644531 374.40625 208.015625 376.5 184.132812 371.683594 C 165.378906 367.808594 146.628906 359.007812 130.285156 346.644531 C 130.183594 344.65625 130.183594 342.769531 130.183594 340.78125 C 144.847656 351.359375 161.296875 359.21875 178.789062 363.929688 C 203.199219 370.214844 226.351562 370.113281 245.730469 369.167969 C 255.683594 368.644531 265.53125 367.808594 275.691406 366.863281 L 277.15625 367.074219 Z M 129.972656 346.332031 C 128.191406 344.96875 126.515625 343.609375 124.839844 342.246094 C 124.628906 340.359375 124.523438 338.371094 124.421875 336.378906 C 126.199219 337.742188 127.980469 339.101562 129.867188 340.464844 C 129.761719 342.351562 129.867188 344.339844 129.972656 346.332031 Z M 124.210938 341.722656 C 122.535156 340.253906 120.859375 338.789062 119.183594 337.324219 C 118.972656 335.4375 118.660156 333.550781 118.449219 331.5625 C 120.230469 333.027344 121.90625 334.492188 123.6875 335.855469 C 123.894531 337.949219 124.105469 339.835938 124.210938 341.722656 Z M 118.867188 337.53125 C 119.078125 339.3125 119.390625 341.199219 119.707031 342.980469 C 118.238281 341.511719 116.878906 340.046875 115.515625 338.476562 C 115.097656 336.695312 114.675781 334.914062 114.363281 333.132812 C 115.828125 334.703125 117.296875 336.171875 118.867188 337.53125 Z M 124.945312 348.742188 C 125.152344 350.625 125.46875 352.40625 125.78125 354.292969 C 124.316406 352.828125 122.847656 351.359375 121.488281 349.894531 C 121.066406 348.113281 120.648438 346.226562 120.335938 344.445312 C 121.90625 345.808594 123.476562 347.273438 124.945312 348.742188 Z M 125.46875 349.160156 C 127.039062 350.523438 128.609375 351.882812 130.285156 353.246094 C 130.390625 355.132812 130.601562 357.015625 130.808594 358.902344 C 129.238281 357.539062 127.773438 356.179688 126.304688 354.816406 C 126.097656 352.929688 125.78125 351.046875 125.46875 349.160156 Z M 130.914062 359.636719 C 131.125 361.519531 131.4375 363.40625 131.753906 365.292969 C 130.390625 363.929688 129.03125 362.570312 127.667969 361.207031 C 127.25 359.425781 126.933594 357.539062 126.515625 355.65625 C 127.980469 357.015625 129.449219 358.273438 130.914062 359.636719 Z M 131.4375 360.054688 C 136.992188 364.875 142.859375 369.167969 149.039062 372.941406 C 163.808594 381.84375 179.523438 387.292969 194.714844 388.652344 C 217.96875 390.75 238.816406 384.777344 257.988281 378.074219 C 263.644531 376.082031 269.40625 373.882812 275.0625 371.683594 C 278.308594 370.425781 281.558594 369.167969 284.804688 368.015625 L 286.902344 368.226562 C 283.234375 370.007812 279.566406 371.894531 276.003906 373.671875 C 271.394531 375.976562 266.578125 378.386719 261.863281 380.691406 C 243.425781 389.386719 223.207031 397.347656 200.054688 396.511719 C 176.484375 395.671875 151.65625 384.148438 132.382812 365.816406 C 131.960938 363.929688 131.753906 362.046875 131.4375 360.054688 Z M 199.949219 396.929688 C 223.207031 397.769531 243.53125 389.804688 261.96875 381.007812 C 266.683594 378.804688 271.5 376.292969 276.109375 373.988281 C 279.882812 372.101562 283.757812 370.113281 287.632812 368.226562 L 289.832031 368.433594 C 285.75 370.949219 281.664062 373.464844 277.683594 375.976562 C 273.699219 378.492188 269.71875 381.007812 265.632812 383.519531 C 247.929688 394.207031 228.234375 404.160156 205.085938 404.683594 L 203.722656 404.683594 C 179.207031 404.683594 152.703125 392.109375 133.324219 371.996094 C 132.90625 370.214844 132.589844 368.332031 132.277344 366.445312 C 151.65625 384.671875 176.484375 396.09375 199.949219 396.929688 Z M 159.09375 392.632812 C 174.179688 401.121094 190.105469 405.519531 205.1875 405.207031 C 228.445312 404.785156 248.140625 394.730469 265.949219 384.042969 C 269.929688 381.636719 274.015625 379.015625 277.996094 376.5 C 282.1875 373.882812 286.375 371.265625 290.566406 368.644531 L 292.871094 368.855469 C 288.578125 372.101562 284.28125 375.347656 280.089844 378.597656 C 276.738281 381.214844 273.175781 383.941406 269.71875 386.558594 C 252.855469 399.234375 233.996094 411.175781 210.53125 412.957031 C 184.027344 414.949219 154.90625 401.226562 135 378.28125 C 134.582031 376.5 134.058594 374.722656 133.742188 372.941406 C 141.179688 380.691406 149.773438 387.292969 159.09375 392.632812 Z M 291.300781 368.226562 L 292.765625 367.386719 L 294.863281 367.492188 L 293.5 368.539062 Z M 293.394531 366.96875 L 294.757812 366.132812 L 296.746094 366.132812 L 295.386719 367.074219 Z M 297.585938 366.027344 L 299.578125 366.027344 L 298.214844 367.179688 L 296.121094 367.074219 Z M 298.214844 365.605469 L 299.578125 364.664062 L 301.460938 364.558594 L 300.203125 365.605469 Z M 302.824219 363.929688 L 304.082031 362.882812 L 305.863281 362.671875 L 304.710938 363.828125 Z M 306.699219 362.570312 L 308.585938 362.359375 L 307.328125 363.722656 L 305.441406 363.828125 Z M 309.214844 362.253906 L 311.101562 362.046875 C 310.679688 362.570312 310.261719 362.988281 309.949219 363.511719 L 307.957031 363.617188 Z M 311.726562 361.835938 L 314.558594 361.417969 C 333.726562 359.113281 351.433594 359.113281 367.144531 361.417969 C 373.535156 362.359375 379.820312 363.828125 386.003906 365.816406 C 398.679688 370.007812 409.574219 375.976562 417.535156 380.796875 C 419 381.636719 420.46875 382.578125 421.828125 383.417969 L 421.828125 383.519531 C 420.46875 382.789062 419.105469 382.054688 417.640625 381.425781 C 407.058594 375.976562 395.953125 371.683594 384.535156 368.4375 C 378.25 366.757812 371.859375 365.398438 365.46875 364.558594 C 350.070312 362.464844 332.261719 361.941406 312.566406 363.199219 L 310.472656 363.300781 Z M 418.476562 374.824219 C 411.773438 363.929688 405.488281 354.398438 395.640625 347.695312 C 390.191406 344.027344 384.117188 341.40625 377.726562 340.152344 C 361.804688 336.695312 342.421875 339.628906 326.183594 347.902344 C 325.03125 348.425781 323.984375 349.054688 322.832031 349.683594 L 323.25 349.371094 C 324.929688 348.21875 326.605469 347.167969 328.386719 346.121094 C 344.097656 336.902344 363.6875 333.445312 379.507812 337.113281 C 385.898438 338.476562 391.867188 341.199219 397 345.179688 C 407.164062 352.929688 413.34375 364.664062 418.269531 374.199219 L 419 375.664062 C 418.792969 375.246094 418.582031 375.035156 418.476562 374.824219 Z M 320.109375 351.777344 L 319.691406 352.199219 L 319.167969 352.40625 L 319.691406 351.988281 Z M 316.335938 354.398438 L 315.917969 354.816406 L 315.394531 355.027344 L 315.917969 354.609375 Z M 312.355469 356.808594 L 311.832031 357.226562 L 311.203125 357.4375 L 311.726562 357.015625 Z M 308.269531 359.113281 L 307.746094 359.53125 C 307.539062 359.636719 307.328125 359.636719 307.117188 359.742188 C 307.328125 359.636719 307.433594 359.53125 307.644531 359.425781 Z M 303.976562 361.207031 L 303.453125 361.519531 L 302.71875 361.730469 L 303.242188 361.417969 Z M 299.578125 362.988281 L 298.949219 363.300781 L 298.214844 363.40625 L 298.84375 363.09375 Z M 294.863281 364.453125 L 294.234375 364.769531 L 293.394531 364.875 L 294.023438 364.664062 Z M 289.9375 365.503906 L 289.308594 365.710938 L 288.367188 365.710938 L 288.996094 365.503906 Z M 284.804688 366.339844 L 284.175781 366.550781 L 283.339844 366.550781 L 283.96875 366.445312 Z M 279.359375 366.65625 L 278.835938 366.757812 L 277.996094 366.65625 Z M 273.699219 366.550781 C 264.273438 367.386719 255.054688 368.226562 245.835938 368.644531 C 226.453125 369.585938 203.40625 369.691406 179 363.40625 C 161.503906 358.691406 144.953125 350.730469 130.183594 340.152344 C 130.183594 338.265625 130.183594 336.378906 130.183594 334.390625 C 143.484375 343.503906 158.046875 350.625 173.445312 355.550781 C 193.246094 361.730469 214.199219 364.980469 241.644531 366.132812 C 251.910156 366.550781 262.175781 366.550781 272.652344 366.445312 Z M 129.761719 339.835938 C 127.878906 338.476562 126.097656 337.113281 124.316406 335.75 C 124.210938 333.867188 124.105469 331.980469 124.105469 330.09375 C 125.992188 331.457031 127.878906 332.816406 129.867188 334.179688 C 129.761719 336.066406 129.761719 337.949219 129.761719 339.835938 Z M 123.792969 335.332031 C 122.011719 333.96875 120.230469 332.503906 118.449219 330.933594 C 118.238281 329.046875 118.132812 327.160156 118.03125 325.273438 C 119.8125 326.742188 121.695312 328.207031 123.582031 329.570312 C 123.6875 331.5625 123.6875 333.445312 123.792969 335.332031 Z M 118.03125 324.75 C 117.925781 322.867188 117.820312 320.980469 117.820312 319.199219 C 119.707031 320.664062 121.695312 322.132812 123.6875 323.496094 C 123.6875 325.378906 123.6875 327.265625 123.6875 329.152344 C 121.695312 327.683594 119.8125 326.21875 118.03125 324.75 Z M 117.507812 324.332031 C 115.726562 322.867188 113.945312 321.398438 112.269531 319.828125 C 112.058594 317.941406 111.953125 316.160156 111.746094 314.277344 C 113.523438 315.742188 115.410156 317.3125 117.191406 318.675781 C 117.296875 320.5625 117.402344 322.445312 117.507812 324.332031 Z M 111.746094 313.75 C 111.640625 311.867188 111.535156 309.980469 111.429688 308.09375 C 113.316406 309.667969 115.304688 311.132812 117.191406 312.597656 C 117.191406 314.484375 117.191406 316.265625 117.191406 318.257812 C 115.410156 316.683594 113.523438 315.21875 111.746094 313.75 Z M 111.21875 313.332031 C 109.441406 311.867188 107.660156 310.292969 105.984375 308.722656 C 105.773438 306.835938 105.5625 305.058594 105.457031 303.171875 C 107.238281 304.742188 109.125 306.210938 110.90625 307.78125 C 111.011719 309.5625 111.117188 311.445312 111.21875 313.332031 Z M 105.457031 302.332031 C 104.832031 293.535156 104.933594 284.734375 105.667969 275.933594 C 107.136719 257.8125 111.011719 239.6875 114.78125 222.089844 C 116.980469 211.925781 119.183594 201.554688 120.964844 191.183594 C 123.164062 177.984375 125.152344 162.375 122.847656 146.976562 C 121.90625 140.273438 119.914062 133.777344 117.085938 127.597656 C 116.5625 126.445312 115.933594 125.292969 115.410156 124.242188 C 116.667969 124.664062 117.820312 125.1875 119.078125 125.710938 C 120.542969 127.910156 122.011719 130.214844 123.164062 132.625 C 126.199219 138.910156 128.402344 145.507812 129.554688 152.421875 C 132.171875 168.242188 130.183594 184.269531 127.878906 197.992188 C 125.992188 209.097656 123.582031 220.308594 121.277344 231.097656 C 117.402344 248.90625 113.523438 267.238281 111.847656 285.675781 C 111.21875 292.800781 111.011719 299.921875 111.21875 307.046875 C 109.125 305.476562 107.34375 303.90625 105.457031 302.332031 Z M 116.5625 127.804688 C 119.390625 133.882812 121.277344 140.375 122.21875 147.082031 C 124.523438 162.375 122.535156 177.878906 120.335938 191.078125 C 118.554688 201.449219 116.355469 211.925781 114.152344 221.984375 C 110.382812 239.582031 106.507812 257.707031 105.039062 275.933594 C 104.304688 284.628906 104.304688 293.324219 104.832031 301.914062 C 103.050781 300.34375 101.375 298.875 99.695312 297.199219 C 98.441406 286.933594 98.230469 276.457031 98.964844 266.191406 C 100.222656 248.277344 104.097656 230.363281 107.761719 213.078125 C 109.753906 203.652344 111.847656 193.90625 113.421875 184.269531 C 115.621094 171.488281 117.507812 156.40625 115.515625 141.632812 C 114.675781 135.136719 112.898438 128.851562 110.382812 122.882812 C 111.746094 123.195312 113.105469 123.613281 114.46875 124.140625 C 115.304688 125.1875 116.039062 126.445312 116.5625 127.804688 Z M 110.277344 122.253906 C 109.753906 120.996094 109.230469 119.84375 108.601562 118.796875 C 109.859375 119.214844 111.117188 119.738281 112.371094 120.261719 C 113 121.308594 113.734375 122.359375 114.257812 123.40625 C 113 122.988281 111.640625 122.566406 110.277344 122.253906 Z M 109.753906 122.148438 C 108.289062 121.835938 106.820312 121.519531 105.25 121.207031 C 104.933594 120.15625 104.515625 119.109375 104.097656 118.0625 C 103.992188 117.851562 103.886719 117.539062 103.78125 117.328125 C 105.144531 117.644531 106.609375 118.167969 107.972656 118.585938 C 108.601562 119.738281 109.230469 120.890625 109.753906 122.148438 Z M 103.574219 116.804688 C 103.050781 115.546875 102.527344 114.394531 101.898438 113.242188 C 103.152344 113.664062 104.410156 114.1875 105.667969 114.710938 C 106.402344 115.757812 107.03125 116.804688 107.660156 117.957031 C 106.402344 117.539062 105.039062 117.121094 103.574219 116.804688 Z M 103.050781 116.597656 C 101.582031 116.28125 100.011719 115.863281 98.542969 115.652344 C 98.335938 114.816406 98.019531 114.082031 97.707031 113.242188 C 97.496094 112.71875 97.289062 112.195312 97.078125 111.566406 C 98.542969 111.988281 99.90625 112.40625 101.375 112.824219 C 102 114.1875 102.527344 115.339844 103.050781 116.597656 Z M 96.972656 111.148438 C 96.449219 109.890625 95.925781 108.632812 95.402344 107.480469 C 96.660156 108.007812 98.019531 108.53125 99.277344 109.054688 C 99.90625 110.101562 100.535156 111.253906 101.164062 112.40625 C 99.695312 111.882812 98.335938 111.464844 96.972656 111.148438 Z M 96.34375 110.9375 C 94.773438 110.519531 93.203125 110.207031 91.734375 109.890625 C 91.628906 109.367188 91.527344 108.949219 91.316406 108.425781 C 91.003906 107.480469 90.6875 106.644531 90.375 105.703125 C 91.839844 106.121094 93.308594 106.539062 94.667969 107.0625 C 95.296875 108.425781 95.925781 109.683594 96.34375 110.9375 Z M 90.269531 105.28125 C 89.746094 103.921875 89.222656 102.664062 88.699219 101.40625 C 89.953125 101.929688 91.316406 102.453125 92.574219 103.082031 C 93.203125 104.234375 93.832031 105.386719 94.460938 106.539062 C 93.097656 106.121094 91.628906 105.703125 90.269531 105.28125 Z M 89.640625 105.175781 C 88.070312 104.757812 86.496094 104.339844 84.925781 104.023438 C 84.925781 103.921875 84.820312 103.816406 84.820312 103.710938 C 84.507812 102.347656 84.089844 100.988281 83.5625 99.730469 C 85.03125 100.148438 86.496094 100.671875 87.964844 101.195312 C 88.699219 102.453125 89.222656 103.816406 89.640625 105.175781 Z M 83.5625 99.207031 C 83.144531 97.84375 82.621094 96.484375 82.097656 95.226562 C 83.460938 95.75 84.714844 96.378906 86.078125 97.007812 C 86.707031 98.160156 87.335938 99.414062 87.964844 100.671875 C 86.394531 100.148438 85.03125 99.625 83.5625 99.207031 Z M 83.039062 99.101562 C 81.46875 98.683594 79.898438 98.261719 78.222656 97.84375 C 77.90625 96.378906 77.488281 94.804688 76.964844 93.339844 C 78.429688 93.863281 79.898438 94.386719 81.363281 95.015625 C 81.992188 96.273438 82.515625 97.636719 83.039062 99.101562 Z M 76.859375 92.816406 C 76.441406 91.453125 75.917969 89.988281 75.394531 88.625 C 76.753906 89.253906 78.117188 89.882812 79.375 90.617188 C 80.003906 91.875 80.632812 93.027344 81.15625 94.386719 C 79.792969 93.757812 78.328125 93.234375 76.859375 92.816406 Z M 77.800781 98.160156 L 78.011719 99.101562 C 78.328125 100.359375 78.535156 101.617188 78.746094 102.976562 C 76.859375 102.664062 74.871094 102.453125 72.984375 102.246094 C 72.878906 100.464844 72.667969 98.789062 72.460938 97.109375 C 74.34375 97.320312 76.125 97.738281 77.800781 98.160156 Z M 78.851562 103.398438 C 79.058594 105.074219 79.269531 106.75 79.480469 108.425781 C 77.382812 108.214844 75.394531 108.109375 73.296875 108.007812 C 73.296875 106.226562 73.191406 104.445312 73.089844 102.558594 C 74.972656 102.871094 76.964844 103.082031 78.851562 103.398438 Z M 79.582031 108.84375 C 79.792969 110.625 79.898438 112.300781 79.898438 114.082031 C 77.699219 114.082031 75.496094 114.082031 73.296875 114.082031 C 73.296875 112.511719 73.402344 111.042969 73.402344 109.472656 C 73.402344 109.160156 73.402344 108.84375 73.402344 108.425781 C 75.394531 108.632812 77.488281 108.738281 79.582031 108.84375 Z M 79.898438 114.605469 C 79.898438 114.710938 79.898438 114.816406 79.898438 114.816406 C 80.003906 116.597656 80.003906 118.273438 79.898438 120.054688 C 77.59375 120.15625 75.183594 120.261719 72.773438 120.367188 C 72.984375 118.378906 73.089844 116.492188 73.089844 114.5 C 75.496094 114.605469 77.699219 114.605469 79.898438 114.605469 Z M 80.421875 114.816406 C 80.421875 114.710938 80.421875 114.605469 80.421875 114.605469 C 82.515625 114.605469 84.507812 114.710938 86.496094 114.816406 C 86.707031 116.492188 86.8125 118.167969 86.917969 119.949219 C 84.714844 119.949219 82.515625 120.054688 80.421875 120.15625 C 80.421875 118.378906 80.421875 116.597656 80.421875 114.816406 Z M 87.019531 120.367188 C 87.753906 133.042969 85.867188 145.824219 83.984375 156.613281 C 82.832031 163.320312 81.46875 170.128906 80.105469 176.621094 C 76.753906 193.070312 73.296875 210.144531 72.667969 227.117188 C 72.039062 243.144531 74.136719 259.066406 78.953125 274.363281 C 77.699219 272.792969 76.546875 271.21875 75.394531 269.542969 C 69.109375 252.886719 66.175781 235.183594 66.699219 217.375 C 67.117188 200.613281 70.574219 183.851562 73.820312 167.507812 C 74.972656 161.640625 76.230469 155.671875 77.277344 149.699219 C 79.164062 140.0625 80.210938 130.214844 80.632812 120.367188 C 82.621094 120.472656 84.820312 120.472656 87.019531 120.367188 Z M 73.089844 227.222656 C 73.71875 210.25 77.175781 193.28125 80.527344 176.832031 C 81.886719 170.234375 83.25 163.421875 84.402344 156.71875 C 86.289062 145.929688 88.171875 133.042969 87.441406 120.367188 C 89.429688 120.367188 91.421875 120.367188 93.515625 120.472656 C 93.726562 122.148438 93.933594 123.824219 94.039062 125.5 C 95.085938 138.804688 93.203125 152.109375 91.210938 163.421875 C 89.953125 170.859375 88.382812 178.402344 86.8125 185.738281 C 83.355469 202.394531 79.898438 219.679688 79.058594 236.859375 C 78.328125 251.523438 79.898438 266.085938 83.5625 280.230469 C 82.203125 278.65625 80.945312 277.085938 79.6875 275.515625 C 74.765625 260.011719 72.460938 243.667969 73.089844 227.222656 Z M 81.785156 278.972656 C 82.515625 279.914062 83.355469 280.753906 84.089844 281.695312 C 84.507812 283.371094 85.03125 284.941406 85.554688 286.621094 C 84.402344 285.152344 83.25 283.582031 82.097656 282.113281 C 81.46875 280.542969 80.945312 278.867188 80.421875 277.296875 C 80.839844 277.820312 81.257812 278.449219 81.785156 278.972656 Z M 84.714844 282.535156 C 86.078125 284.105469 87.441406 285.675781 88.800781 287.144531 C 89.222656 288.820312 89.640625 290.601562 90.058594 292.277344 C 89.011719 291.019531 87.964844 289.867188 87.019531 288.609375 C 86.8125 288.296875 86.496094 287.980469 86.289062 287.667969 C 85.765625 285.886719 85.242188 284.210938 84.714844 282.535156 Z M 86.707031 288.820312 C 87.964844 290.285156 89.117188 291.753906 90.375 293.21875 C 90.792969 294.894531 91.316406 296.464844 91.734375 298.144531 C 90.582031 296.675781 89.429688 295.105469 88.277344 293.636719 C 87.753906 292.066406 87.230469 290.496094 86.707031 288.820312 Z M 91.105469 294.058594 C 92.46875 295.628906 93.832031 297.09375 95.191406 298.667969 C 95.613281 300.449219 95.925781 302.125 96.449219 303.800781 C 95.191406 302.226562 93.832031 300.761719 92.574219 299.191406 C 92.050781 297.515625 91.527344 295.734375 91.105469 294.058594 Z M 96.660156 304.742188 C 97.078125 306.417969 97.601562 307.988281 98.019531 309.667969 L 97.183594 308.617188 C 96.34375 307.464844 95.402344 306.3125 94.5625 305.160156 C 93.933594 303.589844 93.410156 301.914062 92.886719 300.34375 C 94.144531 301.808594 95.402344 303.277344 96.660156 304.742188 Z M 97.390625 305.582031 C 98.753906 307.152344 100.117188 308.617188 101.476562 310.085938 C 101.792969 311.867188 102.210938 313.542969 102.628906 315.324219 C 101.375 313.855469 100.011719 312.285156 98.753906 310.714844 C 98.335938 309.039062 97.707031 307.257812 97.390625 305.582031 Z M 102.945312 316.265625 C 103.363281 317.941406 103.78125 319.617188 104.304688 321.292969 C 103.679688 320.457031 103.050781 319.617188 102.421875 318.78125 L 100.953125 316.789062 C 100.324219 315.21875 99.800781 313.542969 99.277344 311.867188 C 100.429688 313.332031 101.582031 314.800781 102.945312 316.265625 Z M 103.574219 317 C 104.832031 318.464844 106.191406 319.828125 107.554688 321.292969 C 107.867188 323.074219 108.289062 324.75 108.707031 326.53125 C 107.449219 325.066406 106.191406 323.597656 105.039062 322.238281 C 104.515625 320.457031 103.992188 318.675781 103.574219 317 Z M 109.648438 328.207031 C 111.011719 329.675781 112.371094 331.140625 113.839844 332.609375 C 114.152344 334.390625 114.574219 336.066406 114.992188 337.847656 C 113.628906 336.378906 112.371094 334.914062 111.117188 333.339844 C 110.488281 331.664062 109.964844 329.882812 109.648438 328.207031 Z M 115.726562 339.523438 C 117.085938 340.988281 118.449219 342.457031 119.914062 343.816406 C 120.230469 345.597656 120.542969 347.378906 120.964844 349.160156 C 119.601562 347.695312 118.34375 346.226562 117.085938 344.761719 C 116.5625 342.980469 116.039062 341.199219 115.726562 339.523438 Z M 121.171875 350.101562 C 121.589844 351.777344 122.011719 353.558594 122.429688 355.234375 C 121.277344 353.769531 120.125 352.304688 118.972656 350.835938 C 118.449219 349.160156 117.925781 347.484375 117.402344 345.808594 C 118.554688 347.273438 119.8125 348.636719 121.171875 350.101562 Z M 121.800781 350.730469 C 123.164062 352.199219 124.628906 353.664062 125.992188 355.027344 C 126.304688 356.910156 126.621094 358.691406 127.039062 360.472656 C 125.675781 359.007812 124.316406 357.539062 123.058594 355.96875 C 122.640625 354.292969 122.21875 352.511719 121.800781 350.730469 Z M 127.25 361.417969 C 127.667969 363.199219 128.085938 364.875 128.503906 366.65625 C 127.25 365.1875 126.097656 363.722656 124.945312 362.253906 C 124.421875 360.578125 123.894531 358.902344 123.371094 357.226562 C 124.628906 358.589844 125.886719 360.054688 127.25 361.417969 Z M 127.878906 362.046875 C 129.238281 363.40625 130.496094 364.769531 131.859375 366.027344 C 132.171875 367.910156 132.488281 369.691406 132.90625 371.472656 C 131.648438 370.113281 130.390625 368.75 129.238281 367.386719 C 128.714844 365.605469 128.296875 363.828125 127.878906 362.046875 Z M 133.113281 372.3125 C 133.535156 374.09375 133.953125 375.875 134.371094 377.550781 C 133.21875 376.1875 132.171875 374.824219 131.125 373.464844 C 130.601562 371.789062 130.078125 370.113281 129.554688 368.332031 C 130.601562 369.691406 131.859375 371.054688 133.113281 372.3125 Z M 134.582031 378.597656 C 135 380.273438 135.523438 381.84375 135.945312 383.417969 C 135 382.160156 134.058594 380.796875 133.113281 379.433594 C 132.488281 377.863281 131.960938 376.292969 131.4375 374.722656 C 132.382812 376.082031 133.429688 377.339844 134.582031 378.597656 Z M 135.210938 379.332031 C 155.113281 401.957031 184.132812 415.367188 210.53125 413.480469 C 234.101562 411.699219 253.0625 399.652344 270.140625 386.976562 C 273.597656 384.359375 277.15625 381.636719 280.511719 379.015625 C 284.804688 375.664062 289.207031 372.3125 293.605469 368.960938 L 295.910156 369.167969 C 291.511719 373.046875 287.109375 377.128906 282.917969 381.113281 C 279.882812 383.941406 276.84375 386.875 273.699219 389.597656 C 258.300781 403.53125 239.339844 418.195312 215.664062 421.234375 C 188.007812 424.796875 156.265625 409.816406 136.675781 384.359375 C 136.152344 382.789062 135.628906 381.007812 135.210938 379.332031 Z M 294.234375 368.539062 C 294.757812 368.226562 295.175781 367.808594 295.699219 367.492188 L 297.898438 367.597656 L 296.539062 368.75 Z M 298.527344 367.703125 L 300.730469 367.808594 L 299.367188 369.167969 L 297.0625 368.960938 Z M 299.050781 367.285156 L 300.414062 366.132812 L 302.507812 366.132812 L 301.253906 367.386719 Z M 303.136719 366.027344 L 305.234375 366.027344 C 304.8125 366.550781 304.394531 366.96875 303.976562 367.492188 L 303.453125 367.492188 L 301.777344 367.386719 Z M 303.660156 365.605469 L 305.023438 364.351562 L 307.015625 364.246094 C 306.59375 364.769531 306.175781 365.1875 305.757812 365.605469 Z M 307.539062 364.140625 L 309.632812 364.035156 C 309.214844 364.558594 308.796875 365.082031 308.480469 365.605469 L 306.386719 365.605469 Z M 310.261719 363.929688 C 311.101562 363.929688 311.9375 363.828125 312.777344 363.722656 C 332.46875 362.464844 350.28125 362.988281 365.574219 365.082031 C 371.964844 365.921875 378.355469 367.28125 384.535156 368.960938 C 395.953125 372.207031 407.058594 376.5 417.640625 381.949219 C 419.210938 382.683594 420.675781 383.519531 422.144531 384.253906 L 422.144531 384.359375 C 420.675781 383.730469 419.210938 383.101562 417.640625 382.472656 C 406.429688 377.863281 394.90625 374.199219 383.070312 371.472656 C 377.097656 370.113281 370.601562 368.960938 363.792969 368.121094 C 348.601562 366.234375 331.632812 365.398438 310.679688 365.503906 L 308.898438 365.503906 C 309.320312 364.980469 309.738281 364.453125 310.261719 363.929688 Z M 418.582031 373.777344 C 413.660156 364.246094 407.476562 352.40625 397.210938 344.65625 C 391.972656 340.675781 385.898438 337.949219 379.507812 336.589844 C 363.582031 332.921875 343.890625 336.484375 328.070312 345.703125 C 327.234375 346.226562 326.394531 346.75 325.453125 347.273438 C 327.023438 346.121094 328.59375 344.96875 330.164062 343.921875 C 345.671875 333.761719 365.15625 329.78125 380.972656 333.550781 C 387.363281 335.019531 393.230469 337.949219 398.363281 342.035156 C 408.210938 350.3125 413.449219 362.359375 418.164062 373.046875 Z M 241.75 365.605469 C 214.40625 364.558594 193.351562 361.3125 173.65625 355.132812 C 158.257812 350.207031 143.589844 342.980469 130.285156 333.867188 C 130.390625 331.980469 130.390625 330.09375 130.496094 328.207031 C 142.332031 335.960938 155.007812 342.351562 168.3125 347.378906 C 188.53125 354.921875 210.53125 359.949219 237.664062 363.199219 C 248.140625 364.453125 258.617188 365.398438 269.195312 366.027344 C 259.976562 366.027344 250.863281 366.027344 241.75 365.605469 Z M 129.867188 333.550781 C 127.878906 332.1875 125.992188 330.828125 124.105469 329.464844 C 124.105469 327.578125 124.105469 325.695312 124.105469 323.808594 C 126.097656 325.171875 128.085938 326.53125 130.183594 327.894531 C 129.972656 329.78125 129.867188 331.664062 129.867188 333.550781 Z M 124 323.285156 C 124 321.398438 124.105469 319.511719 124.210938 317.628906 C 126.304688 319.09375 128.402344 320.457031 130.496094 321.816406 C 130.390625 323.703125 130.183594 325.589844 130.078125 327.476562 C 128.085938 326.007812 126.097656 324.648438 124 323.285156 Z M 123.582031 322.96875 C 121.589844 321.503906 119.601562 320.039062 117.714844 318.570312 C 117.714844 316.683594 117.609375 314.800781 117.714844 312.914062 C 119.707031 314.378906 121.695312 315.847656 123.792969 317.3125 C 123.6875 319.199219 123.582031 321.085938 123.582031 322.96875 Z M 129.449219 137.339844 C 132.800781 143.730469 135.210938 150.644531 136.46875 157.660156 C 139.402344 173.898438 137.410156 190.554688 135 204.699219 C 133.011719 216.535156 130.390625 228.476562 127.878906 240 C 124 258.019531 119.914062 276.667969 118.132812 295.210938 C 117.609375 300.34375 117.296875 305.894531 117.191406 311.761719 C 115.203125 310.292969 113.316406 308.722656 111.429688 307.257812 C 111.21875 300.027344 111.429688 292.800781 112.058594 285.570312 C 113.734375 267.238281 117.609375 248.800781 121.488281 231.097656 C 123.792969 220.308594 126.199219 209.097656 128.085938 197.992188 C 130.390625 184.269531 132.382812 168.136719 129.761719 152.320312 C 128.609375 145.40625 126.515625 138.699219 123.371094 132.414062 C 122.21875 130.214844 121.066406 128.121094 119.707031 126.023438 C 120.753906 126.546875 121.800781 127.070312 122.847656 127.597656 C 125.363281 130.632812 127.5625 133.882812 129.449219 137.339844 Z M 118.449219 124.976562 C 117.296875 124.453125 116.144531 124.035156 114.992188 123.613281 C 114.363281 122.566406 113.839844 121.519531 113.105469 120.578125 C 114.257812 121.101562 115.304688 121.625 116.355469 122.253906 C 117.085938 123.089844 117.820312 124.035156 118.449219 124.976562 Z M 111.847656 119.53125 C 110.695312 119.003906 109.542969 118.585938 108.289062 118.167969 C 107.660156 117.121094 107.136719 116.074219 106.507812 115.023438 C 107.554688 115.546875 108.707031 116.074219 109.753906 116.699219 C 110.488281 117.644531 111.21875 118.585938 111.847656 119.53125 Z M 105.355469 113.976562 C 104.203125 113.453125 102.945312 113.035156 101.792969 112.617188 C 101.269531 111.464844 100.640625 110.414062 100.011719 109.367188 C 101.164062 109.890625 102.316406 110.519531 103.363281 111.148438 C 103.992188 111.988281 104.621094 112.929688 105.355469 113.976562 Z M 98.753906 108.320312 C 97.496094 107.796875 96.34375 107.273438 95.085938 106.855469 C 94.5625 105.703125 93.933594 104.550781 93.308594 103.5 C 94.460938 104.023438 95.613281 104.652344 96.660156 105.386719 C 97.390625 106.226562 98.125 107.273438 98.753906 108.320312 Z M 92.15625 102.453125 C 90.898438 101.824219 89.640625 101.300781 88.382812 100.882812 C 87.859375 99.625 87.230469 98.472656 86.601562 97.425781 C 87.753906 98.054688 88.90625 98.683594 90.058594 99.414062 C 90.898438 100.359375 91.527344 101.40625 92.15625 102.453125 Z M 85.554688 96.273438 C 84.296875 95.644531 83.039062 95.121094 81.785156 94.597656 C 81.257812 93.339844 80.734375 92.1875 80.105469 90.929688 C 81.257812 91.558594 82.410156 92.292969 83.5625 93.027344 C 84.296875 94.074219 84.925781 95.226562 85.554688 96.273438 Z M 77.175781 86.636719 C 77.800781 87.683594 78.429688 88.730469 79.058594 89.882812 C 77.800781 89.253906 76.546875 88.625 75.289062 87.996094 C 74.765625 86.738281 74.242188 85.484375 73.613281 84.226562 C 74.765625 84.960938 75.917969 85.691406 77.070312 86.53125 Z M 73.191406 83.492188 C 72.984375 82.96875 72.667969 82.445312 72.355469 81.921875 C 72.039062 81.398438 71.726562 80.769531 71.414062 80.246094 C 72.355469 80.976562 73.296875 81.816406 74.242188 82.65625 C 74.972656 83.597656 75.601562 84.539062 76.335938 85.585938 C 75.289062 84.75 74.242188 84.121094 73.191406 83.492188 Z M 72.039062 82.128906 L 72.566406 83.074219 C 71.308594 82.339844 70.050781 81.605469 68.792969 80.976562 C 68.375 79.722656 67.851562 78.570312 67.429688 77.3125 L 67.222656 76.894531 C 68.375 77.625 69.527344 78.464844 70.574219 79.300781 C 70.992188 80.246094 71.515625 81.1875 72.039062 82.128906 Z M 66.382812 76.472656 L 66.804688 77.519531 C 67.222656 78.570312 67.640625 79.617188 68.058594 80.664062 C 66.59375 79.929688 65.125 79.300781 63.660156 78.570312 C 63.347656 76.996094 62.925781 75.53125 62.402344 73.960938 C 63.871094 74.796875 65.125 75.636719 66.382812 76.472656 Z M 68.269531 81.292969 C 68.792969 82.757812 69.210938 84.226562 69.632812 85.796875 C 68.058594 85.167969 66.382812 84.644531 64.8125 84.015625 C 64.5 82.339844 64.183594 80.769531 63.765625 79.199219 C 65.335938 79.824219 66.804688 80.558594 68.269531 81.292969 Z M 71.097656 91.453125 C 71.308594 92.398438 71.515625 93.339844 71.621094 94.179688 C 71.726562 94.910156 71.832031 95.644531 71.9375 96.378906 C 70.050781 96.0625 68.058594 95.644531 66.175781 95.332031 C 66.070312 93.550781 65.964844 91.769531 65.753906 89.988281 C 67.535156 90.511719 69.316406 91.035156 71.097656 91.453125 Z M 72.039062 96.902344 C 72.25 98.578125 72.460938 100.359375 72.566406 102.140625 C 70.46875 101.929688 68.375 101.71875 66.277344 101.511719 C 66.277344 99.625 66.277344 97.738281 66.175781 95.957031 C 68.164062 96.167969 70.050781 96.585938 72.039062 96.902344 Z M 66.382812 108.214844 L 72.878906 108.53125 C 72.878906 108.84375 72.878906 109.261719 72.878906 109.578125 C 72.878906 111.148438 72.878906 112.617188 72.773438 114.1875 L 65.652344 114.1875 C 65.859375 112.195312 65.964844 110.207031 66.070312 108.214844 Z M 68.792969 114.605469 L 72.878906 114.605469 C 72.773438 116.597656 72.667969 118.585938 72.566406 120.472656 L 71.097656 120.578125 C 69.109375 120.683594 67.117188 120.785156 65.023438 120.890625 C 65.230469 118.796875 65.546875 116.804688 65.753906 114.605469 Z M 70.992188 120.996094 L 72.355469 120.890625 C 71.726562 128.644531 70.46875 136.1875 69.316406 142.890625 C 68.375 148.023438 67.328125 153.261719 66.382812 158.394531 C 63.242188 174.527344 59.890625 191.183594 59.574219 207.734375 C 59.261719 226.171875 62.71875 244.609375 69.839844 261.6875 C 69.003906 260.429688 68.164062 259.066406 67.328125 257.707031 C 58.210938 239.164062 53.394531 218.734375 53.5 197.992188 C 53.601562 181.546875 56.851562 165.097656 59.992188 149.070312 C 60.832031 144.777344 61.667969 140.375 62.507812 136.082031 C 63.347656 131.472656 64.183594 126.445312 64.917969 121.207031 Z M 60.097656 207.839844 C 60.414062 191.289062 63.660156 174.632812 66.90625 158.5 C 67.957031 153.472656 68.898438 148.234375 69.839844 142.996094 C 71.097656 136.289062 72.25 128.75 72.878906 120.890625 C 75.289062 120.785156 77.59375 120.683594 80.003906 120.578125 C 79.6875 130.425781 78.535156 140.167969 76.648438 149.804688 C 75.601562 155.777344 74.34375 161.746094 73.191406 167.613281 C 69.945312 183.851562 66.59375 200.71875 66.070312 217.480469 C 65.546875 234.765625 68.375 251.945312 74.242188 268.183594 C 73.191406 266.714844 72.144531 265.25 71.203125 263.78125 C 63.554688 246.183594 59.785156 227.011719 60.097656 207.839844 Z M 75.078125 270.277344 C 75.496094 271.429688 76.023438 272.6875 76.441406 273.839844 C 75.707031 272.6875 74.972656 271.535156 74.242188 270.277344 C 73.507812 269.019531 73.089844 267.867188 72.566406 266.714844 C 73.402344 267.972656 74.242188 269.125 75.078125 270.277344 Z M 76.125 271.640625 C 77.175781 273.105469 78.328125 274.570312 79.480469 276.039062 C 80.003906 277.503906 80.527344 278.972656 81.050781 280.4375 C 80.003906 278.972656 78.953125 277.402344 77.90625 275.933594 C 77.277344 274.570312 76.648438 273.210938 76.125 271.640625 Z M 81.574219 282.113281 C 81.992188 283.371094 82.515625 284.628906 83.039062 285.886719 C 82.203125 284.628906 81.363281 283.265625 80.632812 281.90625 C 80.105469 280.753906 79.582031 279.601562 78.953125 278.449219 C 79.792969 279.707031 80.632812 280.859375 81.574219 282.113281 Z M 82.726562 283.6875 C 83.773438 285.046875 84.820312 286.410156 85.867188 287.875 C 86.394531 289.34375 86.917969 290.914062 87.441406 292.382812 C 86.496094 291.019531 85.554688 289.65625 84.613281 288.191406 C 83.878906 286.722656 83.25 285.152344 82.726562 283.6875 Z M 87.964844 293.847656 C 88.382812 295.105469 88.90625 296.363281 89.429688 297.617188 C 88.699219 296.464844 87.964844 295.417969 87.335938 294.265625 C 86.707031 293.007812 86.078125 291.648438 85.554688 290.390625 C 86.289062 291.542969 87.125 292.695312 87.964844 293.847656 Z M 89.011719 295.210938 C 89.953125 296.464844 90.898438 297.722656 91.839844 298.875 L 92.257812 299.398438 C 92.679688 300.972656 93.203125 302.4375 93.726562 303.90625 C 92.679688 302.542969 91.734375 301.074219 90.792969 299.714844 C 90.164062 298.246094 89.535156 296.675781 89.011719 295.210938 Z M 94.25 305.371094 C 94.667969 306.628906 95.191406 307.886719 95.714844 309.140625 C 94.984375 307.886719 94.144531 306.734375 93.410156 305.476562 C 92.886719 304.324219 92.363281 303.066406 91.734375 301.914062 C 92.574219 303.066406 93.410156 304.324219 94.25 305.371094 Z M 95.191406 306.734375 C 95.714844 307.464844 96.34375 308.199219 96.867188 308.933594 C 97.390625 309.667969 97.917969 310.191406 98.441406 310.921875 C 98.859375 312.496094 99.382812 313.960938 99.90625 315.429688 C 98.964844 314.066406 97.917969 312.597656 96.972656 311.238281 C 96.34375 309.769531 95.714844 308.304688 95.191406 306.734375 Z M 100.429688 316.894531 C 100.847656 318.152344 101.375 319.410156 101.898438 320.664062 C 101.164062 319.511719 100.429688 318.257812 99.59375 317 C 98.964844 315.742188 98.441406 314.589844 97.917969 313.332031 C 98.753906 314.589844 99.59375 315.847656 100.429688 316.894531 Z M 101.375 318.257812 C 101.582031 318.464844 101.792969 318.78125 102 318.988281 C 102.839844 320.140625 103.78125 321.191406 104.621094 322.34375 C 105.039062 323.914062 105.5625 325.378906 106.085938 326.953125 C 105.039062 325.589844 104.097656 324.121094 103.152344 322.65625 C 102.527344 321.191406 101.898438 319.722656 101.375 318.257812 Z M 106.609375 328.417969 C 107.03125 329.675781 107.554688 331.035156 108.078125 332.292969 C 107.238281 331.035156 106.507812 329.882812 105.773438 328.628906 C 105.144531 327.371094 104.621094 326.113281 104.097656 324.960938 C 104.933594 326.113281 105.773438 327.265625 106.609375 328.417969 Z M 107.554688 329.675781 C 108.496094 330.933594 109.542969 332.292969 110.59375 333.550781 C 111.011719 335.121094 111.535156 336.589844 112.058594 338.160156 C 111.117188 336.902344 110.277344 335.542969 109.335938 334.285156 C 108.707031 332.714844 108.078125 331.246094 107.554688 329.675781 Z M 112.164062 339.101562 C 112.269531 339.207031 112.371094 339.417969 112.476562 339.523438 C 112.898438 340.78125 113.421875 342.035156 113.839844 343.292969 C 113.105469 342.246094 112.476562 341.09375 111.847656 340.046875 C 111.21875 339 110.695312 337.53125 110.171875 336.273438 C 110.800781 337.324219 111.429688 338.265625 112.164062 339.101562 Z M 113.421875 340.78125 C 114.46875 342.140625 115.515625 343.503906 116.667969 344.863281 C 117.085938 346.4375 117.609375 348.007812 118.132812 349.578125 L 117.714844 348.949219 C 116.878906 347.796875 116.039062 346.542969 115.203125 345.285156 C 114.46875 343.816406 113.945312 342.351562 113.421875 340.78125 Z M 117.296875 349.160156 C 117.714844 349.789062 118.132812 350.3125 118.554688 350.941406 C 118.972656 352.199219 119.390625 353.558594 119.914062 354.816406 C 119.078125 353.558594 118.238281 352.199219 117.507812 350.941406 C 116.980469 349.789062 116.457031 348.53125 115.933594 347.378906 C 116.355469 348.007812 116.773438 348.636719 117.296875 349.160156 Z M 119.496094 352.09375 C 120.542969 353.457031 121.589844 354.816406 122.742188 356.179688 C 123.164062 357.75 123.6875 359.320312 124.105469 360.894531 C 123.6875 360.265625 123.164062 359.636719 122.742188 358.902344 C 122.324219 358.167969 121.695312 357.332031 121.171875 356.597656 C 120.542969 355.234375 120.019531 353.664062 119.496094 352.09375 Z M 122.429688 359.21875 C 123.164062 360.265625 123.894531 361.207031 124.628906 362.253906 C 125.046875 363.617188 125.574219 364.980469 126.097656 366.234375 C 125.257812 364.976562 124.523438 363.722656 123.792969 362.464844 C 123.164062 361.207031 122.640625 359.949219 122.117188 358.589844 Z M 125.574219 363.40625 C 126.621094 364.769531 127.773438 366.132812 128.925781 367.492188 C 129.34375 369.167969 129.867188 370.738281 130.390625 372.3125 C 129.554688 371.265625 128.714844 370.113281 127.980469 368.960938 L 127.25 367.910156 C 126.621094 366.445312 125.992188 364.980469 125.46875 363.40625 Z M 130.707031 373.570312 C 131.125 374.929688 131.648438 376.292969 132.171875 377.757812 C 131.335938 376.398438 130.496094 375.140625 129.65625 373.777344 C 129.03125 372.519531 128.503906 371.265625 127.980469 370.007812 C 128.820312 371.265625 129.65625 372.519531 130.707031 373.570312 Z M 136.363281 384.570312 C 136.78125 386.035156 137.304688 387.398438 137.828125 388.757812 C 137.097656 387.605469 136.363281 386.453125 135.628906 385.195312 C 134.894531 383.941406 134.476562 382.578125 133.953125 381.320312 C 134.6875 382.472656 135.417969 383.519531 136.363281 384.570312 Z M 137.199219 385.617188 C 146 396.617188 156.894531 405.625 169.363281 412.222656 C 184.761719 420.289062 200.789062 423.539062 215.875 421.652344 C 239.65625 418.511719 258.71875 403.84375 274.226562 389.804688 C 277.261719 386.976562 280.40625 384.148438 283.445312 381.320312 C 287.738281 377.234375 292.136719 373.148438 296.746094 369.167969 L 299.15625 369.378906 C 294.652344 373.988281 290.460938 378.703125 286.167969 383.417969 C 283.445312 386.347656 280.71875 389.492188 277.996094 392.425781 C 263.328125 408.242188 245.101562 424.898438 221.113281 429.40625 C 191.882812 434.746094 158.257812 418.71875 138.875 390.226562 C 138.25 388.863281 137.621094 387.292969 137.199219 385.617188 Z M 174.390625 422.175781 C 190 430.035156 206.132812 432.757812 221.113281 430.035156 C 245.207031 425.527344 263.433594 408.765625 278.207031 392.949219 C 280.929688 390.015625 283.757812 386.875 286.480469 383.941406 C 290.777344 379.121094 295.070312 374.300781 299.679688 369.691406 L 302.089844 369.902344 C 297.691406 375.140625 293.5 380.585938 289.414062 386.035156 C 287.003906 389.175781 284.492188 392.425781 281.976562 395.671875 C 268.882812 412.222656 250.757812 432.023438 226.351562 437.890625 C 197.019531 444.910156 162.027344 428.671875 143.171875 399.339844 C 142.542969 398.292969 141.914062 397.246094 141.179688 396.195312 C 140.65625 394.9375 140.132812 393.683594 139.609375 392.425781 C 148.621094 404.890625 160.5625 415.15625 174.390625 422.175781 Z M 299.890625 369.167969 L 301.253906 367.808594 L 303.347656 367.910156 L 303.558594 367.910156 C 303.136719 368.4375 302.71875 368.960938 302.300781 369.484375 Z M 304.082031 367.910156 L 306.386719 368.015625 L 305.128906 369.691406 L 302.71875 369.484375 Z M 304.5 367.492188 L 305.757812 366.027344 L 307.957031 366.027344 C 307.539062 366.550781 307.117188 367.074219 306.699219 367.597656 Z M 308.480469 365.921875 L 310.574219 365.921875 C 331.527344 365.816406 348.394531 366.65625 363.582031 368.539062 C 370.394531 369.378906 376.886719 370.53125 382.753906 371.894531 C 394.59375 374.617188 406.117188 378.28125 417.324219 382.890625 C 418.894531 383.519531 420.574219 384.253906 422.144531 384.882812 L 422.144531 384.988281 C 420.574219 384.464844 419 383.835938 417.429688 383.3125 C 405.59375 379.433594 393.542969 376.5 381.289062 374.300781 C 375.316406 373.253906 368.925781 372.3125 361.90625 371.472656 C 344.097656 369.378906 325.765625 368.332031 308.585938 367.492188 L 307.222656 367.386719 Z M 332.15625 341.617188 C 351.011719 327.683594 381.289062 322.027344 399.933594 339 C 409.574219 347.695312 414.183594 360.578125 418.164062 371.996094 C 418.164062 372.101562 418.164062 372.101562 418.164062 372.207031 C 413.554688 361.625 408.316406 349.789062 398.574219 341.722656 C 393.441406 337.53125 387.46875 334.597656 381.078125 333.132812 C 365.050781 329.257812 345.460938 333.238281 329.851562 343.609375 C 329.433594 343.816406 329.117188 344.132812 328.699219 344.445312 C 329.957031 343.398438 331.109375 342.558594 332.15625 341.617188 Z M 162.972656 339 C 194.816406 352.617188 228.757812 360.160156 263.226562 365.082031 C 254.738281 364.453125 246.253906 363.617188 237.769531 362.675781 C 210.636719 359.425781 188.636719 354.398438 168.523438 346.855469 C 155.21875 341.828125 142.542969 335.4375 130.601562 327.578125 C 130.707031 325.695312 130.808594 323.808594 131.019531 321.921875 C 141.179688 328.523438 151.867188 334.285156 162.972656 339 Z M 150.503906 168.453125 C 154.066406 185.738281 152.078125 203.441406 149.5625 218.527344 C 147.363281 231.832031 144.429688 245.34375 141.496094 258.335938 C 137.410156 276.773438 133.21875 295.734375 131.125 314.800781 C 130.914062 316.894531 130.707031 319.09375 130.496094 321.191406 C 128.402344 319.828125 126.304688 318.464844 124.210938 317 C 124.421875 313.125 124.628906 309.140625 125.046875 305.160156 C 127.039062 286.410156 131.125 267.554688 135.105469 249.429688 C 137.828125 237.070312 140.554688 224.394531 142.648438 211.820312 C 145.058594 197.15625 147.152344 179.976562 143.800781 163.109375 C 142.332031 155.777344 139.820312 148.652344 136.152344 142.050781 C 134.058594 138.28125 131.4375 134.71875 128.503906 131.472656 C 139.402344 139.644531 147.257812 152.738281 150.503906 168.453125 Z M 124.734375 128.121094 L 123.6875 127.492188 L 123.164062 127.28125 C 122.847656 126.863281 122.429688 126.445312 122.011719 126.023438 C 122.953125 126.652344 123.894531 127.386719 124.734375 128.121094 Z M 118.238281 122.777344 C 117.714844 122.460938 117.191406 122.148438 116.667969 121.835938 C 116.25 121.308594 115.828125 120.785156 115.304688 120.261719 C 116.355469 121.101562 117.296875 121.9375 118.238281 122.777344 Z M 111.847656 117.433594 C 111.21875 117.121094 110.695312 116.699219 110.066406 116.386719 C 109.648438 115.863281 109.230469 115.445312 108.8125 114.921875 C 109.964844 115.652344 110.90625 116.492188 111.847656 117.433594 Z M 102.839844 109.578125 C 103.679688 110.3125 104.515625 111.042969 105.355469 111.777344 C 104.726562 111.359375 104.203125 111.042969 103.574219 110.730469 C 103.152344 110.207031 102.734375 109.683594 102.316406 109.160156 Z M 97.707031 104.96875 C 98.125 105.28125 98.441406 105.703125 98.859375 106.121094 C 98.230469 105.703125 97.601562 105.386719 96.972656 104.96875 C 96.554688 104.339844 96.03125 103.816406 95.613281 103.1875 C 96.34375 103.816406 97.078125 104.445312 97.707031 104.96875 Z M 90.476562 98.996094 C 90.058594 98.367188 89.640625 97.84375 89.222656 97.214844 C 90.269531 98.160156 91.421875 99.101562 92.46875 100.148438 C 91.734375 99.835938 91.105469 99.414062 90.476562 98.996094 Z M 85.867188 94.074219 C 85.242188 93.652344 84.613281 93.234375 83.984375 92.710938 C 83.5625 92.082031 83.144531 91.558594 82.726562 90.929688 L 82.621094 90.824219 C 83.667969 91.875 84.820312 92.921875 85.867188 94.074219 Z M 79.269531 87.578125 C 78.640625 87.054688 78.011719 86.636719 77.277344 86.113281 C 76.859375 85.378906 76.441406 84.75 75.917969 84.121094 C 77.175781 85.273438 78.222656 86.320312 79.269531 87.578125 Z M 72.878906 80.664062 C 72.25 80.140625 71.621094 79.617188 70.886719 79.09375 C 70.46875 78.359375 70.050781 77.625 69.527344 76.894531 C 70.679688 78.148438 71.832031 79.40625 72.878906 80.664062 Z M 66.59375 73.226562 C 65.964844 72.597656 65.230469 71.96875 64.601562 71.445312 C 64.183594 70.605469 63.765625 69.875 63.347656 69.035156 C 64.394531 70.398438 65.546875 71.863281 66.59375 73.226562 Z M 60.414062 65.160156 C 59.785156 64.53125 59.15625 63.902344 58.527344 63.273438 C 58.210938 62.4375 57.792969 61.597656 57.375 60.761719 C 58.527344 62.226562 59.46875 63.691406 60.414062 65.160156 Z M 52.03125 51.644531 C 53.078125 53.21875 53.917969 54.894531 54.753906 56.570312 C 54.230469 55.835938 53.601562 55.101562 52.976562 54.472656 C 52.765625 53.53125 52.449219 52.589844 52.03125 51.644531 Z M 53.5 55.625 C 54.335938 56.675781 55.175781 57.722656 55.90625 58.769531 C 56.535156 59.921875 57.058594 61.179688 57.585938 62.332031 C 56.640625 61.386719 55.699219 60.445312 54.652344 59.609375 C 54.335938 58.246094 53.917969 56.988281 53.5 55.625 Z M 54.964844 60.445312 C 56.011719 61.492188 57.058594 62.539062 58.109375 63.484375 C 58.738281 64.84375 59.261719 66.207031 59.785156 67.570312 C 58.632812 66.625 57.480469 65.789062 56.222656 64.84375 C 55.804688 63.484375 55.488281 61.914062 54.964844 60.445312 Z M 56.328125 65.578125 C 57.585938 66.523438 58.839844 67.464844 60.097656 68.40625 C 60.621094 69.875 61.144531 71.339844 61.667969 72.808594 C 61.667969 72.808594 61.667969 72.910156 61.667969 72.910156 C 60.308594 72.074219 58.839844 71.234375 57.375 70.503906 C 57.164062 68.929688 56.851562 67.253906 56.328125 65.578125 Z M 57.480469 71.132812 C 58.945312 71.96875 60.414062 72.808594 61.773438 73.644531 C 62.195312 75.214844 62.613281 76.789062 63.03125 78.359375 C 61.460938 77.625 59.890625 76.996094 58.210938 76.265625 C 58.210938 74.484375 57.898438 72.808594 57.480469 71.132812 Z M 58.421875 76.683594 C 60.097656 77.417969 61.667969 78.046875 63.242188 78.777344 C 63.660156 80.453125 63.972656 82.027344 64.289062 83.703125 C 62.507812 83.074219 60.832031 82.550781 58.945312 81.921875 C 58.945312 80.351562 58.738281 78.570312 58.421875 76.683594 Z M 59.15625 84.644531 C 59.15625 83.910156 59.050781 83.28125 59.050781 82.550781 C 60.832031 83.074219 62.613281 83.703125 64.394531 84.332031 C 64.707031 86.007812 64.917969 87.683594 65.125 89.464844 C 63.242188 89.042969 61.25 88.519531 59.261719 88.101562 C 59.363281 86.949219 59.261719 85.796875 59.15625 84.644531 Z M 59.363281 88.519531 C 61.355469 88.941406 63.242188 89.464844 65.230469 89.882812 C 65.441406 91.664062 65.546875 93.445312 65.652344 95.226562 L 61.460938 94.597656 L 59.363281 94.28125 C 59.46875 92.398438 59.46875 90.511719 59.363281 88.519531 Z M 59.363281 94.804688 L 61.460938 95.121094 L 65.753906 95.855469 C 65.859375 97.738281 65.859375 99.519531 65.859375 101.40625 L 64.078125 101.195312 L 59.15625 100.671875 C 59.261719 98.789062 59.363281 96.796875 59.363281 94.804688 Z M 59.050781 101.195312 C 60.726562 101.40625 62.402344 101.511719 63.972656 101.71875 L 65.859375 101.929688 C 65.859375 102.664062 65.859375 103.398438 65.859375 104.234375 C 65.859375 105.386719 65.753906 106.644531 65.753906 107.796875 C 63.347656 107.691406 61.042969 107.585938 58.632812 107.480469 C 58.738281 105.28125 58.945312 103.292969 59.050781 101.195312 Z M 58.421875 107.796875 C 60.832031 107.902344 63.242188 108.007812 65.652344 108.109375 C 65.546875 110.101562 65.441406 112.089844 65.230469 114.1875 C 62.71875 114.1875 60.203125 114.1875 57.6875 114.1875 C 58.003906 112.089844 58.210938 109.890625 58.421875 107.796875 Z M 65.125 114.605469 C 64.917969 116.699219 64.707031 118.796875 64.394531 120.890625 C 61.773438 120.996094 59.15625 121.101562 56.535156 121.101562 C 56.851562 118.902344 57.269531 116.804688 57.480469 114.605469 C 60.203125 114.605469 62.71875 114.605469 65.125 114.605469 Z M 47.109375 188.355469 C 47.109375 172.011719 50.25 155.566406 53.289062 139.644531 C 54.441406 133.671875 55.59375 127.699219 56.640625 121.625 C 59.261719 121.625 61.878906 121.519531 64.5 121.414062 C 63.765625 126.652344 62.925781 131.578125 62.195312 136.1875 C 61.355469 140.480469 60.515625 144.882812 59.679688 149.175781 C 56.535156 165.097656 53.394531 181.652344 53.183594 198.203125 C 53.078125 217.269531 57.058594 236.125 64.917969 253.515625 C 53.8125 233.714844 47.214844 211.820312 47.109375 188.355469 Z M 70.261719 263.363281 C 70.46875 263.78125 70.785156 264.199219 71.097656 264.621094 L 71.621094 265.878906 C 71.203125 265.039062 70.679688 264.199219 70.261719 263.363281 Z M 76.546875 274.886719 L 77.488281 276.25 C 77.699219 276.773438 77.90625 277.191406 78.117188 277.714844 C 77.59375 276.773438 77.070312 275.828125 76.546875 274.886719 Z M 82.832031 286.515625 C 83.144531 287.039062 83.5625 287.5625 83.878906 288.191406 C 84.191406 288.820312 84.296875 289.238281 84.613281 289.761719 C 84.089844 288.609375 83.460938 287.5625 82.832031 286.515625 Z M 89.535156 298.667969 L 90.375 299.921875 L 91.003906 301.390625 Z M 95.613281 309.980469 C 95.925781 310.503906 96.238281 311.027344 96.554688 311.445312 C 96.867188 311.867188 96.972656 312.390625 97.183594 312.914062 C 96.660156 311.972656 96.136719 311.027344 95.613281 309.980469 Z M 101.792969 321.398438 C 102.105469 321.921875 102.421875 322.445312 102.839844 322.96875 L 103.574219 324.648438 C 102.839844 323.597656 102.316406 322.445312 101.792969 321.398438 Z M 107.761719 332.816406 C 108.078125 333.339844 108.496094 333.96875 108.8125 334.492188 C 109.125 335.019531 109.230469 335.644531 109.542969 336.273438 C 109.019531 335.121094 108.390625 333.96875 107.761719 332.816406 Z M 113.839844 344.132812 L 114.78125 345.492188 C 114.992188 346.015625 115.203125 346.542969 115.410156 347.066406 C 114.78125 346.121094 114.257812 345.074219 113.839844 344.132812 Z M 119.496094 355.132812 C 119.914062 355.761719 120.335938 356.386719 120.753906 357.015625 C 120.964844 357.644531 121.277344 358.273438 121.488281 358.902344 C 120.753906 357.644531 120.125 356.386719 119.496094 355.132812 Z M 125.46875 366.445312 L 126.726562 368.226562 C 127.039062 368.960938 127.351562 369.691406 127.5625 370.320312 C 126.828125 369.0625 126.097656 367.703125 125.46875 366.445312 Z M 131.230469 377.550781 C 131.648438 378.179688 132.066406 378.808594 132.488281 379.433594 L 132.695312 379.644531 C 133.011719 380.484375 133.324219 381.214844 133.640625 382.054688 C 132.800781 380.585938 132.066406 379.015625 131.230469 377.550781 Z M 137.199219 388.863281 C 137.304688 389.074219 137.410156 389.28125 137.621094 389.492188 C 137.828125 389.910156 138.144531 390.226562 138.351562 390.644531 C 138.5625 391.378906 138.875 392.007812 139.191406 392.738281 C 138.5625 391.484375 137.828125 390.226562 137.199219 388.863281 Z M 292.664062 388.339844 C 290.460938 391.691406 288.15625 395.253906 285.851562 398.605469 C 273.492188 416.9375 256.101562 438.9375 231.484375 446.0625 C 198.171875 455.804688 164.332031 434.957031 148.199219 409.394531 C 146.210938 406.253906 144.429688 403.003906 142.859375 399.757812 C 151.972656 413.585938 164.542969 424.796875 179.417969 432.128906 C 195.132812 439.777344 211.371094 441.871094 226.351562 438.308594 C 250.863281 432.441406 269.089844 412.539062 282.1875 395.882812 C 284.699219 392.738281 287.214844 389.386719 289.625 386.246094 C 293.816406 380.796875 298.003906 375.246094 302.507812 369.902344 L 304.917969 370.113281 C 300.625 376.082031 296.644531 382.261719 292.664062 388.339844 Z M 360.335938 375.140625 C 350.488281 374.09375 340.433594 373.148438 330.691406 372.207031 C 322.414062 371.472656 314.136719 370.636719 305.757812 369.796875 L 307.015625 368.121094 L 308.691406 368.226562 C 325.871094 369.0625 344.203125 370.113281 362.011719 372.207031 C 369.03125 373.046875 375.421875 373.988281 381.394531 375.035156 C 393.542969 377.234375 405.59375 380.167969 417.429688 384.042969 C 419.105469 384.570312 420.78125 385.195312 422.457031 385.722656 C 422.457031 385.824219 422.457031 385.824219 422.457031 385.929688 C 401.820312 379.960938 380.34375 377.234375 360.335938 375.140625 Z M 422.980469 385.929688 C 422.980469 385.929688 422.980469 385.824219 422.980469 385.824219 L 423.085938 385.824219 L 423.085938 385.929688 Z M 423.714844 386.140625 L 423.714844 386.035156 L 423.820312 386.035156 C 423.820312 386.035156 423.820312 386.140625 423.820312 386.140625 Z M 487.304688 439.042969 C 481.542969 429.40625 474.523438 420.605469 466.351562 412.851562 C 456.921875 404.054688 446.34375 396.617188 434.925781 390.644531 C 447.285156 395.988281 458.808594 403.003906 469.179688 411.597656 C 477.769531 418.929688 485.207031 427.519531 491.179688 437.050781 C 507.730469 463.347656 511.921875 492.679688 502.074219 513.945312 C 508.675781 493.9375 503.015625 464.8125 487.304688 439.042969 Z M 506.894531 476.335938 C 504.589844 462.195312 499.351562 448.785156 491.703125 436.738281 C 485.730469 427.101562 478.292969 418.511719 469.703125 411.175781 C 459.855469 403.007812 448.855469 396.195312 437.125 390.957031 C 449.800781 395.464844 461.742188 401.855469 472.636719 409.816406 C 502.492188 432.234375 522.398438 477.382812 503.4375 512.269531 C 507.625 501.898438 508.882812 489.535156 506.894531 476.335938 Z M 506.894531 476.335938 " fill-opacity="1" fill-rule="nonzero"/></g></svg>