<svg xmlns="http://www.w3.org/2000/svg" xmlns:xlink="http://www.w3.org/1999/xlink" width="700" zoomAndPan="magnify" viewBox="0 0 525 525.000007" height="700" preserveAspectRatio="xMidYMid meet" version="1.0"><defs><clipPath id="d7f558ec0c"><path d="M 0.5 0 L 524.5 0 L 524.5 524 L 0.5 524 Z M 0.5 0 " clip-rule="nonzero"/></clipPath></defs><g clip-path="url(#d7f558ec0c)"><path fill="#f5002c" d="M 65.34375 4.453125 L -14.675781 4.453125 L -14.675781 15.511719 L 65.34375 15.511719 Z M 207.167969 254.269531 L 127.148438 254.269531 L 127.148438 261.425781 L 207.167969 261.425781 Z M 311.582031 -32.144531 L 194.15625 -32.144531 L 194.15625 -25.472656 L 311.582031 -25.472656 Z M 22.894531 258.824219 L 40.785156 258.824219 L 40.785156 249.878906 L 22.894531 249.878906 Z M 84.859375 159.125 L 74.125 159.125 L 74.125 168.070312 L 84.859375 168.070312 Z M 147.800781 159.125 L 137.066406 159.125 L 137.066406 168.070312 L 147.800781 168.070312 Z M 305.566406 159.125 L 294.832031 159.125 L 294.832031 168.070312 L 305.566406 168.070312 Z M 345.898438 168.230469 L 356.632812 168.230469 L 356.632812 159.285156 L 345.898438 159.285156 Z M 229.609375 203.523438 L 240.34375 203.523438 L 240.34375 194.578125 L 229.609375 194.578125 Z M 235.304688 289.5625 L 235.304688 282.40625 L 227.660156 282.40625 L 227.660156 289.5625 Z M 251.894531 289.5625 L 251.894531 282.40625 L 244.25 282.40625 L 244.25 289.5625 Z M 268.484375 289.5625 L 268.484375 282.40625 L 260.839844 282.40625 L 260.839844 289.5625 Z M 238.230469 263.050781 L 158.210938 263.050781 L 158.210938 270.207031 L 238.230469 270.207031 Z M 383.957031 298.34375 L 383.957031 291.1875 L 376.3125 291.1875 L 376.3125 298.34375 Z M 187.324219 467.003906 L 179.679688 467.003906 L 179.679688 471.558594 L 187.324219 471.558594 Z M 177.566406 476.925781 L 185.210938 476.925781 L 185.210938 472.371094 L 177.566406 472.371094 Z M 201.800781 476.925781 L 201.800781 472.371094 L 194.15625 472.371094 L 194.15625 476.925781 Z M 218.390625 472.535156 L 210.746094 472.535156 L 210.746094 477.085938 L 218.390625 477.085938 Z M 179.84375 523.113281 L 187.488281 523.113281 L 187.488281 518.5625 L 179.84375 518.5625 Z M 177.566406 528.644531 L 185.210938 528.644531 L 185.210938 524.089844 L 177.566406 524.089844 Z M 194.15625 528.644531 L 201.800781 528.644531 L 201.800781 524.089844 L 194.15625 524.089844 Z M 210.746094 528.644531 L 218.390625 528.644531 L 218.390625 524.089844 L 210.746094 524.089844 Z M -13.863281 78.453125 L -6.21875 78.453125 L -6.21875 73.898438 L -13.863281 73.898438 Z M -8.496094 79.59375 L -16.140625 79.59375 L -16.140625 84.144531 L -8.496094 84.144531 Z M 8.09375 83.984375 L 8.09375 79.429688 L 0.449219 79.429688 L 0.449219 83.984375 Z M 17.203125 79.59375 L 17.203125 84.144531 L 24.847656 84.144531 L 24.847656 79.59375 Z M 141.949219 333.964844 L 141.949219 341.117188 L 221.96875 341.117188 L 221.96875 333.964844 Z M 293.53125 338.027344 L 293.53125 330.871094 L 285.886719 330.871094 L 285.886719 338.027344 Z M 140.320312 453.339844 L 129.585938 453.339844 L 129.585938 462.285156 L 140.320312 462.285156 Z M 105.679688 475.949219 L 105.679688 467.003906 L 94.945312 467.003906 L 94.945312 475.949219 Z M 217.738281 442.445312 L 228.472656 442.445312 L 228.472656 433.5 L 217.738281 433.5 Z M 283.445312 378.203125 L 283.445312 381.128906 L 117.550781 381.128906 L 117.550781 382.59375 L 283.445312 382.59375 L 283.445312 387.308594 L 294.179688 387.308594 L 294.179688 382.59375 L 401.199219 382.59375 L 401.199219 380.964844 L 294.179688 380.964844 L 294.179688 378.039062 L 283.445312 378.039062 Z M -10.285156 168.230469 L 0.449219 168.230469 L 0.449219 159.285156 L -10.285156 159.285156 Z M 112.996094 146.113281 L 112.996094 137.003906 L 102.425781 137.003906 L 102.425781 145.949219 L 112.996094 145.949219 Z M 52.984375 269.882812 L 70.875 269.882812 L 70.875 260.9375 L 52.984375 260.9375 Z M 195.78125 233.289062 L 194.15625 233.289062 L 194.15625 228.246094 L 204.402344 228.246094 L 204.402344 219.300781 L 193.667969 219.300781 L 193.667969 225.644531 L 183.421875 225.644531 L 183.421875 233.449219 L 161.300781 233.449219 L 161.300781 225.480469 L 143.410156 225.480469 L 143.410156 233.449219 L 55.585938 233.449219 L 55.585938 240.117188 L 195.945312 240.117188 L 195.945312 233.289062 Z M 267.667969 419.023438 L 221.640625 419.023438 L 221.640625 427.96875 L 267.667969 427.96875 Z M 180.332031 409.265625 L 261 409.265625 L 261 402.597656 L 316.460938 402.597656 L 316.460938 395.929688 L 235.792969 395.929688 L 235.792969 402.597656 L 180.332031 402.597656 L 180.332031 404.875 L 48.917969 404.875 L 48.917969 408.617188 L 180.332031 408.617188 Z M 277.101562 421.464844 L 323.128906 421.464844 L 323.128906 412.519531 L 277.101562 412.519531 Z M 308.167969 283.871094 L 354.195312 283.871094 L 354.195312 267.117188 L 308.167969 267.117188 Z M 409.65625 254.757812 L 363.628906 254.757812 L 363.628906 271.507812 L 409.65625 271.507812 Z M 29.726562 206.941406 L -16.300781 206.941406 L -16.300781 230.035156 L 29.726562 230.035156 Z M 446.25 230.035156 L 492.277344 230.035156 L 492.277344 206.941406 L 446.25 206.941406 Z M 322.480469 233.449219 L 256.933594 233.449219 L 256.933594 237.84375 L 266.855469 237.84375 L 266.855469 248.738281 L 347.527344 248.738281 L 347.527344 237.84375 L 393.066406 237.84375 L 393.066406 236.378906 L 402.988281 236.378906 L 402.988281 223.855469 L 322.316406 223.855469 L 322.316406 233.449219 Z M 141.949219 414.144531 L 75.101562 414.144531 L 75.101562 416.746094 L 141.949219 416.746094 Z M 32.652344 436.753906 L 32.652344 434.148438 L -34.191406 434.148438 L -34.191406 436.753906 Z M 189.277344 345.835938 L 226.847656 345.835938 L 226.847656 342.09375 L 86.488281 342.09375 L 86.488281 345.347656 L 48.917969 345.347656 L 48.917969 349.089844 L 189.277344 349.089844 Z M 1.589844 513.519531 L 189.277344 513.519531 L 189.277344 509.941406 L 1.589844 509.941406 Z M 148.453125 492.539062 L 96.082031 492.539062 L 96.082031 476.273438 L 51.195312 476.273438 L 51.195312 468.46875 L 40.460938 468.46875 L 40.460938 477.414062 L 50.054688 477.414062 L 50.054688 492.375 L -39.070312 492.375 L -39.070312 495.464844 L 148.617188 495.464844 L 148.617188 492.539062 Z M 324.757812 483.59375 L 137.070312 483.59375 L 137.070312 486.683594 L 324.757812 486.683594 Z M 42.410156 326.15625 L -97.949219 326.15625 L -97.949219 332.824219 L 42.410156 332.824219 Z M 35.90625 375.761719 L -47.367188 375.761719 L -47.367188 380.804688 L 35.90625 380.804688 Z M 11.507812 323.230469 L 94.78125 323.230469 L 94.78125 318.1875 L 11.507812 318.1875 Z M 22.894531 340.957031 L 106.167969 340.957031 L 106.167969 335.914062 L 22.894531 335.914062 Z M 527.734375 4.453125 L 447.714844 4.453125 L 447.714844 15.511719 L 527.734375 15.511719 Z M 485.445312 258.824219 L 503.335938 258.824219 L 503.335938 249.878906 L 485.445312 249.878906 Z M 448.6875 78.453125 L 456.332031 78.453125 L 456.332031 73.898438 L 448.6875 73.898438 Z M 454.054688 79.59375 L 446.414062 79.59375 L 446.414062 84.144531 L 454.054688 84.144531 Z M 463.164062 79.59375 L 463.164062 84.144531 L 470.808594 84.144531 L 470.808594 79.59375 Z M 479.753906 79.59375 L 479.753906 84.144531 L 487.398438 84.144531 L 487.398438 79.59375 Z M 452.265625 168.230469 L 463 168.230469 L 463 159.285156 L 452.265625 159.285156 Z M 38.671875 199.132812 L 38.671875 192.789062 L 48.917969 192.789062 L 48.917969 191.164062 L 90.878906 191.164062 L 90.878906 198.96875 L 101.613281 198.96875 L 101.613281 192.628906 L 111.859375 192.628906 L 111.859375 191 L 199.847656 191 L 199.847656 186.609375 L 111.859375 186.609375 L 111.859375 183.519531 L 101.125 183.519531 L 101.125 186.609375 L 48.917969 186.609375 L 48.917969 183.519531 L 38.183594 183.519531 L 38.183594 186.609375 L 12.160156 186.609375 L 12.160156 191 L 28.097656 191 L 28.097656 198.808594 L 38.671875 198.808594 Z M 248.640625 199.132812 L 259.375 199.132812 L 259.375 192.789062 L 269.621094 192.789062 L 269.621094 183.84375 L 258.886719 183.84375 L 258.886719 190.1875 L 248.640625 190.1875 Z M 406.078125 199.132812 L 416.8125 199.132812 L 416.8125 192.789062 L 427.058594 192.789062 L 427.058594 183.84375 L 416.324219 183.84375 L 416.324219 190.1875 L 406.078125 190.1875 Z M 65.507812 178.964844 L 76.242188 178.964844 L 76.242188 170.019531 L 65.507812 170.019531 Z M 128.449219 178.964844 L 139.183594 178.964844 L 139.183594 170.019531 L 128.449219 170.019531 Z M 286.210938 178.964844 L 296.945312 178.964844 L 296.945312 170.019531 L 286.210938 170.019531 Z M 220.992188 214.421875 L 231.726562 214.421875 L 231.726562 205.476562 L 220.992188 205.476562 Z M 443.648438 178.964844 L 454.382812 178.964844 L 454.382812 170.019531 L 443.648438 170.019531 Z M 62.578125 158.960938 L 62.578125 150.015625 L 52.007812 150.015625 L 52.007812 158.960938 Z M 125.359375 158.960938 L 125.359375 150.015625 L 114.625 150.015625 L 114.625 158.960938 Z M 272.546875 158.960938 L 283.28125 158.960938 L 283.28125 150.015625 L 272.546875 150.015625 Z M 282.308594 108.214844 L 293.042969 108.214844 L 293.042969 99.269531 L 282.308594 99.269531 Z M 365.253906 99.269531 L 354.519531 99.269531 L 354.519531 108.214844 L 365.253906 108.214844 Z M 217.089844 143.671875 L 227.820312 143.671875 L 227.820312 134.726562 L 217.089844 134.726562 Z M 246.363281 130.171875 L 236.117188 130.171875 L 236.117188 139.117188 L 246.851562 139.117188 L 246.851562 132.777344 L 257.097656 132.777344 L 257.097656 123.992188 L 246.363281 123.992188 Z M 181.957031 132.9375 L 181.957031 123.992188 L 171.222656 123.992188 L 171.222656 132.9375 Z M 273.523438 119.113281 L 284.257812 119.113281 L 284.257812 110.167969 L 273.523438 110.167969 Z M 207.328125 194.417969 L 218.0625 194.417969 L 218.0625 185.472656 L 207.328125 185.472656 Z M 429.984375 150.015625 L 429.984375 158.960938 L 440.71875 158.960938 L 440.71875 150.015625 Z M 89.089844 80.730469 L 84.210938 80.730469 L 84.210938 76.175781 L 74.289062 76.175781 L 74.289062 85.121094 L 79.167969 85.121094 L 79.167969 89.675781 L 89.089844 89.675781 Z M 430.796875 89.839844 L 440.71875 89.839844 L 440.71875 80.894531 L 435.839844 80.894531 L 435.839844 76.339844 L 425.917969 76.339844 L 425.917969 85.285156 L 430.796875 85.285156 Z M 132.675781 76.339844 L 132.675781 85.285156 L 137.554688 85.285156 L 137.554688 89.839844 L 147.476562 89.839844 L 147.476562 80.894531 L 142.597656 80.894531 L 142.597656 76.339844 Z M 218.714844 111.632812 L 218.714844 120.578125 L 223.59375 120.578125 L 223.59375 125.132812 L 233.515625 125.132812 L 233.515625 116.1875 L 228.636719 116.1875 L 228.636719 111.632812 Z M 84.535156 66.90625 L 84.535156 69.832031 L 42.085938 69.832031 L 42.085938 74.875 L 84.535156 74.875 L 84.535156 75.851562 L 94.457031 75.851562 L 94.457031 74.875 L 142.921875 74.875 L 142.921875 75.851562 L 152.84375 75.851562 L 152.84375 74.875 L 289.789062 74.875 L 289.789062 75.851562 L 295.644531 75.851562 L 295.644531 87.234375 L 294.34375 87.234375 L 294.34375 80.730469 L 289.464844 80.730469 L 289.464844 76.175781 L 279.542969 76.175781 L 279.542969 85.121094 L 284.421875 85.121094 L 284.421875 87.074219 L 274.175781 87.074219 L 274.175781 89.511719 L 188.464844 89.511719 L 188.464844 100.734375 L 99.5 100.734375 L 99.5 104.476562 L 188.464844 104.476562 L 188.464844 108.867188 L 228.960938 108.867188 L 228.960938 111.144531 L 238.882812 111.144531 L 238.882812 108.867188 L 277.265625 108.867188 L 277.265625 93.902344 L 295.644531 93.902344 L 295.644531 94.554688 L 305.078125 94.554688 L 305.078125 115.046875 L 338.742188 115.046875 L 338.742188 94.71875 L 384.609375 94.71875 L 384.609375 94.066406 L 414.535156 94.066406 L 414.535156 87.398438 L 384.609375 87.398438 L 384.609375 75.527344 L 299.710938 75.527344 L 299.710938 75.199219 L 404.613281 75.199219 L 404.613281 70.160156 L 299.710938 70.160156 L 299.710938 67.230469 L 289.789062 67.230469 L 289.789062 70.160156 L 152.84375 70.160156 L 152.84375 68.695312 L 264.578125 68.695312 L 264.578125 56.171875 L 352.566406 56.171875 L 352.566406 54.382812 L 371.761719 54.382812 L 371.761719 39.90625 L 215.785156 39.90625 L 215.785156 50.804688 L 89.414062 50.804688 L 89.414062 54.382812 L 86.488281 54.382812 L 86.488281 57.636719 L 48.917969 57.636719 L 48.917969 61.375 L 108.605469 61.375 L 108.605469 68.207031 L 142.921875 68.207031 L 142.921875 69.671875 L 94.457031 69.671875 L 94.457031 66.742188 L 84.535156 66.742188 Z M 446.085938 66.90625 L 436.164062 66.90625 L 436.164062 75.851562 L 446.085938 75.851562 Z M 495.203125 436.753906 L 495.203125 434.148438 L 428.359375 434.148438 L 428.359375 436.753906 Z M 464.140625 509.941406 L 464.140625 513.519531 L 651.828125 513.519531 L 651.828125 509.941406 Z M 611.003906 492.539062 L 423.316406 492.539062 L 423.316406 495.628906 L 611.003906 495.628906 Z M 232.539062 254.429688 L 420.226562 254.429688 L 420.226562 250.039062 L 232.539062 250.039062 Z M 404.613281 18.925781 L 42.085938 18.925781 L 42.085938 21.527344 L 404.449219 21.527344 L 404.449219 18.925781 Z M 414.695312 -0.589844 L 131.214844 -0.589844 L 131.214844 0.875 L 414.695312 0.875 Z M 14.925781 300.785156 L 235.792969 300.785156 L 235.792969 313.632812 L 281.820312 313.632812 L 281.820312 300.785156 L 298.410156 300.785156 L 298.410156 299.320312 L 281.820312 299.320312 L 281.820312 298.183594 L 282.957031 298.183594 L 282.957031 293.140625 L 335.816406 293.140625 L 335.816406 298.34375 L 343.460938 298.34375 L 343.460938 293.140625 L 350.617188 293.140625 L 350.617188 291.675781 L 343.136719 291.675781 L 343.136719 291.027344 L 335.492188 291.027344 L 335.492188 291.675781 L 282.632812 291.675781 L 282.632812 291.027344 L 274.988281 291.027344 L 274.988281 291.675781 L 266.042969 291.675781 L 266.042969 291.027344 L 258.5625 291.027344 L 258.5625 291.675781 L 66.808594 291.675781 L 66.808594 293.140625 L 258.5625 293.140625 L 258.5625 296.878906 L 235.792969 296.878906 L 235.792969 299.484375 L 14.925781 299.484375 Z M 266.207031 293.140625 L 275.152344 293.140625 L 275.152344 296.878906 L 266.207031 296.878906 Z M 418.4375 368.769531 L 283.121094 368.769531 L 283.121094 362.101562 L 275.476562 362.101562 L 275.476562 368.769531 L 266.53125 368.769531 L 266.53125 362.101562 L 258.886719 362.101562 L 258.886719 368.769531 L 249.941406 368.769531 L 249.941406 362.101562 L 242.296875 362.101562 L 242.296875 368.769531 L 134.953125 368.769531 L 134.953125 370.230469 L 418.4375 370.230469 Z M 419.738281 320.953125 L 136.253906 320.953125 L 136.253906 322.414062 L 419.738281 322.414062 Z M 308.167969 505.386719 L 354.195312 505.386719 L 354.195312 488.636719 L 308.167969 488.636719 Z M 347.6875 470.257812 L 347.6875 459.359375 L 393.226562 459.359375 L 393.226562 457.894531 L 403.148438 457.894531 L 403.148438 445.371094 L 322.480469 445.371094 L 322.480469 455.128906 L 256.933594 455.128906 L 256.933594 459.523438 L 266.855469 459.523438 L 266.855469 470.417969 L 347.6875 470.417969 Z M 232.539062 475.949219 L 420.226562 475.949219 L 420.226562 471.558594 L 232.539062 471.558594 Z M 421.039062 346.8125 L 284.746094 346.8125 L 284.746094 349.089844 L 421.039062 349.089844 Z M 364.605469 332.988281 L 504.964844 332.988281 L 504.964844 326.320312 L 364.605469 326.320312 Z M 498.457031 375.761719 L 415.183594 375.761719 L 415.183594 380.804688 L 498.457031 380.804688 Z M 473.898438 323.230469 L 557.171875 323.230469 L 557.171875 318.1875 L 473.898438 318.1875 Z M 568.554688 335.914062 L 485.285156 335.914062 L 485.285156 340.957031 L 568.554688 340.957031 Z M 568.554688 335.914062 " fill-opacity="1" fill-rule="nonzero"/></g></svg>