<svg xmlns="http://www.w3.org/2000/svg" xmlns:xlink="http://www.w3.org/1999/xlink" width="700" zoomAndPan="magnify" viewBox="0 0 525 525.000007" height="700" preserveAspectRatio="xMidYMid meet" version="1.0"><defs><clipPath id="8215beefe3"><path d="M 237 170 L 524.5 170 L 524.5 463 L 237 463 Z M 237 170 " clip-rule="nonzero"/></clipPath><clipPath id="6bc0e44478"><path d="M 0.5 117 L 399 117 L 399 523 L 0.5 523 Z M 0.5 117 " clip-rule="nonzero"/></clipPath><clipPath id="f6d193c1d7"><path d="M 0.5 75.214844 L 524.5 75.214844 L 524.5 522 L 0.5 522 Z M 0.5 75.214844 " clip-rule="nonzero"/></clipPath><clipPath id="484a6f3f66"><path d="M 0.5 187 L 221 187 L 221 523 L 0.5 523 Z M 0.5 187 " clip-rule="nonzero"/></clipPath><clipPath id="bb4581a5d6"><path d="M 0.5 234 L 212 234 L 212 524 L 0.5 524 Z M 0.5 234 " clip-rule="nonzero"/></clipPath><clipPath id="199be0448d"><path d="M 0.5 295 L 35 295 L 35 524 L 0.5 524 Z M 0.5 295 " clip-rule="nonzero"/></clipPath><clipPath id="0aa253e0d6"><path d="M 0.5 315 L 13 315 L 13 522 L 0.5 522 Z M 0.5 315 " clip-rule="nonzero"/></clipPath><clipPath id="7a2c422536"><path d="M 0.5 260 L 96 260 L 96 523 L 0.5 523 Z M 0.5 260 " clip-rule="nonzero"/></clipPath><clipPath id="0dffd70073"><path d="M 0.5 159 L 278 159 L 278 523 L 0.5 523 Z M 0.5 159 " clip-rule="nonzero"/></clipPath><clipPath id="9c0ccd296f"><path d="M 467 358 L 524.5 358 L 524.5 523 L 467 523 Z M 467 358 " clip-rule="nonzero"/></clipPath><clipPath id="5aa7554749"><path d="M 491 378 L 524.5 378 L 524.5 524 L 491 524 Z M 491 378 " clip-rule="nonzero"/></clipPath><clipPath id="c87bf3d5bb"><path d="M 461 412 L 524.5 412 L 524.5 457 L 461 457 Z M 461 412 " clip-rule="nonzero"/></clipPath><clipPath id="1f403d9843"><path d="M 509 507 L 524.5 507 L 524.5 523 L 509 523 Z M 509 507 " clip-rule="nonzero"/></clipPath></defs><g clip-path="url(#8215beefe3)"><path fill="#f5002c" d="M 415.007812 177.566406 C 410.210938 181.097656 405.242188 184.75 402.394531 190.832031 C 398.316406 199.492188 391.976562 207.082031 382.433594 214.691406 C 378.042969 218.1875 375.371094 222.984375 374.457031 228.976562 C 373.789062 233.472656 372.050781 236.582031 369.328125 238.234375 C 366.164062 240.132812 361.703125 240.097656 356.078125 238.128906 C 349.421875 235.792969 343.34375 237.214844 337.472656 238.585938 C 335.46875 239.058594 333.414062 239.535156 331.410156 239.851562 C 329.425781 240.148438 327.492188 241.46875 326.125 243.46875 C 324.382812 246.019531 323.769531 249.285156 324.453125 252.449219 C 324.964844 254.804688 324.769531 257.472656 324.453125 260.230469 C 323.699219 266.875 322.90625 273.726562 316.195312 275.867188 C 309.378906 278.03125 302.648438 275.078125 299.820312 268.683594 C 296.625 261.445312 290.789062 258.476562 285.167969 255.628906 C 284.414062 255.242188 283.65625 254.875 282.902344 254.46875 C 279.175781 252.519531 275.1875 252.484375 270.375 254.328125 C 266.527344 255.804688 262.835938 257.667969 259.253906 259.441406 C 255.175781 261.480469 250.976562 263.585938 246.550781 265.132812 C 242.824219 266.433594 240.046875 269.15625 238.484375 273.023438 C 235.953125 279.277344 236.902344 288.203125 240.960938 296.304688 L 243.054688 300.449219 C 251.820312 317.824219 260.902344 335.851562 260.394531 356.320312 C 260.289062 360.238281 259.691406 364.191406 259.09375 368.023438 C 258.53125 371.640625 257.953125 375.386719 257.792969 379.179688 C 257.179688 393.023438 258.179688 396.449219 271.445312 404.601562 C 284.851562 412.84375 297.519531 420.628906 299.980469 438.882812 C 301.210938 447.949219 309.433594 456.398438 322.011719 461.496094 C 328.390625 464.078125 337.035156 461.160156 341.003906 458.71875 C 348.980469 453.800781 356.816406 455.292969 364.390625 456.734375 C 366.359375 457.101562 368.328125 457.472656 370.257812 457.734375 C 385.738281 459.808594 394.066406 458.332031 402.585938 444.066406 C 405.609375 438.988281 407.929688 434.050781 409.6875 428.957031 C 415.097656 413.210938 421.617188 410.296875 438.800781 415.972656 C 446.390625 418.484375 452.589844 418.570312 456.71875 416.234375 C 459.339844 414.757812 461.023438 412.386719 461.746094 409.1875 C 462.976562 403.761719 461.164062 397.714844 459.410156 391.902344 C 459.144531 391.003906 458.882812 390.109375 458.617188 389.246094 C 457.175781 384.203125 457.476562 379.058594 457.757812 374.085938 L 457.84375 372.46875 C 458.125 367.320312 461.691406 363.734375 466.71875 363.558594 C 473.957031 363.3125 481.035156 361.980469 487.90625 360.679688 C 491.140625 360.0625 494.496094 359.429688 497.796875 358.9375 C 502.683594 358.203125 506.8125 358.78125 510.816406 360.800781 C 525.769531 368.339844 528.863281 367.863281 540.863281 356.144531 C 541.898438 355.144531 542.917969 354.109375 543.9375 353.089844 L 545.167969 351.839844 C 546.679688 352.703125 548.207031 353.511719 549.753906 354.300781 C 553.230469 356.109375 556.816406 357.992188 560.117188 360.589844 C 562.507812 362.472656 568.09375 366.863281 573.136719 360.714844 C 573.945312 359.730469 574.894531 358.832031 575.898438 357.902344 C 578.480469 355.460938 581.394531 352.738281 581.394531 348.046875 C 581.394531 347.730469 581.378906 347.414062 581.359375 347.078125 C 580.585938 337.523438 575.878906 329.859375 568.445312 326.082031 C 561.296875 322.429688 552.738281 323.042969 545.007812 327.753906 C 537.839844 332.128906 530.320312 332.761719 524.382812 329.492188 C 518.566406 326.3125 515.15625 319.8125 515 311.660156 C 514.980469 310.324219 514.929688 309.003906 514.875 307.6875 C 514.507812 296.707031 514.15625 286.304688 524.46875 278.011719 C 526.417969 276.449219 527.4375 273.832031 527.316406 270.738281 C 527.121094 263.480469 521.429688 253.855469 514.382812 248.792969 C 513.085938 247.863281 511.695312 247 510.308594 246.125 C 507.164062 244.171875 504.210938 242.328125 502.277344 239.746094 C 496.359375 231.820312 488.996094 230.238281 480.964844 235.160156 C 475.117188 238.761719 470.039062 236.757812 464.660156 234.667969 C 463.589844 234.246094 462.519531 233.824219 461.464844 233.457031 L 458.546875 232.4375 C 449.042969 229.082031 439.203125 225.601562 428.328125 230.1875 C 427.007812 230.75 424.460938 231.046875 423.355469 228.957031 C 422.265625 225.164062 425.675781 223.246094 427.183594 222.613281 C 437.515625 218.238281 439.097656 209.523438 440.625 201.089844 C 440.925781 199.492188 441.207031 197.875 441.558594 196.296875 C 441.820312 195.117188 441.945312 193.992188 442.050781 192.886719 C 442.242188 190.972656 442.4375 189.160156 443.347656 187.210938 C 445.773438 182.117188 443.472656 176.40625 437.640625 172.960938 C 431.382812 169.273438 425.007812 169.078125 421.386719 172.46875 C 419.4375 174.296875 417.1875 175.949219 415.007812 177.566406 Z M 436.320312 175.195312 C 440.996094 177.953125 442.824219 182.222656 440.996094 186.070312 C 439.871094 188.425781 439.660156 190.550781 439.449219 192.605469 C 439.34375 193.675781 439.238281 194.679688 439.011719 195.699219 C 438.640625 197.3125 438.34375 198.949219 438.042969 200.601562 C 436.566406 208.699219 435.179688 216.34375 426.148438 220.191406 C 422.6875 221.667969 419.472656 224.898438 420.929688 229.890625 C 422.722656 233.402344 426.535156 233.738281 429.3125 232.558594 C 439.273438 228.378906 448.199219 231.523438 457.667969 234.859375 L 460.601562 235.878906 C 461.621094 236.230469 462.660156 236.636719 463.714844 237.039062 C 469.175781 239.183594 475.378906 241.609375 482.335938 237.339844 C 489.222656 233.105469 495.058594 234.386719 500.1875 241.257812 C 502.402344 244.226562 505.722656 246.28125 508.921875 248.285156 C 510.253906 249.128906 511.609375 249.953125 512.855469 250.847656 C 519.214844 255.398438 524.523438 264.324219 524.699219 270.757812 C 524.769531 273.179688 524.136719 274.867188 522.816406 275.921875 C 511.484375 285.023438 511.871094 296.546875 512.257812 307.722656 C 512.3125 309.039062 512.347656 310.359375 512.382812 311.660156 C 512.558594 320.761719 516.476562 328.070312 523.132812 331.722656 C 529.898438 335.449219 538.367188 334.78125 546.363281 329.914062 C 553.300781 325.679688 560.925781 325.101562 567.269531 328.332031 C 573.875 331.6875 578.058594 338.574219 578.777344 347.21875 C 579.113281 351.242188 576.792969 353.40625 574.121094 355.917969 C 573.101562 356.867188 572.050781 357.851562 571.136719 358.972656 C 567.972656 362.839844 564.878906 360.941406 561.613281 358.359375 C 558.222656 355.707031 554.53125 353.773438 550.964844 351.894531 C 549.417969 351.085938 547.855469 350.261719 546.328125 349.398438 C 545.941406 349.171875 545.484375 349.171875 545.113281 349.363281 C 544.621094 349.136719 544.023438 349.207031 543.621094 349.609375 L 542.09375 351.136719 C 541.074219 352.15625 540.070312 353.175781 539.050781 354.179688 C 527.808594 365.175781 526.035156 365.441406 512.011719 358.378906 C 507.566406 356.144531 502.804688 355.441406 497.429688 356.269531 C 494.074219 356.777344 490.699219 357.410156 487.449219 358.027344 C 480.683594 359.289062 473.691406 360.609375 466.664062 360.855469 C 460.320312 361.082031 455.628906 365.757812 455.28125 372.222656 L 455.191406 373.820312 C 454.894531 379.023438 454.578125 384.398438 456.140625 389.863281 C 456.386719 390.742188 456.667969 391.636719 456.929688 392.550781 C 458.582031 398.050781 460.285156 403.761719 459.214844 408.523438 C 458.671875 410.964844 457.40625 412.773438 455.457031 413.863281 C 452.027344 415.796875 446.40625 415.636719 439.625 413.40625 C 421.019531 407.257812 413.148438 410.804688 407.226562 428.023438 C 405.539062 432.945312 403.289062 437.722656 400.355469 442.640625 C 392.554688 455.714844 385.191406 457.015625 370.628906 455.0625 C 368.746094 454.816406 366.832031 454.449219 364.898438 454.082031 C 356.835938 452.550781 348.488281 450.953125 339.652344 456.417969 C 335.855469 458.753906 328.195312 461.109375 323.011719 459 C 311.328125 454.257812 303.6875 446.578125 302.597656 438.441406 C 299.960938 418.957031 286.1875 410.488281 272.675781 402.179688 C 260.640625 394.78125 259.867188 392.164062 260.445312 379.199219 C 260.605469 375.542969 261.183594 371.871094 261.730469 368.320312 C 262.328125 364.402344 262.960938 360.363281 263.066406 356.285156 C 263.59375 334.957031 254.367188 316.824219 245.441406 299.167969 L 243.351562 295.039062 C 239.609375 287.589844 238.695312 279.488281 240.945312 273.902344 C 242.226562 270.722656 244.421875 268.578125 247.464844 267.507812 C 252.046875 265.90625 256.335938 263.746094 260.464844 261.671875 C 263.980469 259.914062 267.617188 258.089844 271.359375 256.648438 C 275.433594 255.085938 278.738281 255.085938 281.742188 256.664062 C 282.496094 257.070312 283.269531 257.457031 284.027344 257.84375 C 289.488281 260.617188 294.65625 263.238281 297.484375 269.632812 C 300.875 277.292969 308.90625 280.824219 317.023438 278.257812 C 325.351562 275.625 326.300781 267.207031 327.105469 260.214844 C 327.421875 257.457031 327.632812 254.523438 327.035156 251.796875 C 326.511719 249.355469 326.964844 246.824219 328.320312 244.859375 C 329.269531 243.46875 330.605469 242.523438 331.851562 242.328125 C 333.960938 242.011719 336.066406 241.503906 338.125 241.027344 C 343.886719 239.675781 349.332031 238.394531 355.273438 240.484375 C 361.667969 242.730469 366.886719 242.695312 370.734375 240.359375 C 374.160156 238.304688 376.304688 234.5625 377.09375 229.257812 C 377.902344 223.878906 380.203125 219.75 384.105469 216.625 C 393.976562 208.753906 400.550781 200.882812 404.800781 191.851562 C 407.367188 186.386719 411.863281 183.082031 416.609375 179.585938 C 418.839844 177.933594 421.160156 176.230469 423.230469 174.296875 C 426.324219 171.433594 432.050781 172.664062 436.320312 175.195312 Z M 436.320312 175.195312 " fill-opacity="1" fill-rule="nonzero"/></g><g clip-path="url(#6bc0e44478)"><path fill="#f5002c" d="M -127.460938 168.585938 C -127.019531 159.765625 -124.050781 153.636719 -117.832031 148.699219 C -113 144.867188 -111.191406 138.070312 -110.242188 133.289062 C -108.519531 124.609375 -106.058594 120.007812 -97.925781 120.570312 C -91.757812 120.992188 -84.429688 124.875 -80.863281 129.566406 C -79.652344 131.164062 -78.335938 133.589844 -78.84375 136.117188 C -82.058594 151.667969 -75.242188 163.5625 -68.671875 175.070312 C -66.40625 179.042969 -64.066406 183.136719 -62.1875 187.300781 C -59.359375 193.589844 -52.191406 198.140625 -45.144531 198.105469 C -26.207031 198.015625 -17.351562 210.386719 -8.53125 225.320312 L -8.039062 226.144531 C -6.070312 229.46875 -4.03125 232.910156 -2.996094 236.476562 C 3.558594 259.265625 22.691406 267.925781 40.523438 273.410156 C 52.945312 277.222656 61.328125 283.019531 68.53125 292.804688 C 74.855469 301.398438 82.691406 305.859375 93.199219 306.863281 C 95.484375 307.074219 97.839844 307.179688 100.121094 307.265625 C 106.167969 307.511719 112.402344 307.777344 118.253906 310.164062 C 122.066406 311.730469 127.988281 312.0625 133.222656 308.339844 C 144.34375 300.414062 156.207031 298.851562 168.503906 303.699219 C 169.011719 303.894531 169.609375 303.929688 170.382812 303.769531 C 189.289062 299.851562 200.429688 310.410156 212.007812 323.535156 C 223.375 336.414062 231.667969 351.03125 237.359375 368.25 C 238.765625 372.539062 238.765625 377.984375 237.359375 382.148438 C 231.964844 398.066406 237.429688 412.125 242.738281 425.703125 C 243.300781 427.164062 243.859375 428.605469 244.421875 430.0625 C 247.445312 437.984375 253.296875 441.710938 261.816406 441.097656 C 270.480469 440.480469 275.75 443.785156 278.949219 451.761719 C 279.5625 453.308594 280.195312 454.835938 280.8125 456.363281 C 283.726562 463.550781 286.484375 470.332031 288.472656 477.851562 C 292.863281 494.542969 311.171875 508.933594 336.417969 502.75 C 337.914062 502.378906 339.421875 502.027344 340.933594 501.675781 C 352.671875 498.902344 364.792969 496.035156 375.144531 487.042969 C 378.851562 483.824219 383.085938 482.984375 387.074219 484.652344 C 391.921875 486.671875 395.3125 492.046875 395.699219 498.339844 C 395.964844 502.589844 395.226562 506.808594 394.503906 510.867188 C 393.925781 514.1875 393.3125 517.628906 393.242188 521.125 C 393.242188 521.144531 393.242188 521.144531 393.242188 521.160156 C 393.242188 521.863281 393.800781 522.445312 394.523438 522.460938 C 395.242188 522.480469 395.839844 521.898438 395.859375 521.179688 C 395.929688 517.875 396.492188 514.679688 397.089844 511.304688 C 397.722656 507.703125 398.371094 504.015625 398.371094 500.164062 C 398.371094 499.5 398.351562 498.832031 398.300781 498.164062 C 397.84375 490.890625 393.820312 484.632812 388.074219 482.226562 C 383.191406 480.1875 377.847656 481.207031 373.421875 485.054688 C 363.566406 493.613281 352.285156 496.28125 340.320312 499.113281 C 338.808594 499.464844 337.296875 499.832031 335.785156 500.199219 C 312.15625 506 295.058594 492.664062 290.964844 477.167969 C 288.945312 469.507812 286.027344 462.320312 283.199219 455.363281 C 282.585938 453.835938 281.953125 452.304688 281.355469 450.777344 C 277.734375 441.695312 271.464844 437.777344 261.625 438.460938 C 254.28125 438.988281 249.449219 435.914062 246.847656 429.097656 C 246.285156 427.636719 245.722656 426.160156 245.144531 424.703125 C 239.785156 410.945312 234.707031 397.945312 239.820312 382.921875 C 241.402344 378.25 241.402344 372.152344 239.820312 367.355469 C 234.023438 349.804688 225.554688 334.867188 213.957031 321.726562 C 201.816406 307.96875 190.117188 296.933594 169.855469 301.132812 C 169.433594 301.222656 169.453125 301.1875 169.453125 301.1875 C 156.488281 296.074219 143.433594 297.777344 131.714844 306.140625 C 127.339844 309.25 122.402344 308.988281 119.238281 307.6875 C 112.964844 305.121094 106.5 304.859375 100.226562 304.597656 C 97.875 304.492188 95.640625 304.402344 93.445312 304.191406 C 83.730469 303.261719 76.472656 299.132812 70.621094 291.191406 C 63.050781 280.910156 54.28125 274.832031 41.28125 270.84375 C 24.113281 265.574219 5.71875 257.28125 -0.5 235.6875 C -1.625 231.804688 -3.75 228.21875 -5.804688 224.757812 L -6.296875 223.933594 C -15.539062 208.296875 -24.851562 195.347656 -45.179688 195.433594 C -51.152344 195.46875 -57.445312 191.480469 -59.832031 186.175781 C -61.75 181.90625 -64.121094 177.742188 -66.421875 173.734375 C -73.0625 162.140625 -79.320312 151.175781 -76.3125 136.609375 C -75.734375 133.851562 -76.613281 130.863281 -78.808594 127.949219 C -82.851562 122.625 -90.808594 118.40625 -97.75 117.914062 C -108.785156 117.144531 -111.296875 125.15625 -112.808594 132.726562 C -113.667969 137.101562 -115.300781 143.304688 -119.449219 146.589844 C -126.210938 151.964844 -129.585938 158.890625 -130.058594 168.394531 C -130.113281 169.097656 -129.535156 169.730469 -128.832031 169.765625 C -128.09375 169.851562 -127.496094 169.308594 -127.460938 168.585938 Z M -127.460938 168.585938 " fill-opacity="1" fill-rule="nonzero"/></g><g clip-path="url(#f6d193c1d7)"><path fill="#f5002c" d="M -44.039062 77.996094 C -48.675781 78.03125 -51.75 78.980469 -53.71875 81 C -56.109375 83.460938 -56.53125 86.976562 -56.460938 91.84375 C -56.441406 93.28125 -56.300781 94.792969 -56.179688 96.304688 C -55.6875 101.925781 -55.25 106.828125 -59.867188 110.464844 C -80.40625 99.308594 -103.074219 96.324219 -129.128906 101.328125 C -130.183594 101.539062 -130.886719 102.558594 -130.675781 103.613281 C -130.464844 104.667969 -129.445312 105.371094 -128.390625 105.160156 C -102.808594 100.242188 -80.671875 103.28125 -60.695312 114.472656 C -60.0625 114.824219 -59.273438 114.804688 -58.65625 114.402344 C -51.101562 109.414062 -51.769531 101.945312 -52.296875 95.953125 C -52.417969 94.53125 -52.542969 93.125 -52.578125 91.773438 C -52.648438 88.03125 -52.382812 85.199219 -50.945312 83.726562 C -49.765625 82.511719 -47.5 81.914062 -44.019531 81.898438 C -40.488281 81.878906 -36.921875 81.386719 -33.480469 80.914062 C -29.808594 80.40625 -26.011719 79.894531 -22.304688 79.949219 C -6.210938 80.175781 3.011719 89.082031 3.011719 104.386719 C 3.011719 104.40625 3.011719 104.40625 3.011719 104.40625 C 3.011719 109.515625 3.523438 114.699219 4.015625 119.691406 C 5.175781 131.601562 6.28125 142.863281 1.308594 154.058594 C -0.078125 157.203125 -0.429688 162.472656 1.398438 165.898438 C 6.265625 175 6.070312 184.644531 5.878906 194.785156 C 5.738281 202.164062 5.578125 209.769531 7.511719 217.203125 C 7.898438 218.714844 8.25 220.226562 8.601562 221.734375 C 10.324219 229.238281 12.097656 237.003906 19.074219 242.066406 C 22.21875 244.347656 25.34375 246.808594 28.367188 249.199219 C 35.816406 255.082031 43.53125 261.164062 52.492188 265.292969 C 58.113281 267.875 62.46875 271.949219 67.109375 276.273438 C 70.269531 279.226562 73.539062 282.28125 77.246094 284.8125 C 95.765625 297.496094 115.496094 299.308594 137.527344 290.328125 C 142.90625 288.132812 148.703125 286.007812 155.1875 286.042969 C 166.484375 286.113281 173.300781 283.828125 176.675781 278.855469 C 180.066406 273.847656 179.644531 266.558594 175.320312 255.925781 C 172.722656 249.515625 169.382812 244.628906 164.917969 240.710938 C 168.398438 237.285156 172.351562 237.671875 176.851562 238.113281 C 178.765625 238.304688 180.734375 238.480469 182.664062 238.339844 C 182.875 238.425781 183.226562 238.65625 183.507812 238.8125 C 184.757812 239.570312 186.652344 240.695312 188.816406 240.238281 C 201.625 237.496094 208.386719 245.15625 215.539062 253.273438 C 217.734375 255.75 220 258.316406 222.425781 260.566406 C 224.691406 262.65625 223.902344 266.996094 222.847656 270.96875 C 221.546875 275.832031 220.105469 280.980469 218.296875 285.601562 C 213.90625 296.828125 217.980469 304.035156 224.234375 312.996094 C 237.449219 331.953125 249.238281 350.910156 248.199219 374.523438 C 248.183594 375.121094 248.164062 375.71875 248.148438 376.316406 C 248.113281 378.265625 248.078125 380.128906 247.429688 382.078125 C 244.652344 390.335938 245.300781 399.140625 249.253906 406.886719 C 253.242188 414.707031 260.097656 420.628906 268.039062 423.105469 C 278.210938 426.285156 284.273438 432.523438 287.117188 442.730469 C 289.15625 450.074219 292.371094 456.960938 295.480469 463.621094 C 297.660156 468.3125 299.925781 473.160156 301.738281 478.082031 C 304.320312 485.109375 311.609375 490.433594 321.257812 492.3125 C 332.816406 494.5625 344.449219 491.433594 350.878906 484.335938 C 361.15625 473.003906 373.226562 471.210938 387.195312 469.136719 L 387.863281 469.03125 C 394.101562 468.101562 400.164062 465.90625 406.03125 463.777344 C 408.492188 462.882812 410.949219 461.988281 413.410156 461.195312 C 419.769531 459.140625 419.558594 453.992188 419.382812 450.230469 C 419.347656 449.460938 419.3125 448.703125 419.332031 447.949219 C 419.542969 439.425781 421.386719 433.960938 424.9375 431.238281 C 428.589844 428.464844 434.582031 428.164062 443.246094 430.324219 C 451.941406 432.503906 462.238281 430.238281 470.8125 424.28125 C 479.316406 418.359375 484.761719 409.925781 485.726562 401.160156 C 486.0625 398.191406 485.113281 395.660156 484.199219 393.21875 C 483.691406 391.847656 483.199219 390.546875 482.96875 389.230469 C 482.792969 388.246094 482.546875 387.296875 482.300781 386.402344 C 481.457031 383.257812 481.035156 381.675781 483.777344 379.476562 C 487.308594 376.667969 490.804688 378.003906 495.023438 380.039062 L 495.339844 380.179688 C 500.785156 382.800781 505.566406 387.71875 509.796875 392.058594 C 523.941406 406.589844 537.910156 421.503906 549.875 434.347656 C 554.53125 439.355469 554.53125 444.363281 549.859375 450.109375 C 540.863281 461.160156 529.707031 466.082031 514.753906 465.605469 L 512.539062 465.535156 C 495.917969 464.992188 478.734375 464.429688 462.148438 471.964844 C 456.683594 474.445312 448.585938 473.707031 442.453125 470.15625 C 438.570312 467.90625 435.214844 467.257812 432.226562 468.171875 C 429.222656 469.085938 426.78125 471.527344 424.777344 475.601562 C 424.515625 476.148438 424.515625 476.78125 424.777344 477.324219 C 425.640625 479.066406 426.378906 480.925781 427.078125 482.71875 C 428.976562 487.480469 430.925781 492.417969 435.40625 496.441406 C 441.820312 502.1875 442.875 509.847656 438.519531 519.195312 C 438.0625 520.179688 438.484375 521.335938 439.464844 521.792969 C 440.449219 522.25 441.609375 521.828125 442.066406 520.84375 C 447.164062 509.917969 445.757812 500.464844 438.027344 493.542969 C 434.230469 490.152344 432.527344 485.847656 430.734375 481.296875 C 430.121094 479.714844 429.46875 478.097656 428.730469 476.515625 C 430.121094 473.953125 431.648438 472.441406 433.386719 471.914062 C 435.285156 471.332031 437.621094 471.859375 440.519531 473.546875 C 447.6875 477.675781 457.265625 478.503906 463.800781 475.53125 C 479.5625 468.363281 496.289062 468.925781 512.453125 469.453125 L 514.664062 469.523438 C 530.722656 470.035156 543.25 464.5 552.933594 452.585938 C 555.847656 449.003906 557.308594 445.417969 557.308594 441.9375 C 557.308594 438.390625 555.796875 434.945312 552.773438 431.695312 C 540.773438 418.835938 526.789062 403.902344 512.628906 389.335938 C 508.183594 384.765625 503.140625 379.582031 497.078125 376.667969 L 496.78125 376.527344 C 493.160156 374.789062 487.117188 371.871094 481.386719 376.421875 C 476.644531 380.199219 477.664062 384.027344 478.558594 387.402344 C 478.769531 388.210938 479 389.035156 479.15625 389.914062 C 479.457031 391.566406 480.019531 393.09375 480.5625 394.570312 C 481.351562 396.695312 482.089844 398.699219 481.863281 400.71875 C 481.019531 408.257812 476.066406 415.867188 468.597656 421.066406 C 460.953125 426.390625 451.835938 428.429688 444.210938 426.53125 C 434.179688 424.019531 427.289062 424.527344 422.582031 428.128906 C 417.945312 431.660156 415.675781 437.914062 415.429688 447.84375 C 415.414062 448.667969 415.449219 449.546875 415.484375 450.390625 C 415.675781 454.394531 415.605469 456.363281 412.214844 457.453125 C 409.703125 458.261719 407.207031 459.175781 404.714844 460.089844 C 399.039062 462.144531 393.171875 464.289062 387.320312 465.148438 L 386.652344 465.253906 C 372.542969 467.34375 359.226562 469.332031 348.015625 481.699219 C 342.480469 487.796875 332.289062 490.46875 322.046875 488.464844 C 313.753906 486.847656 307.550781 482.457031 305.445312 476.726562 C 303.582031 471.648438 301.28125 466.714844 299.066406 461.953125 C 296.027344 455.433594 292.898438 448.6875 290.929688 441.660156 C 287.75 430.21875 280.652344 422.910156 269.25 419.34375 C 262.398438 417.199219 256.246094 411.878906 252.769531 405.078125 C 249.289062 398.277344 248.726562 390.546875 251.152344 383.292969 C 251.996094 380.761719 252.046875 378.511719 252.082031 376.351562 C 252.101562 375.789062 252.101562 375.246094 252.117188 374.664062 C 253.207031 349.820312 241.066406 330.246094 227.449219 310.726562 C 221.546875 302.277344 218.246094 296.460938 221.933594 286.992188 C 223.8125 282.195312 225.273438 276.921875 226.609375 271.949219 C 227.503906 268.59375 229.382812 261.621094 225.0625 257.648438 C 222.777344 255.558594 220.582031 253.0625 218.457031 250.65625 C 211.214844 242.449219 203.011719 233.15625 187.972656 236.390625 C 187.320312 236.53125 186.300781 235.914062 185.496094 235.441406 C 184.527344 234.859375 183.613281 234.316406 182.523438 234.402344 C 180.890625 234.542969 179.097656 234.367188 177.21875 234.191406 C 172.070312 233.703125 165.675781 233.070312 160.5625 239.726562 C 159.914062 240.589844 160.070312 241.800781 160.914062 242.449219 C 165.640625 246.140625 169.066406 250.882812 171.703125 257.367188 C 175.425781 266.558594 175.988281 272.863281 173.441406 276.625 C 170.910156 280.367188 164.9375 282.160156 155.203125 282.089844 C 148 282.054688 141.796875 284.320312 136.050781 286.65625 C 115.320312 295.109375 96.800781 293.421875 79.441406 281.542969 C 75.980469 279.171875 72.820312 276.21875 69.761719 273.375 C 65.105469 269.035156 60.308594 264.535156 54.105469 261.691406 C 45.566406 257.773438 38.046875 251.832031 30.773438 246.089844 C 27.714844 243.679688 24.554688 241.1875 21.339844 238.847656 C 15.539062 234.648438 14.011719 227.921875 12.378906 220.804688 C 12.027344 219.257812 11.65625 217.695312 11.269531 216.148438 C 9.480469 209.242188 9.621094 201.898438 9.761719 194.800781 C 9.953125 184.574219 10.183594 174 4.824219 163.984375 C 3.75 161.980469 3.769531 158.046875 4.859375 155.585938 C 10.253906 143.445312 9.039062 131.144531 7.878906 119.25 C 7.40625 114.332031 6.898438 109.253906 6.898438 104.335938 C 6.898438 104.316406 6.898438 104.316406 6.898438 104.300781 C 6.898438 86.800781 -4.015625 76.203125 -22.285156 75.941406 C -26.292969 75.890625 -30.246094 76.433594 -34.058594 76.960938 C -37.484375 77.523438 -40.769531 77.980469 -44.039062 77.996094 Z M -44.039062 77.996094 " fill-opacity="1" fill-rule="nonzero"/></g><g clip-path="url(#484a6f3f66)"><path fill="#f5002c" d="M -115.40625 240.078125 C -111.367188 233.050781 -107.183594 225.777344 -101.4375 219.839844 C -96.589844 214.832031 -96.34375 208.929688 -96.519531 202.8125 C -96.609375 199.933594 -96.574219 197.066406 -96.554688 193.816406 C -96.554688 192.796875 -96.539062 191.761719 -96.539062 190.671875 C -88.59375 193.921875 -84.871094 199.914062 -81.25 205.730469 C -79.300781 208.859375 -77.472656 211.808594 -75.03125 214.355469 C -70.832031 218.75 -67.144531 221.421875 -61.890625 223.84375 C -59.550781 224.917969 -57.199219 225.96875 -54.84375 227.023438 C -37.046875 234.984375 -18.648438 243.222656 -9.933594 263.007812 L -9.792969 263.339844 C -8.777344 265.660156 -7.722656 268.066406 -5.613281 269.140625 C 0.886719 272.460938 6.617188 277.34375 12.148438 282.070312 C 20.898438 289.554688 29.964844 297.285156 42.6875 299.605469 C 48.503906 300.660156 55.847656 304.789062 59.007812 313.1875 C 67.054688 334.550781 84.097656 338.136719 101.316406 338.839844 L 105.605469 339.03125 C 122.4375 339.804688 138.335938 340.542969 152.65625 328.753906 C 152.882812 328.648438 153.746094 328.753906 154.253906 328.808594 C 154.992188 328.894531 155.765625 328.984375 156.503906 328.894531 C 180.890625 325.960938 198.441406 334.746094 210.179688 355.742188 C 214.097656 362.753906 215.574219 369.832031 215.292969 380.285156 C 215.167969 385.03125 214.816406 389.878906 214.503906 394.570312 C 213.535156 408.382812 212.535156 422.664062 216.59375 436.863281 C 219.121094 445.734375 217.191406 455.0625 211.410156 461.828125 C 205.859375 468.347656 199.882812 470.121094 193.664062 467.097656 C 191.46875 466.027344 189.5 466.0625 187.761719 466.082031 C 187.234375 466.082031 186.722656 466.097656 186.195312 466.0625 C 170.613281 465.394531 170.03125 465.800781 165.5 480.679688 L 164.5 483.929688 C 160.757812 495.96875 156.890625 508.40625 162.039062 521.582031 C 162.300781 522.25 163.058594 522.585938 163.726562 522.320312 C 164.394531 522.058594 164.726562 521.300781 164.464844 520.636719 C 159.632812 508.300781 163.199219 496.84375 166.976562 484.703125 L 167.976562 481.4375 C 172.054688 468.066406 172.054688 468.066406 186.074219 468.664062 C 186.652344 468.679688 187.214844 468.679688 187.777344 468.679688 C 189.449219 468.664062 190.886719 468.644531 192.523438 469.4375 C 199.832031 472.984375 207.050781 470.929688 213.394531 463.496094 C 217.910156 458.210938 220.28125 451.496094 220.28125 444.558594 C 220.28125 441.746094 219.894531 438.917969 219.085938 436.125 C 215.167969 422.367188 216.152344 408.3125 217.101562 394.730469 C 217.4375 390.003906 217.769531 385.136719 217.910156 380.339844 C 218.191406 369.550781 216.574219 361.804688 212.464844 354.460938 C 200.324219 332.742188 181.402344 323.273438 156.207031 326.292969 C 155.765625 326.347656 155.167969 326.277344 154.570312 326.207031 C 153.375 326.066406 152.007812 325.890625 151.023438 326.699219 C 137.441406 337.875 122.03125 337.152344 105.710938 336.414062 L 101.40625 336.222656 C 82.535156 335.449219 68.515625 331.089844 61.414062 312.257812 C 57.867188 302.839844 49.644531 298.21875 43.125 297.023438 C 31.089844 294.828125 22.304688 287.324219 13.820312 280.066406 C 8.179688 275.238281 2.328125 270.246094 -4.453125 266.785156 C -5.734375 266.136719 -6.597656 264.167969 -7.421875 262.253906 L -7.582031 261.902344 C -16.683594 241.273438 -35.550781 232.839844 -53.789062 224.671875 C -56.144531 223.617188 -58.480469 222.5625 -60.800781 221.492188 C -65.738281 219.207031 -69.199219 216.710938 -73.152344 212.566406 C -75.402344 210.210938 -77.15625 207.363281 -79.039062 204.359375 C -82.957031 198.070312 -87.402344 190.917969 -97.414062 187.5625 C -97.820312 187.421875 -98.257812 187.492188 -98.59375 187.738281 C -98.925781 187.984375 -99.136719 188.371094 -99.136719 188.792969 C -99.136719 190.585938 -99.15625 192.238281 -99.15625 193.800781 C -99.171875 197.085938 -99.191406 199.984375 -99.121094 202.882812 C -98.960938 208.648438 -99.171875 213.742188 -103.300781 218.011719 C -109.277344 224.179688 -113.527344 231.59375 -117.65625 238.761719 C -121.242188 245 -124.949219 251.445312 -129.726562 256.945312 C -130.199219 257.492188 -130.148438 258.316406 -129.605469 258.792969 C -129.058594 259.265625 -128.234375 259.210938 -127.757812 258.667969 C -122.820312 252.992188 -119.042969 246.441406 -115.40625 240.078125 Z M -115.40625 240.078125 " fill-opacity="1" fill-rule="nonzero"/></g><path fill="#f5002c" d="M 431.261719 262.675781 C 430.4375 263.65625 429.59375 264.640625 428.75 265.625 C 421.933594 273.566406 414.867188 281.773438 413.972656 293.226562 C 413.480469 299.589844 408.597656 302.628906 404.292969 305.316406 L 403.886719 305.5625 C 395.699219 310.691406 391.695312 317.824219 390.902344 328.703125 C 390.480469 334.359375 388.65625 338.277344 385.4375 340.367188 C 381.976562 342.617188 376.933594 342.632812 370.820312 340.4375 C 368.640625 339.648438 366.65625 338.539062 364.566406 337.347656 C 360.664062 335.132812 356.625 332.847656 351.054688 332.742188 C 341.425781 332.566406 321.378906 332.179688 319.886719 351.59375 C 319.605469 355.214844 317.339844 357.464844 312.945312 358.5 C 306.058594 360.097656 300.769531 364.15625 297.203125 370.535156 C 296.992188 370.921875 296.992188 371.378906 297.167969 371.746094 C 296.921875 372.257812 297.027344 372.90625 297.46875 373.292969 C 298.046875 373.820312 298.519531 374.964844 298.855469 375.804688 C 299.242188 376.789062 299.503906 377.441406 300.121094 377.792969 C 310.714844 383.851562 319.832031 392.320312 328.652344 400.492188 C 339.597656 410.664062 350.933594 421.171875 365.355469 427.410156 C 375.214844 431.660156 381.574219 429.710938 388.867188 420.1875 C 392.011719 416.078125 393.03125 411.050781 394.03125 406.183594 C 395.523438 398.839844 396.949219 391.902344 405.292969 388.191406 C 416.292969 383.292969 422.84375 373.644531 429.1875 364.316406 C 431.15625 361.417969 433.195312 358.429688 435.300781 355.671875 C 445.933594 341.828125 456.894531 329.652344 468.84375 318.457031 C 473.269531 314.3125 474.007812 309.972656 473.746094 304.703125 L 473.691406 303.59375 C 473.480469 299.484375 473.269531 295.230469 473.78125 291.207031 C 473.992188 289.503906 474.097656 287.871094 474.097656 286.339844 C 474.097656 270.386719 463.167969 263.621094 452.203125 259.125 C 443.226562 255.453125 436.375 256.613281 431.261719 262.675781 Z M 451.203125 261.53125 C 462.886719 266.3125 473.375 273.199219 471.179688 290.890625 C 470.933594 292.859375 470.847656 294.84375 470.847656 296.828125 C 470.847656 299.148438 470.96875 301.449219 471.074219 303.734375 L 471.128906 304.839844 C 471.375 309.621094 470.757812 313.066406 467.035156 316.5625 C 454.980469 327.859375 443.910156 340.140625 433.195312 354.089844 C 431.03125 356.902344 428.976562 359.921875 426.992188 362.859375 C 420.859375 371.886719 414.515625 381.21875 404.1875 385.820312 C 394.609375 390.089844 392.996094 398.015625 391.429688 405.675781 C 390.445312 410.453125 389.53125 414.988281 386.757812 418.605469 C 380.203125 427.164062 375.054688 428.796875 366.359375 425.019531 C 352.355469 418.957031 341.199219 408.609375 330.394531 398.59375 C 321.519531 390.371094 312.367188 381.851562 301.597656 375.648438 C 301.507812 375.457031 301.367188 375.121094 301.261719 374.839844 C 300.875 373.875 300.367188 372.609375 299.539062 371.675781 C 302.71875 366.039062 307.429688 362.453125 313.527344 361.03125 C 320.449219 359.414062 322.207031 355.109375 322.46875 351.789062 C 323.558594 337.714844 334.664062 335.042969 350.984375 335.34375 C 355.90625 335.429688 359.472656 337.453125 363.265625 339.613281 C 365.355469 340.808594 367.535156 342.019531 369.925781 342.878906 C 376.832031 345.359375 382.679688 345.234375 386.84375 342.546875 C 390.710938 340.035156 393.011719 335.308594 393.488281 328.894531 C 394.222656 318.792969 397.753906 312.46875 405.257812 307.777344 L 405.644531 307.53125 C 409.984375 304.824219 415.941406 301.097656 416.539062 293.421875 C 417.363281 282.808594 423.847656 275.273438 430.683594 267.3125 C 431.523438 266.328125 432.386719 265.328125 433.210938 264.34375 C 437.605469 259.195312 443.3125 258.300781 451.203125 261.53125 Z M 451.203125 261.53125 " fill-opacity="1" fill-rule="nonzero"/><g clip-path="url(#bb4581a5d6)"><path fill="#f5002c" d="M 133.277344 511.78125 C 133.101562 510.636719 132.925781 509.566406 132.960938 508.652344 C 133.398438 497.863281 134.382812 489.097656 142.640625 482.5625 C 148.367188 478.027344 148.859375 471.527344 149.335938 465.21875 C 149.898438 457.59375 152.289062 452.253906 156.242188 449.757812 C 159.578125 447.667969 164.128906 447.632812 169.398438 449.707031 C 179.871094 453.800781 189.394531 453.414062 196.210938 448.597656 C 202.992188 443.800781 206.542969 434.945312 206.191406 423.773438 C 205.945312 415.867188 207.386719 408.066406 208.792969 400.507812 L 209.265625 397.945312 C 210.179688 392.9375 211.109375 387.859375 211.109375 382.976562 C 211.109375 376.648438 209.566406 370.625 204.433594 365.476562 C 203.292969 364.316406 202.152344 363.15625 201.007812 361.980469 C 192.574219 353.351562 183.84375 344.445312 171.964844 339.648438 C 170.453125 339.050781 168.839844 339.191406 167.398438 339.3125 C 166.800781 339.367188 166.183594 339.4375 165.605469 339.417969 C 157.398438 339.191406 149.351562 340.667969 141.585938 342.089844 C 136.28125 343.054688 130.800781 344.074219 125.371094 344.496094 C 109.539062 345.78125 94.253906 347.605469 81.09375 356.023438 C 76.035156 359.253906 73.609375 357.058594 70.234375 354.003906 L 69.671875 353.492188 C 60.714844 345.464844 55.179688 336.609375 53.210938 327.171875 C 51.542969 319.195312 47.765625 313.539062 42.546875 311.253906 C 31.390625 306.386719 21.339844 299.359375 11.605469 292.558594 C 5.753906 288.464844 -0.289062 284.230469 -6.542969 280.507812 C -12.941406 276.675781 -17.703125 273.410156 -20.671875 266.292969 C -25.554688 254.574219 -34.289062 247.84375 -44.039062 248.265625 C -54.878906 248.742188 -63.769531 244.734375 -73.1875 240.484375 C -74.59375 239.851562 -76.015625 239.199219 -77.4375 238.585938 C -86.59375 234.578125 -92.425781 233.773438 -96.957031 235.878906 C -101.191406 237.847656 -104.144531 242.3125 -106.535156 250.359375 C -110.679688 264.324219 -114.230469 267.191406 -128.867188 268.4375 C -129.9375 268.523438 -130.710938 269.472656 -130.65625 270.546875 C -130.570312 271.617188 -129.621094 272.425781 -128.550781 272.320312 C -112.246094 270.949219 -107.429688 267.050781 -102.792969 251.464844 C -100.738281 244.578125 -98.433594 240.871094 -95.308594 239.410156 C -91.953125 237.847656 -86.925781 238.691406 -79.003906 242.152344 C -77.597656 242.765625 -76.191406 243.398438 -74.804688 244.03125 C -65.386719 248.285156 -55.632812 252.675781 -43.863281 252.167969 C -31.933594 251.640625 -25.855469 263.992188 -24.273438 267.785156 C -20.863281 275.972656 -15.136719 279.910156 -8.546875 283.84375 C -2.414062 287.519531 3.574219 291.699219 9.375 295.757812 C 19.25 302.664062 29.472656 309.796875 40.980469 314.839844 C 46.410156 317.210938 48.570312 324.082031 49.398438 327.964844 C 51.542969 338.222656 57.480469 347.78125 67.074219 356.390625 L 67.617188 356.882812 C 71.007812 359.941406 75.628906 364.140625 83.203125 359.308594 C 95.605469 351.382812 110.382812 349.609375 125.6875 348.378906 C 131.328125 347.921875 136.894531 346.902344 142.308594 345.921875 C 149.878906 344.53125 157.714844 343.089844 165.515625 343.320312 C 166.253906 343.335938 167.011719 343.285156 167.765625 343.214844 C 168.855469 343.109375 169.890625 343.019531 170.523438 343.285156 C 181.644531 347.765625 190.078125 356.390625 198.230469 364.71875 C 199.390625 365.898438 200.535156 367.074219 201.695312 368.234375 C 209.335938 375.910156 207.457031 386.277344 205.453125 397.242188 L 204.980469 399.789062 C 203.539062 407.539062 202.046875 415.566406 202.324219 423.878906 C 202.660156 433.714844 199.691406 441.378906 194 445.382812 C 188.289062 449.40625 180.066406 449.652344 170.859375 446.03125 C 164.394531 443.503906 158.628906 443.625 154.183594 446.417969 C 149.140625 449.582031 146.121094 455.976562 145.453125 464.902344 C 145.03125 470.613281 144.625 475.988281 140.234375 479.46875 C 130.695312 487.007812 129.535156 497.054688 129.058594 508.457031 C 129.007812 509.742188 129.21875 511.078125 129.429688 512.359375 C 130.027344 516.101562 130.183594 517.964844 126.988281 519.335938 C 125.984375 519.757812 125.546875 520.914062 125.96875 521.898438 C 126.390625 522.902344 127.546875 523.359375 128.53125 522.917969 C 134.648438 520.335938 133.820312 515.1875 133.277344 511.78125 Z M 133.277344 511.78125 " fill-opacity="1" fill-rule="nonzero"/></g><g clip-path="url(#199be0448d)"><path fill="#f5002c" d="M -10.550781 519.828125 C -17.4375 512.691406 -17.773438 506.140625 -11.570312 499.78125 L -10.320312 498.515625 C -4.683594 492.785156 1.132812 486.867188 2.136719 479.011719 C 3.136719 471.15625 6.738281 466.167969 14.171875 462.285156 C 20.285156 459.105469 26.644531 454.921875 27.472656 448.105469 C 27.960938 444.03125 28.71875 439.847656 29.4375 435.808594 C 31.917969 422.015625 34.480469 407.765625 27.820312 393.183594 C 24.589844 386.121094 22.480469 375.613281 30.808594 365.597656 C 33.445312 362.417969 34.480469 359.34375 34.480469 356.339844 C 34.480469 351.980469 32.300781 347.800781 29.683594 343.828125 C 22.042969 332.199219 10.464844 325.835938 -0.730469 319.6875 C -8.160156 315.59375 -15.855469 311.378906 -22.144531 305.667969 C -23.429688 304.507812 -25.308594 304.210938 -26.554688 304.015625 C -30.597656 303.382812 -34.671875 302.3125 -38.609375 301.292969 C -46.585938 299.203125 -54.84375 297.039062 -63.734375 298.078125 C -68.425781 298.621094 -73.449219 298.078125 -79.074219 296.410156 C -87.207031 293.984375 -95.957031 294.828125 -101.929688 298.605469 C -105.65625 300.957031 -107.921875 304.210938 -108.503906 307.988281 C -110.644531 321.832031 -119.464844 329.246094 -128.671875 335.203125 C -129.585938 335.78125 -129.851562 336.996094 -129.253906 337.910156 C -128.671875 338.820312 -127.460938 339.066406 -126.546875 338.488281 C -116.566406 332.039062 -107.007812 323.941406 -104.636719 308.585938 C -104.128906 305.246094 -101.738281 303.121094 -99.839844 301.90625 C -94.867188 298.761719 -87.15625 298.078125 -80.199219 300.152344 C -74.046875 301.976562 -68.53125 302.574219 -63.296875 301.960938 C -55.125 301.011719 -47.585938 302.980469 -39.609375 305.070312 C -35.570312 306.125 -31.40625 307.214844 -27.171875 307.882812 C -26.539062 307.988281 -25.203125 308.199219 -24.78125 308.566406 C -18.15625 314.574219 -10.269531 318.914062 -2.625 323.113281 C 8.636719 329.300781 19.285156 335.148438 26.398438 345.972656 C 30.757812 352.613281 32.390625 357.550781 27.769531 363.085938 C 20.265625 372.117188 19.003906 383.378906 24.238281 394.800781 C 30.40625 408.257812 28.050781 421.292969 25.574219 435.105469 C 24.835938 439.199219 24.078125 443.433594 23.570312 447.632812 C 22.972656 452.640625 17.5625 456.101562 12.34375 458.824219 C 3.75 463.304688 -0.589844 469.382812 -1.765625 478.519531 C -2.609375 485.074219 -7.949219 490.519531 -13.132812 495.773438 L -14.378906 497.054688 C -22.144531 504.996094 -21.796875 513.816406 -13.378906 522.550781 C -12.625 523.324219 -11.394531 523.359375 -10.621094 522.601562 C -9.828125 521.847656 -9.8125 520.601562 -10.550781 519.828125 Z M -10.550781 519.828125 " fill-opacity="1" fill-rule="nonzero"/></g><g clip-path="url(#0aa253e0d6)"><path fill="#f5002c" d="M -127.25 381.691406 C -122.59375 375.824219 -117.796875 369.746094 -116.902344 361.046875 C -116.144531 353.597656 -110.136719 348.414062 -103.757812 343.917969 C -98.574219 340.261719 -94.09375 336.328125 -90.070312 331.933594 C -78.492188 319.214844 -64.296875 315.261719 -45.375 319.511719 C -41.773438 320.320312 -39.75 322.445312 -37.609375 324.695312 C -36.675781 325.679688 -35.691406 326.699219 -34.585938 327.628906 C -32.425781 329.40625 -30.386719 331.476562 -28.4375 333.480469 C -22.460938 339.578125 -16.296875 345.867188 -5.050781 345.65625 C -2.695312 345.605469 -0.429688 346.675781 1.308594 348.679688 C 3.699219 351.402344 4.699219 355.390625 4.050781 359.589844 C 2.769531 367.96875 4.648438 376.035156 6.476562 383.851562 C 7.84375 389.738281 9.164062 395.308594 9.214844 401.019531 C 9.25 404.671875 9.515625 408.453125 9.777344 412.125 C 10.992188 429.308594 12.148438 445.542969 -6.753906 456.152344 C -11.269531 458.683594 -13.992188 463.164062 -14.835938 469.472656 C -15.980469 478.027344 -19.828125 485.617188 -26.257812 492.03125 C -33.566406 499.339844 -37.785156 509.25 -41.789062 519.617188 C -42.054688 520.300781 -41.71875 521.039062 -41.050781 521.300781 C -40.382812 521.566406 -39.628906 521.230469 -39.363281 520.566406 C -35.464844 510.460938 -31.386719 500.832031 -24.429688 493.875 C -17.597656 487.042969 -13.503906 478.960938 -12.273438 469.824219 C -11.535156 464.304688 -9.320312 460.582031 -5.492188 458.4375 C 9.988281 449.757812 12.957031 437.355469 12.957031 424.335938 C 12.957031 420.242188 12.660156 416.078125 12.378906 411.949219 C 12.113281 408.3125 11.851562 404.570312 11.816406 401 C 11.746094 395.011719 10.359375 389.035156 9.003906 383.273438 C 7.230469 375.699219 5.402344 367.863281 6.617188 360.011719 C 7.386719 355.019531 6.160156 350.277344 3.257812 346.972656 C 1.027344 344.425781 -2.011719 343.003906 -5.105469 343.054688 C -15.222656 343.25 -20.742188 337.628906 -26.589844 331.671875 C -28.59375 329.617188 -30.667969 327.507812 -32.953125 325.644531 C -33.953125 324.820312 -34.8125 323.90625 -35.746094 322.9375 C -38.046875 320.515625 -40.4375 318 -44.828125 317.019531 C -64.734375 312.554688 -79.742188 316.753906 -92.023438 330.230469 C -95.90625 334.5 -100.246094 338.292969 -105.269531 341.84375 C -111.824219 346.464844 -118.621094 352.316406 -119.5 360.835938 C -120.308594 368.777344 -124.683594 374.296875 -129.304688 380.128906 L -129.796875 380.742188 C -130.234375 381.304688 -130.148438 382.132812 -129.585938 382.570312 C -129.023438 383.011719 -128.199219 382.921875 -127.757812 382.359375 Z M -127.25 381.691406 " fill-opacity="1" fill-rule="nonzero"/></g><g clip-path="url(#7a2c422536)"><path fill="#f5002c" d="M -127.460938 308.425781 C -127.214844 306.863281 -126.527344 305.421875 -125.828125 303.875 C -124.667969 301.363281 -123.472656 298.78125 -123.875 295.441406 C -124.386719 291.171875 -121.539062 289.644531 -116.832031 287.484375 C -107.289062 283.089844 -98.945312 276.605469 -90.863281 270.316406 L -87.894531 268.015625 C -83.042969 264.273438 -78.878906 262.691406 -75.488281 263.304688 C -72.765625 263.796875 -70.429688 265.679688 -68.355469 269.035156 C -59.167969 283.953125 -44.652344 288.117188 -30.632812 292.140625 C -27.960938 292.910156 -25.273438 293.683594 -22.621094 294.527344 L -22.269531 294.632812 C -20.40625 295.230469 -17.316406 296.214844 -16.472656 296.917969 C -9.285156 302.980469 -0.800781 306.617188 7.421875 310.148438 C 13.363281 312.695312 19.496094 315.332031 24.921875 318.828125 C 41.738281 329.652344 47.484375 348.414062 53.035156 366.566406 L 54.246094 370.484375 C 55.617188 374.875 54.792969 379.828125 52.226562 382.835938 C 42.617188 394.007812 44.09375 406.378906 45.53125 418.34375 C 45.9375 421.699219 46.339844 425.160156 46.5 428.5 C 46.761719 434.507812 50.398438 439.179688 57.320312 442.378906 C 68.234375 447.4375 73.222656 455.765625 72.996094 468.503906 C 72.695312 485.390625 77.824219 498.25 88.15625 507.105469 C 92.867188 511.148438 93.605469 515.453125 93.269531 521.109375 C 93.253906 521.882812 93.78125 522.445312 94.5 522.496094 C 95.21875 522.53125 95.835938 521.988281 95.886719 521.265625 C 95.941406 520.460938 95.957031 519.667969 95.957031 518.894531 C 95.957031 513.675781 94.675781 509.230469 89.863281 505.121094 C 80.128906 496.792969 75.332031 484.476562 75.59375 468.539062 C 75.769531 454.78125 70.199219 445.472656 58.410156 440.007812 C 52.367188 437.195312 49.328125 433.402344 49.097656 428.375 C 48.941406 424.933594 48.519531 421.417969 48.117188 418.027344 C 46.675781 406.113281 45.339844 394.835938 54.195312 384.519531 C 57.375 380.8125 58.375 375 56.742188 369.710938 L 55.546875 365.792969 C 49.855469 347.203125 43.96875 327.964844 26.347656 316.632812 C 20.742188 313.03125 14.503906 310.339844 8.476562 307.742188 C 0.449219 304.296875 -7.863281 300.710938 -14.75 294.914062 C -15.890625 293.949219 -18.351562 293.121094 -21.445312 292.140625 L -21.796875 292.035156 C -24.464844 291.191406 -27.171875 290.398438 -29.878906 289.625 C -44.039062 285.550781 -57.425781 281.71875 -66.089844 267.664062 C -68.53125 263.691406 -71.519531 261.355469 -74.960938 260.742188 C -79.160156 259.96875 -83.886719 261.671875 -89.421875 265.960938 L -92.390625 268.261719 C -100.351562 274.464844 -108.589844 280.859375 -117.847656 285.109375 C -122.222656 287.113281 -127.179688 289.398438 -126.386719 295.757812 C -126.070312 298.339844 -127.074219 300.503906 -128.109375 302.785156 C -128.867188 304.421875 -129.640625 306.105469 -129.957031 308.003906 C -130.0625 308.707031 -129.585938 309.390625 -128.882812 309.496094 C -128.25 309.621094 -127.582031 309.128906 -127.460938 308.425781 Z M -127.460938 308.425781 " fill-opacity="1" fill-rule="nonzero"/></g><g clip-path="url(#0dffd70073)"><path fill="#f5002c" d="M -116.003906 197.664062 C -118.710938 187.105469 -114.371094 175.527344 -104.425781 166.707031 C -102.175781 164.703125 -99.523438 163.71875 -96.976562 163.914062 C -94.480469 164.105469 -92.179688 165.371094 -90.316406 167.621094 C -84.570312 174.507812 -78.703125 182.011719 -74.644531 190.144531 C -69.636719 200.179688 -63.050781 206.203125 -51.890625 210.964844 C -32.53125 219.207031 -13.539062 229.976562 -5.664062 252.710938 C -3.644531 258.582031 0.378906 263.238281 7.351562 267.820312 C 8.757812 268.753906 10.164062 269.683594 11.570312 270.632812 C 22.535156 277.960938 33.847656 285.53125 47.289062 288.027344 C 54.125 289.292969 59.308594 293.5625 63.628906 301.449219 C 71.097656 315.085938 83.449219 316.5625 94.339844 317.878906 C 100.984375 318.667969 106.992188 319.707031 113.125 324.292969 C 120.027344 329.457031 130.359375 331.125 135.859375 324.0625 C 145.679688 311.464844 157.855469 313.433594 170.753906 315.523438 C 172.351562 315.789062 173.933594 316.035156 175.496094 316.261719 C 194.4375 318.984375 208.863281 330.5625 222.25 353.828125 C 228.382812 364.472656 227.101562 376.472656 224.796875 387.84375 C 220.230469 410.417969 227.101562 430.34375 235.199219 448.492188 C 237.464844 453.570312 241.15625 457.296875 245.566406 458.945312 C 249.765625 460.527344 254.367188 460.195312 259.21875 457.964844 C 264.683594 455.449219 268.230469 461.652344 269.195312 463.621094 C 274.90625 475.339844 274.941406 483.632812 269.265625 491.398438 C 263.136719 499.78125 259.324219 509.019531 255.316406 519.351562 C 254.929688 520.371094 255.421875 521.496094 256.421875 521.882812 C 257.425781 522.269531 258.566406 521.777344 258.953125 520.777344 C 262.871094 510.707031 266.578125 501.710938 272.414062 493.71875 C 276.066406 488.726562 277.402344 483.738281 277.402344 478.960938 C 277.402344 472.738281 275.117188 466.890625 272.695312 461.917969 C 269.195312 454.746094 263.257812 451.8125 257.566406 454.433594 C 253.699219 456.222656 250.117188 456.503906 246.9375 455.308594 C 243.5625 454.046875 240.574219 450.988281 238.765625 446.929688 C 230.929688 429.378906 224.289062 410.15625 228.628906 388.648438 C 230.964844 377.105469 232.441406 363.71875 225.640625 351.894531 C 216.1875 335.464844 201.992188 316.140625 176.042969 312.414062 C 174.496094 312.1875 172.933594 311.941406 171.367188 311.675781 C 158.542969 309.601562 143.996094 307.25 132.75 321.671875 C 128.285156 327.382812 119.765625 324.398438 115.441406 321.164062 C 108.539062 316.015625 101.738281 314.839844 94.796875 313.996094 C 84.363281 312.75 73.554688 311.449219 67.054688 299.570312 C 62.207031 290.699219 55.96875 285.671875 48.011719 284.195312 C 35.359375 281.84375 24.378906 274.5 13.75 267.382812 C 12.34375 266.433594 10.921875 265.503906 9.515625 264.554688 C 3.222656 260.40625 -0.203125 256.488281 -1.957031 251.429688 C -10.355469 227.183594 -31.125 215.550781 -50.347656 207.363281 C -60.695312 202.953125 -66.527344 197.628906 -71.132812 188.390625 C -75.367188 179.902344 -81.410156 172.171875 -87.296875 165.109375 C -89.84375 162.035156 -93.09375 160.277344 -96.660156 160.011719 C -100.28125 159.730469 -103.953125 161.085938 -106.992188 163.789062 C -118.058594 173.613281 -122.820312 186.632812 -119.765625 198.648438 C -116.691406 210.703125 -119.148438 217.519531 -128.566406 222.949219 C -129.5 223.492188 -129.832031 224.6875 -129.289062 225.621094 C -128.742188 226.550781 -127.546875 226.867188 -126.617188 226.339844 C -115.671875 219.980469 -112.472656 211.40625 -116.003906 197.664062 Z M -116.003906 197.664062 " fill-opacity="1" fill-rule="nonzero"/></g><g clip-path="url(#9c0ccd296f)"><path fill="#f5002c" d="M 594.625 371.570312 C 591.761719 376.949219 589.582031 382.605469 587.476562 388.070312 C 586.914062 389.546875 586.332031 391.023438 585.753906 392.496094 C 581.273438 403.867188 581.183594 404.078125 568.746094 402.039062 C 566.058594 401.597656 559.730469 400.5625 558.117188 407.519531 C 558.0625 407.730469 558.082031 407.941406 558.132812 408.152344 C 559.925781 414.757812 565.636719 416.128906 570.222656 417.21875 C 571.136719 417.429688 572.015625 417.640625 572.855469 417.886719 C 577.617188 419.273438 579.113281 420.03125 578.65625 423.683594 C 577.054688 436.40625 574.632812 450.6875 565.917969 458.929688 C 555.988281 468.328125 542.214844 475.832031 529.089844 478.996094 C 522.1875 480.664062 514.683594 481.417969 507.445312 482.15625 C 502.226562 482.683594 496.816406 483.230469 491.542969 484.125 C 476.382812 486.671875 471.355469 492.328125 470.863281 507.40625 C 470.8125 508.757812 471.058594 510.144531 471.285156 511.5 C 471.972656 515.574219 472.199219 518.175781 468.351562 520.019531 C 467.703125 520.335938 467.421875 521.109375 467.738281 521.757812 C 468.054688 522.410156 468.824219 522.691406 469.476562 522.375 C 475.308594 519.597656 474.519531 514.871094 473.867188 511.058594 C 473.65625 509.777344 473.445312 508.582031 473.480469 507.492188 C 473.9375 493.699219 478.085938 489.042969 491.984375 486.707031 C 497.167969 485.828125 502.523438 485.300781 507.707031 484.773438 C 515.035156 484.035156 522.625 483.265625 529.707031 481.558594 C 543.25 478.308594 557.464844 470.5625 567.710938 460.863281 C 577.054688 452.007812 579.585938 437.214844 581.238281 424.035156 C 581.992188 417.902344 577.722656 416.621094 573.578125 415.425781 C 572.699219 415.164062 571.769531 414.953125 570.800781 414.722656 C 566.375 413.667969 562.191406 412.667969 560.714844 407.835938 C 561.664062 404.304688 564.246094 403.988281 568.304688 404.65625 C 581.730469 406.851562 583.207031 406.027344 588.160156 393.5 C 588.742188 392.023438 589.320312 390.53125 589.882812 389.054688 C 591.957031 383.660156 594.097656 378.089844 596.894531 372.855469 C 600.476562 366.125 605.222656 364.191406 612.195312 363.136719 C 623.035156 361.488281 635.96875 360.1875 649.621094 363.050781 C 656.59375 364.507812 660.863281 366.933594 663.449219 370.921875 C 670.316406 381.480469 678.945312 387.914062 690.609375 391.144531 C 694.195312 392.144531 697.375 394.730469 700.730469 397.488281 C 702.171875 398.664062 703.664062 399.878906 705.175781 400.949219 C 706.738281 402.054688 708.269531 403.179688 709.8125 404.304688 C 715.824219 408.699219 722.023438 413.230469 729.421875 416.183594 C 738.875 419.941406 742.566406 428.164062 746.464844 436.878906 C 747.851562 439.953125 749.277344 443.152344 750.980469 446.121094 C 755.390625 453.816406 758.132812 462.390625 760.800781 470.683594 C 764.332031 481.699219 768.003906 493.085938 775.578125 502.835938 C 777.210938 504.925781 779.339844 506.667969 781.410156 508.335938 C 785.644531 511.761719 789.632812 514.960938 789.386719 521.179688 C 789.316406 521.96875 789.914062 522.496094 790.636719 522.53125 C 791.355469 522.566406 791.972656 522.003906 791.988281 521.285156 C 792.007812 521.039062 792.007812 520.792969 792.007812 520.566406 C 792.007812 513.535156 787.261719 509.707031 783.0625 506.296875 C 781.023438 504.644531 779.09375 503.082031 777.652344 501.21875 C 770.359375 491.835938 766.777344 480.664062 763.316406 469.859375 C 760.609375 461.441406 757.816406 452.726562 753.265625 444.785156 C 751.628906 441.921875 750.226562 438.792969 748.871094 435.773438 C 744.9375 426.96875 740.859375 417.886719 730.40625 413.722656 C 723.324219 410.894531 717.511719 406.660156 711.378906 402.160156 C 709.832031 401.035156 708.285156 399.894531 706.703125 398.789062 C 705.261719 397.769531 703.804688 396.589844 702.398438 395.433594 C 698.972656 392.636719 695.441406 389.738281 691.332031 388.597656 C 680.3125 385.539062 672.160156 379.460938 665.660156 369.464844 C 662.675781 364.859375 657.894531 362.085938 650.183594 360.46875 C 636.125 357.515625 622.914062 358.851562 611.828125 360.519531 C 604.253906 361.664062 598.71875 363.910156 594.625 371.570312 Z M 594.625 371.570312 " fill-opacity="1" fill-rule="nonzero"/></g><g clip-path="url(#5aa7554749)"><path fill="#f5002c" d="M 500.3125 494.71875 C 494.160156 499.675781 491.050781 508.5625 491.050781 521.179688 C 491.050781 522.25 491.929688 523.128906 493.003906 523.128906 C 494.074219 523.128906 494.953125 522.25 494.953125 521.179688 C 494.953125 509.8125 497.585938 501.921875 502.753906 497.757812 C 507.234375 494.15625 513.769531 493.277344 522.203125 495.125 C 535.011719 497.933594 544.359375 493.59375 552.125 489.308594 C 559.625 485.179688 564.246094 485.195312 571.136719 489.378906 C 584.050781 497.230469 601.003906 494.386719 612.335938 482.4375 C 619.363281 475.023438 620.664062 466.574219 616.183594 457.3125 C 608.71875 441.886719 610.226562 437.195312 625.671875 427.777344 C 634.507812 422.382812 640.183594 416.957031 644.066406 410.171875 C 644.347656 409.679688 644.402344 409.082031 644.207031 408.558594 C 642.488281 403.65625 638.972656 400.578125 635.863281 397.875 C 634.808594 396.960938 633.773438 396.046875 632.804688 395.082031 C 631.488281 393.746094 629.925781 392.742188 628.414062 391.777344 C 625.972656 390.195312 623.808594 388.808594 622.964844 386.277344 C 636.144531 380.636719 640.730469 379.304688 656.71875 390.019531 C 664.976562 395.574219 674.816406 401.722656 687.113281 404.410156 C 697.621094 406.710938 705.984375 414.074219 714.066406 421.207031 C 716.5625 423.402344 719.160156 425.6875 721.777344 427.796875 C 732.410156 436.335938 739.71875 448.175781 742.878906 462.074219 C 747.464844 482.210938 754.953125 505.015625 775.71875 521.546875 C 776.5625 522.214844 777.792969 522.074219 778.460938 521.230469 C 778.742188 520.878906 778.882812 520.441406 778.882812 520.019531 C 778.882812 519.441406 778.636719 518.878906 778.144531 518.492188 C 758.324219 502.714844 751.121094 480.679688 746.675781 461.214844 C 743.320312 446.453125 735.535156 433.839844 724.222656 424.757812 C 721.671875 422.699219 719.109375 420.46875 716.648438 418.289062 C 708.179688 410.839844 699.429688 403.128906 687.941406 400.613281 C 677.449219 398.3125 669.050781 393.621094 658.898438 386.804688 C 641.414062 375.050781 635.617188 376.613281 619.945312 383.34375 C 619.136719 383.695312 618.660156 384.519531 618.765625 385.382812 C 619.417969 390.652344 623.070312 393.007812 626.285156 395.082031 C 627.675781 395.976562 628.992188 396.820312 630.011719 397.855469 C 631.03125 398.894531 632.136719 399.859375 633.261719 400.84375 C 636.054688 403.285156 638.691406 405.585938 640.167969 409.046875 C 636.636719 414.863281 631.488281 419.660156 623.597656 424.476562 C 606.414062 434.945312 604.253906 441.746094 612.636719 459.050781 C 616.429688 466.90625 615.429688 473.496094 609.472656 479.765625 C 599.246094 490.539062 584.664062 493.066406 573.136719 486.058594 C 565.074219 481.15625 558.871094 481.121094 550.191406 485.898438 C 541.089844 490.925781 533.359375 493.59375 522.992188 491.3125 C 513.402344 489.183594 505.738281 490.34375 500.3125 494.71875 Z M 500.3125 494.71875 " fill-opacity="1" fill-rule="nonzero"/></g><g clip-path="url(#c87bf3d5bb)"><path fill="#f5002c" d="M 520.726562 444.839844 C 521.886719 443.609375 523.097656 442.324219 524.558594 441.308594 C 524.910156 441.0625 525.121094 440.65625 525.121094 440.234375 C 525.121094 440.058594 525.085938 439.882812 525.015625 439.726562 C 524.136719 437.636719 523.328125 435.597656 522.535156 433.59375 C 520.78125 429.167969 519.128906 424.96875 516.949219 421.015625 C 514.347656 416.304688 510.625 413.316406 506.6875 412.84375 C 503.527344 412.457031 500.523438 413.652344 498.027344 416.339844 C 492.597656 422.171875 486.308594 427.269531 480.230469 432.1875 C 474.113281 437.144531 467.789062 442.273438 462.289062 448.175781 C 461.796875 448.703125 461.832031 449.53125 462.359375 450.023438 C 462.449219 450.09375 462.535156 450.164062 462.625 450.214844 C 462.464844 450.304688 462.308594 450.425781 462.203125 450.582031 C 461.78125 451.164062 461.902344 451.972656 462.464844 452.410156 C 468.332031 456.75 473.851562 457.613281 480.949219 455.273438 C 488.855469 452.675781 497.886719 451.25 510.253906 450.636719 C 515.527344 450.355469 518.160156 447.542969 520.726562 444.839844 Z M 463.996094 450.300781 C 463.941406 450.265625 463.890625 450.234375 463.835938 450.199219 C 463.960938 450.128906 464.066406 450.039062 464.171875 449.933594 C 469.546875 444.152344 475.800781 439.09375 481.84375 434.191406 C 487.996094 429.203125 494.335938 424.054688 499.90625 418.097656 C 501.820312 416.058594 504.035156 415.128906 506.335938 415.410156 C 509.429688 415.796875 512.453125 418.289062 514.628906 422.261719 C 516.738281 426.089844 518.355469 430.203125 520.078125 434.542969 C 520.761719 436.265625 521.449219 438.019531 522.1875 439.796875 C 520.902344 440.816406 519.847656 441.941406 518.8125 443.046875 C 516.40625 445.59375 514.332031 447.808594 510.097656 448.019531 C 497.484375 448.652344 488.222656 450.109375 480.105469 452.78125 C 473.761719 454.871094 469.246094 454.167969 463.996094 450.300781 Z M 463.996094 450.300781 " fill-opacity="1" fill-rule="nonzero"/></g><path fill="#f5002c" d="M 144.082031 391.867188 C 146.226562 389.246094 147.296875 386.472656 147.296875 383.730469 C 147.296875 380.953125 146.207031 378.214844 144.011719 375.699219 C 142.078125 373.488281 139.796875 371.605469 137.582031 369.816406 C 136.632812 369.023438 135.667969 368.25 134.734375 367.441406 C 134.207031 366.988281 133.503906 366.863281 132.871094 367.039062 C 132.398438 366.898438 131.871094 366.933594 131.398438 367.179688 C 125.84375 370.078125 122.121094 373.910156 120.292969 378.546875 C 120.046875 379.164062 119.765625 379.777344 119.464844 380.410156 C 117.832031 383.941406 115.371094 389.265625 122.03125 393.515625 C 127.847656 397.222656 139.8125 397.082031 144.082031 391.867188 Z M 124.15625 390.230469 C 122.277344 389.019531 121.558594 387.910156 121.558594 386.578125 C 121.558594 385.347656 122.171875 383.921875 123.035156 382.042969 C 123.347656 381.339844 123.683594 380.65625 123.945312 379.96875 C 125.386719 376.296875 128.269531 373.328125 132.75 370.886719 C 133.523438 371.554688 134.3125 372.1875 135.105469 372.835938 C 137.28125 374.628906 139.339844 376.296875 141.058594 378.285156 C 144.132812 381.796875 144.132812 385.644531 141.058594 389.40625 C 138.320312 392.742188 128.832031 393.21875 124.15625 390.230469 Z M 124.15625 390.230469 " fill-opacity="1" fill-rule="nonzero"/><g clip-path="url(#1f403d9843)"><path fill="#f5002c" d="M 524.382812 511.359375 C 530.566406 512.570312 536.960938 513.835938 539.894531 520.566406 C 540.175781 521.230469 540.949219 521.53125 541.617188 521.25 C 542.109375 521.039062 542.410156 520.566406 542.410156 520.054688 C 542.410156 519.878906 542.375 519.703125 542.304688 519.527344 C 538.824219 511.535156 531.425781 510.09375 524.910156 508.808594 C 523.449219 508.527344 522.027344 508.25 520.691406 507.898438 C 517.109375 506.964844 514.824219 508.074219 513.523438 509.179688 C 510.90625 511.394531 509.589844 515.925781 510.042969 521.320312 C 510.097656 522.039062 510.730469 522.566406 511.449219 522.515625 C 512.171875 522.460938 512.679688 521.828125 512.644531 521.109375 C 512.277344 516.648438 513.242188 512.832031 515.191406 511.183594 C 516.386719 510.164062 518.023438 509.917969 520.023438 510.445312 C 521.394531 510.777344 522.871094 511.058594 524.382812 511.359375 Z M 524.382812 511.359375 " fill-opacity="1" fill-rule="nonzero"/></g><path fill="#f5002c" d="M 404.257812 272.828125 C 400.867188 278.503906 396.753906 282.757812 391.34375 286.183594 C 382.539062 291.769531 373.367188 298.058594 366.253906 307.953125 C 362.6875 312.925781 357.625 316.015625 351.636719 316.894531 C 344.835938 317.878906 337.542969 315.804688 331.621094 311.203125 C 329.425781 309.496094 327.265625 307.652344 325.175781 305.859375 C 322.800781 303.839844 320.359375 301.75 317.8125 299.816406 C 310.976562 294.632812 303.105469 294.230469 296.238281 298.726562 C 288.648438 303.699219 285.082031 312.714844 287.785156 320.164062 C 291.140625 329.421875 288.523438 335.148438 283.199219 341.371094 C 275.277344 350.628906 266.984375 361.785156 268.914062 377.160156 C 268.933594 377.28125 268.949219 377.386719 268.984375 377.492188 C 268.84375 377.96875 268.878906 378.496094 269.125 378.96875 C 274.574219 389.492188 284.183594 394.625 293.480469 399.578125 C 296.394531 401.125 299.417969 402.742188 302.175781 404.464844 C 303.617188 405.359375 305.09375 406.167969 306.550781 406.957031 C 310.800781 409.277344 314.808594 411.472656 317.25 415.691406 C 321.398438 422.875 327.757812 424.949219 333.433594 426.039062 C 340.707031 427.425781 346.925781 431.203125 353.496094 435.210938 C 358.242188 438.089844 363.160156 441.097656 368.554688 443.132812 C 380.871094 447.808594 384.050781 447.753906 392.800781 436.667969 C 396 432.609375 398.210938 428.148438 400.355469 423.808594 C 401.164062 422.171875 401.988281 420.523438 402.921875 418.78125 C 407.207031 410.789062 410.597656 404.480469 419.171875 399.753906 C 426.5 395.714844 430.734375 388.28125 434.828125 381.09375 C 436.988281 377.316406 439.203125 373.398438 441.839844 370.113281 C 443.945312 367.476562 445.738281 364.613281 447.496094 361.855469 C 451.363281 355.707031 455.035156 349.910156 461.746094 346.394531 C 468.753906 342.722656 475.167969 341.757812 479.332031 343.722656 C 488.207031 347.90625 493.722656 343.355469 498.148438 339.699219 L 498.640625 339.296875 C 501.222656 337.171875 502.085938 334.675781 502.085938 332.128906 C 502.085938 329.316406 501.050781 326.453125 500.117188 323.886719 L 499.589844 322.410156 C 498.992188 320.691406 498.429688 318.949219 497.851562 317.210938 C 495.882812 311.148438 493.828125 304.875 490.191406 299.078125 C 487.414062 294.652344 487.203125 289.484375 486.992188 284.019531 C 486.871094 280.910156 486.746094 277.695312 486.113281 274.570312 C 483.796875 262.957031 476.765625 253.574219 466.277344 248.195312 C 455.648438 242.714844 442.191406 241.890625 432.789062 246.125 C 421.5625 251.164062 411.6875 260.425781 404.257812 272.828125 Z M 464.519531 251.640625 C 471.164062 255.066406 479.648438 261.9375 482.300781 275.308594 C 482.863281 278.136719 482.988281 281.070312 483.109375 284.160156 C 483.339844 289.90625 483.566406 295.847656 486.90625 301.152344 C 490.296875 306.527344 492.160156 312.308594 494.160156 318.40625 C 494.722656 320.164062 495.304688 321.917969 495.917969 323.675781 L 496.464844 325.1875 C 498.324219 330.351562 499.308594 333.65625 496.164062 336.238281 L 495.671875 336.644531 C 491.367188 340.191406 487.644531 343.265625 481.019531 340.140625 C 473.78125 336.730469 464.695312 340.402344 459.933594 342.898438 C 452.292969 346.902344 448.179688 353.421875 444.191406 359.746094 C 442.507812 362.417969 440.765625 365.195312 438.800781 367.652344 C 435.988281 371.1875 433.667969 375.226562 431.4375 379.144531 C 427.429688 386.171875 423.652344 392.8125 417.292969 396.308594 C 407.699219 401.597656 403.886719 408.699219 399.40625 417.042969 C 398.527344 418.695312 397.703125 420.363281 396.859375 422.050781 C 394.804688 426.195312 392.679688 430.484375 389.726562 434.226562 C 382.242188 443.714844 380.800781 443.574219 369.925781 439.460938 C 364.882812 437.546875 360.121094 434.664062 355.519531 431.855469 C 348.929688 427.847656 342.128906 423.703125 334.152344 422.171875 C 327.246094 420.855469 323.328125 418.394531 320.625 413.722656 C 317.636719 408.558594 312.945312 405.992188 308.414062 403.515625 C 307.007812 402.757812 305.601562 401.984375 304.230469 401.125 C 301.351562 399.332031 298.273438 397.679688 295.289062 396.101562 C 286.203125 391.269531 277.628906 386.699219 272.730469 377.421875 C 272.800781 377.175781 272.816406 376.914062 272.78125 376.648438 C 271.234375 364.261719 277.015625 354.601562 286.167969 343.898438 C 293.339844 335.519531 294.867188 328.246094 291.457031 318.828125 C 289.367188 313.046875 292.285156 305.984375 298.363281 301.996094 C 303.84375 298.410156 309.90625 298.746094 315.421875 302.925781 C 317.882812 304.789062 320.273438 306.84375 322.609375 308.832031 C 324.734375 310.65625 326.929688 312.539062 329.199219 314.292969 C 335.960938 319.546875 344.324219 321.902344 352.179688 320.761719 C 359.15625 319.742188 365.269531 316.015625 369.414062 310.234375 C 376.109375 300.90625 384.949219 294.863281 393.414062 289.484375 C 399.371094 285.707031 403.871094 281.050781 407.59375 274.832031 C 414.605469 263.113281 423.882812 254.398438 434.40625 249.65625 C 442.789062 245.894531 454.894531 246.683594 464.519531 251.640625 Z M 464.519531 251.640625 " fill-opacity="1" fill-rule="nonzero"/><path fill="#f5002c" d="M 171.15625 425.265625 C 178.132812 425.667969 182.417969 423.28125 185.074219 417.570312 C 186.566406 414.335938 188.253906 411.121094 189.867188 407.996094 C 192.136719 403.65625 194.472656 399.15625 196.371094 394.535156 C 198.023438 390.511719 198.933594 387.402344 198.933594 384.800781 C 198.933594 379.828125 195.613281 376.667969 187.847656 372.398438 C 183.085938 369.78125 178.132812 367.371094 173.316406 365.035156 C 169.050781 362.964844 164.640625 360.820312 160.40625 358.535156 C 147.613281 351.664062 134.753906 352.632812 119.394531 356.199219 C 118.710938 356.355469 117.410156 356.761719 116.496094 357.691406 C 104.9375 369.410156 92.109375 381.550781 76.753906 390.847656 C 73.90625 392.566406 74.363281 395.75 74.714844 398.296875 C 74.890625 399.5625 75.066406 400.859375 74.890625 401.863281 C 74.839844 402.144531 74.875 402.425781 74.996094 402.671875 C 74.820312 403.039062 74.820312 403.480469 75.015625 403.867188 C 78.546875 410.472656 80.039062 417.535156 79.460938 424.898438 C 79.144531 428.921875 78.546875 436.421875 86.136719 438.6875 C 90.878906 440.09375 95.34375 438.460938 99.03125 433.925781 L 99.472656 433.382812 C 103.074219 428.972656 106.796875 424.40625 112.035156 423.070312 C 112.929688 422.839844 113.84375 422.558594 114.757812 422.277344 C 119.273438 420.910156 123.542969 419.609375 128.179688 423.472656 C 133.558594 427.953125 140.339844 428.65625 148.914062 425.582031 C 153.921875 423.789062 160.070312 424.335938 165.992188 424.863281 C 167.765625 425.019531 169.488281 425.179688 171.15625 425.265625 Z M 129.902344 421.488281 C 124.191406 416.726562 118.800781 418.359375 114.054688 419.800781 C 113.175781 420.066406 112.316406 420.328125 111.4375 420.558594 C 105.375 422.101562 101.195312 427.234375 97.503906 431.75 L 97.066406 432.292969 C 94.042969 435.984375 90.632812 437.300781 86.925781 436.195312 C 83.078125 435.050781 81.972656 432.3125 81.972656 428.023438 C 81.972656 427.128906 82.023438 426.144531 82.09375 425.125 C 82.710938 417.304688 81.128906 409.734375 77.371094 402.6875 C 77.421875 402.582031 77.457031 402.476562 77.476562 402.355469 C 77.738281 400.929688 77.527344 399.421875 77.316406 397.960938 C 76.929688 395.238281 76.878906 393.851562 78.125 393.113281 C 93.710938 383.660156 106.675781 371.394531 118.378906 359.554688 C 118.695312 359.21875 119.324219 358.921875 120.011719 358.765625 C 134.804688 355.335938 147.121094 354.371094 159.191406 360.855469 C 163.480469 363.15625 167.90625 365.316406 172.195312 367.390625 C 176.957031 369.710938 181.890625 372.117188 186.601562 374.699219 C 197.320312 380.585938 198.300781 383.046875 193.960938 393.550781 C 192.101562 398.066406 189.796875 402.496094 187.550781 406.800781 C 185.914062 409.945312 184.210938 413.195312 182.699219 416.480469 C 180.503906 421.222656 177.203125 423.015625 171.296875 422.683594 C 169.644531 422.59375 167.960938 422.4375 166.253906 422.296875 C 160.054688 421.75 153.621094 421.171875 148.070312 423.175781 C 140.355469 425.914062 134.578125 425.386719 129.902344 421.488281 Z M 129.902344 421.488281 " fill-opacity="1" fill-rule="nonzero"/></svg>