<svg xmlns="http://www.w3.org/2000/svg" xmlns:xlink="http://www.w3.org/1999/xlink" width="700" zoomAndPan="magnify" viewBox="0 0 525 525.000007" height="700" preserveAspectRatio="xMidYMid meet" version="1.0"><defs><g/><clipPath id="c2aa803f6b"><path d="M 0.5 0 L 524.5 0 L 524.5 524 L 0.5 524 Z M 0.5 0 " clip-rule="nonzero"/></clipPath><clipPath id="41ebda65c8"><rect x="0" width="525" y="0" height="524"/></clipPath></defs><g clip-path="url(#c2aa803f6b)"><g transform="matrix(1, 0, 0, 1, 0, 0.000000000000109615)"><g clip-path="url(#41ebda65c8)"><g fill="#ff2b51" fill-opacity="1"><g transform="translate(501.906853, 333.758715)"><g><path d="M -236.78125 94.203125 L -258.0625 67 L -7.765625 -128.9375 L 13.515625 -101.734375 Z M -236.78125 94.203125 "/></g></g></g><g fill="#ff2b51" fill-opacity="1"><g transform="translate(361.020881, 162.371635)"><g><path d="M -83.21875 240.875 L -117.71875 239.25 L -102.75 -78.28125 L -68.25 -76.65625 Z M -83.21875 240.875 "/></g></g></g><g fill="#ff2b51" fill-opacity="1"><g transform="translate(266.866449, 214.256581)"><g><path d="M -236.78125 94.203125 L -258.0625 67 L -7.765625 -128.9375 L 13.515625 -101.734375 Z M -236.78125 94.203125 "/></g></g></g><g fill="#ff2b51" fill-opacity="1"><g transform="translate(444.036018, 298.229773)"><g><path d="M -180.15625 71.671875 L -196.375 50.96875 L -5.921875 -98.109375 L 10.296875 -77.40625 Z M -180.15625 71.671875 "/></g></g></g><g fill="#ff2b51" fill-opacity="1"><g transform="translate(262.016938, 239.979088)"><g><path d="M -180.15625 71.671875 L -196.375 50.96875 L -5.921875 -98.109375 L 10.296875 -77.40625 Z M -180.15625 71.671875 "/></g></g></g><g fill="#ff2b51" fill-opacity="1"><g transform="translate(257.993993, 256.849941)"><g><path d="M -128.6875 51.1875 L -140.25 36.40625 L -4.21875 -70.0625 L 7.34375 -55.28125 Z M -128.6875 51.1875 "/></g></g></g><g fill="#ff2b51" fill-opacity="1"><g transform="translate(397.010714, 272.676571)"><g><path d="M -128.6875 51.1875 L -140.25 36.40625 L -4.21875 -70.0625 L 7.34375 -55.28125 Z M -128.6875 51.1875 "/></g></g></g></g></g></g></svg>