<svg xmlns="http://www.w3.org/2000/svg" xmlns:xlink="http://www.w3.org/1999/xlink" width="1920" zoomAndPan="magnify" viewBox="0 0 1440 809.999993" height="1080" preserveAspectRatio="xMidYMid meet" version="1.0"><defs><g/><clipPath id="6120d481da"><rect x="0" width="1440" y="0" height="810"/></clipPath></defs><g transform="matrix(1, 0, 0, 1, 0, 0.000000000000039746)"><g clip-path="url(#6120d481da)"><g fill="#ff2b51" fill-opacity="1"><g transform="translate(1258.756776, 580.367831)"><g><path d="M -526.90625 209.609375 L -574.28125 149.078125 L -17.296875 -286.90625 L 30.078125 -226.375 Z M -526.90625 209.609375 "/></g></g></g><g fill="#ff2b51" fill-opacity="1"><g transform="translate(945.248564, 198.986984)"><g><path d="M -185.171875 535.984375 L -261.953125 532.359375 L -228.640625 -174.1875 L -151.859375 -170.5625 Z M -185.171875 535.984375 "/></g></g></g><g fill="#ff2b51" fill-opacity="1"><g transform="translate(735.730461, 314.444508)"><g><path d="M -526.90625 209.609375 L -574.28125 149.078125 L -17.296875 -286.90625 L 30.078125 -226.375 Z M -526.90625 209.609375 "/></g></g></g><g fill="#ff2b51" fill-opacity="1"><g transform="translate(1129.979025, 501.306767)"><g><path d="M -400.90625 159.484375 L -436.96875 113.421875 L -13.171875 -218.328125 L 22.890625 -172.265625 Z M -400.90625 159.484375 "/></g></g></g><g fill="#ff2b51" fill-opacity="1"><g transform="translate(724.939001, 371.683878)"><g><path d="M -400.90625 159.484375 L -436.96875 113.421875 L -13.171875 -218.328125 L 22.890625 -172.265625 Z M -400.90625 159.484375 "/></g></g></g><g fill="#ff2b51" fill-opacity="1"><g transform="translate(715.986888, 409.225951)"><g><path d="M -286.34375 113.921875 L -312.09375 81.015625 L -9.40625 -155.921875 L 16.34375 -123.015625 Z M -286.34375 113.921875 "/></g></g></g><g fill="#ff2b51" fill-opacity="1"><g transform="translate(1025.335425, 444.444437)"><g><path d="M -286.34375 113.921875 L -312.09375 81.015625 L -9.40625 -155.921875 L 16.34375 -123.015625 Z M -286.34375 113.921875 "/></g></g></g></g></g></svg>